<svg xmlns="http://www.w3.org/2000/svg" viewBox="0 0 121.42 140.02"><defs><style>.cls-1{fill:gray;}.cls-2{fill:#fbbc05;}.cls-3{fill:none;stroke:#fbbc05;stroke-miterlimit:10;stroke-width:4px;}</style></defs><title>branch_iconAsset 14</title><g id="Layer_2" data-name="Layer 2"><g id="Layer_1-2" data-name="Layer 1"><path class="cls-1" d="M18.2,125.92a8.12,8.12,0,0,1-2.24,6,8.65,8.65,0,0,1-6.61,2.67,9.41,9.41,0,1,1,0-18.81,10,10,0,0,1,3.75.71,7.49,7.49,0,0,1,2.89,2l-1.66,1.66a5.59,5.59,0,0,0-2.15-1.57A7,7,0,0,0,9.35,118a6.78,6.78,0,0,0-5,2,7.62,7.62,0,0,0,0,10.31,6.81,6.81,0,0,0,5,2,6.69,6.69,0,0,0,4.48-1.51,6,6,0,0,0,2.06-4.14H9.35v-2.17h8.72A7.26,7.26,0,0,1,18.2,125.92Z"/><path class="cls-1" d="M20.29,128a6.52,6.52,0,0,1,1.78-4.7,6.08,6.08,0,0,1,4.55-1.86,6,6,0,0,1,4.53,1.86A6.5,6.5,0,0,1,33,128a6.43,6.43,0,0,1-1.81,4.7,6,6,0,0,1-4.53,1.87,6.06,6.06,0,0,1-4.55-1.87A6.5,6.5,0,0,1,20.29,128Zm2.31,0a4.51,4.51,0,0,0,1.16,3.22,4,4,0,0,0,5.73,0,5,5,0,0,0,0-6.41,3.89,3.89,0,0,0-5.73,0A4.49,4.49,0,0,0,22.6,128Z"/><path class="cls-1" d="M41,140a6.74,6.74,0,0,1-1.94-.26,6.49,6.49,0,0,1-1.65-.74,5.74,5.74,0,0,1-1.27-1.13,4.72,4.72,0,0,1-.8-1.46l2.19-.91a3.43,3.43,0,0,0,1.3,1.74,3.71,3.71,0,0,0,2.17.65A3.82,3.82,0,0,0,44,136.78,4.39,4.39,0,0,0,45,133.66v-1.18h-.1A4.46,4.46,0,0,1,43.15,134a5.3,5.3,0,0,1-2.43.57,5.43,5.43,0,0,1-4.14-1.89A6.82,6.82,0,0,1,34.87,128a6.75,6.75,0,0,1,1.71-4.65,5.41,5.41,0,0,1,4.14-1.91,5.3,5.3,0,0,1,2.43.57,4.51,4.51,0,0,1,1.77,1.54H45v-1.71h2.21v11.79a6.28,6.28,0,0,1-1.68,4.65A6.12,6.12,0,0,1,41,140Zm.07-7.54a3.54,3.54,0,0,0,2.79-1.23,5.11,5.11,0,0,0,0-6.41,3.56,3.56,0,0,0-2.79-1.26,3.6,3.6,0,0,0-2.79,1.26,5.08,5.08,0,0,0,0,6.39A3.63,3.63,0,0,0,41.1,132.48Z"/><path class="cls-1" d="M52.87,116.19v18H50.55v-18Z"/><path class="cls-1" d="M61.59,134.6a5.89,5.89,0,0,1-4.48-1.87,6.57,6.57,0,0,1-1.76-4.7,6.67,6.67,0,0,1,1.71-4.68,6.15,6.15,0,0,1,8.74-.11,7.12,7.12,0,0,1,1.62,5l0,.25H57.72a4,4,0,0,0,1.2,2.92,3.9,3.9,0,0,0,2.77,1.1,3.85,3.85,0,0,0,3.47-2.21l2.06,1a6.15,6.15,0,0,1-2.3,2.44A6.42,6.42,0,0,1,61.59,134.6Zm-3.7-8H65a3.08,3.08,0,0,0-1-2.12,3.59,3.59,0,0,0-2.52-.85,3.34,3.34,0,0,0-2.25.81A3.86,3.86,0,0,0,57.89,126.55Z"/><path class="cls-2" d="M93.29,125.92a8.12,8.12,0,0,1-2.24,6,8.66,8.66,0,0,1-6.61,2.67,9.41,9.41,0,1,1,0-18.81,10,10,0,0,1,3.74.71,7.45,7.45,0,0,1,2.9,2l-1.66,1.66a5.66,5.66,0,0,0-2.15-1.57,7.08,7.08,0,0,0-2.83-.57,6.78,6.78,0,0,0-5,2,7.62,7.62,0,0,0,0,10.31,6.81,6.81,0,0,0,5,2,6.66,6.66,0,0,0,4.47-1.51A6,6,0,0,0,91,126.73H84.44v-2.17h8.72A7.26,7.26,0,0,1,93.29,125.92Z"/><path class="cls-2" d="M95.38,128a6.52,6.52,0,0,1,1.78-4.7,6.08,6.08,0,0,1,4.55-1.86,6,6,0,0,1,4.52,1.86,7,7,0,0,1,0,9.4,6,6,0,0,1-4.52,1.87,6.06,6.06,0,0,1-4.55-1.87A6.5,6.5,0,0,1,95.38,128Zm2.31,0a4.5,4.5,0,0,0,1.15,3.22,4,4,0,0,0,5.74,0,5,5,0,0,0,0-6.41,3.9,3.9,0,0,0-5.74,0A4.48,4.48,0,0,0,97.69,128Z"/><path class="cls-2" d="M116.39,134.19h-2.31l-5-12.32h2.51l3.62,9.56h0l3.67-9.56h2.47Z"/><path class="cls-2" d="M96.24,65.37q0,14.68-8.72,23.39Q77.74,99.14,61.78,99.14A35.15,35.15,0,0,1,35.94,88.56a35.39,35.39,0,0,1-10.57-26,35.42,35.42,0,0,1,10.57-26A35.18,35.18,0,0,1,61.78,25.92a39.06,39.06,0,0,1,14.59,2.74A29.17,29.17,0,0,1,87.62,36.4l-6.46,6.46a21.69,21.69,0,0,0-8.37-6.12,27.58,27.58,0,0,0-11-2.2A26.39,26.39,0,0,0,42.4,42.46q-7.83,8-7.83,20.07T42.4,82.59a26.36,26.36,0,0,0,19.38,7.93q10.47,0,17.43-5.87t8-16.15H61.78V60.08h34A30.72,30.72,0,0,1,96.24,65.37Z"/><path class="cls-2" d="M7,24.18H113.18c.84,0,1.13-.87.4-1.19L61,.08a.94.94,0,0,0-.77,0L6.65,23C5.91,23.3,6.2,24.18,7,24.18Z"/><line class="cls-3" x1="6.23" y1="104.69" x2="114.72" y2="104.69"/><rect class="cls-2" x="99.58" y="25.94" width="8.47" height="74.37"/><rect class="cls-2" x="13.28" y="25.94" width="8.47" height="74.37"/></g></g></svg>