<svg xmlns="http://www.w3.org/2000/svg" viewBox="0 0 149.43 130.08"><defs><style>.cls-1{fill:gray;}.cls-2{fill:#34a853;}.cls-3{fill:none;stroke:#34a853;stroke-linejoin:round;stroke-width:5px;}</style></defs><title>branch_iconAsset 15</title><g id="Layer_2" data-name="Layer 2"><g id="Layer_1-2" data-name="Layer 1"><path class="cls-1" d="M18.2,116A8.13,8.13,0,0,1,16,122a8.64,8.64,0,0,1-6.61,2.66,9.4,9.4,0,1,1,0-18.8,10.24,10.24,0,0,1,3.75.7,7.62,7.62,0,0,1,2.89,2l-1.66,1.66a5.59,5.59,0,0,0-2.15-1.57,7,7,0,0,0-2.83-.57,6.78,6.78,0,0,0-5,2,7.62,7.62,0,0,0,0,10.31,6.81,6.81,0,0,0,5,2,6.69,6.69,0,0,0,4.48-1.51,6,6,0,0,0,2.06-4.14H9.35v-2.17h8.73A8.17,8.17,0,0,1,18.2,116Z"/><path class="cls-1" d="M20.29,118.09a6.52,6.52,0,0,1,1.78-4.7,6.1,6.1,0,0,1,4.55-1.86,6,6,0,0,1,4.53,1.86,6.5,6.5,0,0,1,1.81,4.7,6.43,6.43,0,0,1-1.81,4.7,6,6,0,0,1-4.53,1.86,6.1,6.1,0,0,1-4.55-1.86A6.5,6.5,0,0,1,20.29,118.09Zm2.31,0a4.51,4.51,0,0,0,1.16,3.22,4,4,0,0,0,5.73,0,5,5,0,0,0,0-6.41,3.89,3.89,0,0,0-5.73,0A4.49,4.49,0,0,0,22.6,118.09Z"/><path class="cls-1" d="M41,130.08a6.74,6.74,0,0,1-1.94-.26,6.49,6.49,0,0,1-1.65-.74A5.74,5.74,0,0,1,36.17,128a4.72,4.72,0,0,1-.8-1.46l2.19-.91a3.49,3.49,0,0,0,1.31,1.74A3.68,3.68,0,0,0,41,128,3.86,3.86,0,0,0,44,126.84,4.39,4.39,0,0,0,45,123.72v-1.18h-.1a4.46,4.46,0,0,1-1.77,1.55,5.22,5.22,0,0,1-2.42.56,5.42,5.42,0,0,1-4.15-1.88,6.82,6.82,0,0,1-1.71-4.68,6.75,6.75,0,0,1,1.71-4.65,5.42,5.42,0,0,1,4.15-1.91,5.23,5.23,0,0,1,2.42.57,4.43,4.43,0,0,1,1.77,1.54H45v-1.71h2.22v11.79a6.29,6.29,0,0,1-1.69,4.65A6.12,6.12,0,0,1,41,130.08Zm.07-7.54a3.54,3.54,0,0,0,2.79-1.23,5.11,5.11,0,0,0,0-6.41,3.55,3.55,0,0,0-2.79-1.26,3.62,3.62,0,0,0-2.79,1.26,4.61,4.61,0,0,0-1.13,3.19,4.54,4.54,0,0,0,1.13,3.19A3.62,3.62,0,0,0,41.1,122.54Z"/><path class="cls-1" d="M52.87,106.25v18H50.55v-18Z"/><path class="cls-1" d="M61.59,124.65a5.91,5.91,0,0,1-4.48-1.86,6.57,6.57,0,0,1-1.76-4.7,6.71,6.71,0,0,1,1.71-4.69,5.69,5.69,0,0,1,4.38-1.87,5.63,5.63,0,0,1,4.36,1.77,7.12,7.12,0,0,1,1.62,5l0,.25H57.72a4,4,0,0,0,1.2,2.92,3.91,3.91,0,0,0,6.24-1.11l2.06,1a6.12,6.12,0,0,1-2.3,2.43A6.33,6.33,0,0,1,61.59,124.65Zm-3.7-8H65a3.06,3.06,0,0,0-1-2.12,3.59,3.59,0,0,0-2.52-.85,3.34,3.34,0,0,0-2.25.81A3.79,3.79,0,0,0,57.89,116.61Z"/><path class="cls-2" d="M93.29,116a8.13,8.13,0,0,1-2.24,6,8.64,8.64,0,0,1-6.61,2.66,9.4,9.4,0,1,1,0-18.8,10.24,10.24,0,0,1,3.75.7,7.62,7.62,0,0,1,2.89,2l-1.66,1.66a5.66,5.66,0,0,0-2.15-1.57,7,7,0,0,0-2.83-.57,6.78,6.78,0,0,0-5,2,7.62,7.62,0,0,0,0,10.31,6.81,6.81,0,0,0,5,2,6.66,6.66,0,0,0,4.47-1.51A6,6,0,0,0,91,116.79H84.44v-2.17h8.72A7.26,7.26,0,0,1,93.29,116Z"/><path class="cls-2" d="M98,124.25H95.7V111.93h2.21v2H98a3.36,3.36,0,0,1,1.45-1.68,4,4,0,0,1,2.15-.69,4.36,4.36,0,0,1,1.71.3l-.71,2.24a3.73,3.73,0,0,0-1.35-.17A3,3,0,0,0,99,115a3.56,3.56,0,0,0-1,2.46Z"/><path class="cls-2" d="M110.11,124.65a5.9,5.9,0,0,1-4.48-1.86,6.57,6.57,0,0,1-1.76-4.7,6.71,6.71,0,0,1,1.71-4.69,5.69,5.69,0,0,1,4.38-1.87,5.63,5.63,0,0,1,4.36,1.77,7.12,7.12,0,0,1,1.62,5l0,.25h-9.68a4.05,4.05,0,0,0,1.21,2.92,3.91,3.91,0,0,0,6.24-1.11l2.06,1a6.19,6.19,0,0,1-2.3,2.43A6.33,6.33,0,0,1,110.11,124.65Zm-3.7-8h7.06a3,3,0,0,0-1-2.12,3.61,3.61,0,0,0-2.52-.85,3.31,3.31,0,0,0-2.25.81A3.79,3.79,0,0,0,106.41,116.61Z"/><path class="cls-2" d="M124.21,124.65a5.91,5.91,0,0,1-4.48-1.86,6.57,6.57,0,0,1-1.76-4.7,6.71,6.71,0,0,1,1.71-4.69,5.69,5.69,0,0,1,4.38-1.87,5.63,5.63,0,0,1,4.36,1.77,7.12,7.12,0,0,1,1.62,5l0,.25h-9.68a4.05,4.05,0,0,0,1.21,2.92,3.91,3.91,0,0,0,6.24-1.11l2.06,1a6.19,6.19,0,0,1-2.3,2.43A6.33,6.33,0,0,1,124.21,124.65Zm-3.7-8h7.07a3.06,3.06,0,0,0-1-2.12,3.61,3.61,0,0,0-2.52-.85,3.31,3.31,0,0,0-2.25.81A3.79,3.79,0,0,0,120.51,116.61Z"/><path class="cls-2" d="M132.65,111.93h2.22v1.71h.1a4.17,4.17,0,0,1,1.62-1.51,4.65,4.65,0,0,1,2.27-.6,4.52,4.52,0,0,1,3.48,1.3,5.13,5.13,0,0,1,1.22,3.68v7.74h-2.31v-7.59q-.08-3-3-3a2.91,2.91,0,0,0-2.31,1.12,4.07,4.07,0,0,0-.93,2.68v6.81h-2.32Z"/></g><g id="Layer_2-2" data-name="Layer 2"><path class="cls-2" d="M108,55.79Q108,72.21,98.21,82q-11,11.61-28.81,11.61A39.34,39.34,0,0,1,40.49,81.75Q28.66,69.91,28.66,52.61T40.49,23.48A39.3,39.3,0,0,1,69.4,11.65a43.61,43.61,0,0,1,16.32,3.06,32.69,32.69,0,0,1,12.6,8.66L91.09,30.6a24.26,24.26,0,0,0-9.37-6.85A31,31,0,0,0,69.4,21.29a29.5,29.5,0,0,0-21.69,8.87q-8.76,9-8.76,22.45t8.76,22.46A29.54,29.54,0,0,0,69.4,83.94q11.71,0,19.5-6.57t9-18.08H69.4V49.87h38A34.24,34.24,0,0,1,108,55.79Z"/><path class="cls-3" d="M107.1,40.66S94.6,2.09,146.93,2.5C146.93,2.5,147.2,52.7,107.1,40.66Z"/><path class="cls-3" d="M107.1,40.66S122,32,130.07,20.43"/></g></g></svg>