<svg xmlns="http://www.w3.org/2000/svg" viewBox="0 0 162.21 119.41"><defs><style>.cls-1{fill:gray;}.cls-2{fill:#4285f4;}.cls-3{fill:none;stroke:#4285f4;stroke-miterlimit:10;stroke-width:2px;}</style></defs><title>branch_iconAsset 13</title><g id="Layer_2" data-name="Layer 2"><g id="Layer_1-2" data-name="Layer 1"><path class="cls-1" d="M18.2,105.31a8.15,8.15,0,0,1-2.24,6A8.68,8.68,0,0,1,9.35,114a9.4,9.4,0,1,1,0-18.8,10,10,0,0,1,3.75.7,7.51,7.51,0,0,1,2.89,2l-1.66,1.66A5.61,5.61,0,0,0,12.18,98a7.22,7.22,0,0,0-2.83-.56,6.78,6.78,0,0,0-5,2,7.6,7.6,0,0,0,0,10.3,6.78,6.78,0,0,0,5,2,6.69,6.69,0,0,0,4.48-1.51,6,6,0,0,0,2.06-4.15H9.35V104h8.72A7.19,7.19,0,0,1,18.2,105.31Z"/><path class="cls-1" d="M20.29,107.42a6.52,6.52,0,0,1,1.78-4.7,6.08,6.08,0,0,1,4.55-1.86,6,6,0,0,1,4.53,1.86,6.5,6.5,0,0,1,1.81,4.7,6.43,6.43,0,0,1-1.81,4.7A6,6,0,0,1,26.62,114a6.08,6.08,0,0,1-4.55-1.86A6.52,6.52,0,0,1,20.29,107.42Zm2.31,0a4.53,4.53,0,0,0,1.16,3.22,4,4,0,0,0,5.73,0,4.52,4.52,0,0,0,1.15-3.22,4.46,4.46,0,0,0-1.15-3.19,3.89,3.89,0,0,0-5.73,0A4.47,4.47,0,0,0,22.6,107.42Z"/><path class="cls-1" d="M41,119.41a7.11,7.11,0,0,1-1.94-.26,6.52,6.52,0,0,1-1.65-.75,5.28,5.28,0,0,1-1.27-1.13,4.61,4.61,0,0,1-.8-1.46l2.19-.9a3.48,3.48,0,0,0,1.3,1.74,3.71,3.71,0,0,0,2.17.65A3.86,3.86,0,0,0,44,116.17,4.43,4.43,0,0,0,45,113.05v-1.18h-.1a4.43,4.43,0,0,1-1.77,1.54,5.3,5.3,0,0,1-2.43.57,5.45,5.45,0,0,1-4.14-1.88,6.84,6.84,0,0,1-1.71-4.68,6.71,6.71,0,0,1,1.71-4.65,5.48,5.48,0,0,1,6.57-1.35A4.53,4.53,0,0,1,44.92,103H45v-1.71h2.21v11.79a6.28,6.28,0,0,1-1.68,4.65A6.12,6.12,0,0,1,41,119.41Zm.07-7.54a3.54,3.54,0,0,0,2.79-1.23,5.11,5.11,0,0,0,0-6.41A3.56,3.56,0,0,0,41.1,103a3.6,3.6,0,0,0-2.79,1.26,4.59,4.59,0,0,0-1.13,3.19,4.54,4.54,0,0,0,1.13,3.19A3.6,3.6,0,0,0,41.1,111.87Z"/><path class="cls-1" d="M52.87,95.58v18H50.55v-18Z"/><path class="cls-1" d="M61.59,114a5.91,5.91,0,0,1-4.48-1.86,6.59,6.59,0,0,1-1.76-4.7,6.69,6.69,0,0,1,1.71-4.69,6.16,6.16,0,0,1,8.74-.1,7.1,7.1,0,0,1,1.62,5l0,.25H57.72a4,4,0,0,0,1.2,2.91,3.9,3.9,0,0,0,6.24-1.1l2.06,1a6.15,6.15,0,0,1-2.3,2.44A6.33,6.33,0,0,1,61.59,114Zm-3.7-8H65a3.08,3.08,0,0,0-1-2.13,3.64,3.64,0,0,0-2.52-.84,3.39,3.39,0,0,0-2.25.8A3.85,3.85,0,0,0,57.89,105.94Z"/><path class="cls-2" d="M86.83,108.78a4.66,4.66,0,0,1-1.74,3.79A6.61,6.61,0,0,1,80.82,114a6.34,6.34,0,0,1-3.95-1.31,6.69,6.69,0,0,1-2.36-3.57l2.21-.9a5.81,5.81,0,0,0,.63,1.46,4.65,4.65,0,0,0,.94,1.11,3.91,3.91,0,0,0,1.2.73,3.54,3.54,0,0,0,1.38.27,4,4,0,0,0,2.59-.82,2.65,2.65,0,0,0,1-2.17,2.58,2.58,0,0,0-.83-1.94,7.86,7.86,0,0,0-2.91-1.51c-1.44-.52-2.34-.87-2.69-1a4.63,4.63,0,0,1-2.87-4.3,4.38,4.38,0,0,1,1.59-3.4,5.79,5.79,0,0,1,3.94-1.4,6.07,6.07,0,0,1,3.57,1,4.9,4.9,0,0,1,2,2.59l-2.16.91a3.19,3.19,0,0,0-1.19-1.67,3.86,3.86,0,0,0-4.46.08,2.2,2.2,0,0,0-.93,1.84,2.15,2.15,0,0,0,.72,1.61,12.78,12.78,0,0,0,3.5,1.61,8.86,8.86,0,0,1,3.91,2.27A4.87,4.87,0,0,1,86.83,108.78Z"/><path class="cls-2" d="M95.35,114a6.08,6.08,0,0,1-4.55-1.86,6.62,6.62,0,0,1-1.79-4.7,6.52,6.52,0,0,1,1.79-4.7,6.08,6.08,0,0,1,4.55-1.86,5.63,5.63,0,0,1,5.4,3.54l-2.11.88A3.47,3.47,0,0,0,95.2,103a3.58,3.58,0,0,0-2.74,1.28,5,5,0,0,0,0,6.34,3.58,3.58,0,0,0,2.74,1.28,3.63,3.63,0,0,0,3.57-2.31l2.06.88a5.55,5.55,0,0,1-2.12,2.6A6,6,0,0,1,95.35,114Z"/><path class="cls-2" d="M106.33,97a1.62,1.62,0,0,1-.47,1.16A1.63,1.63,0,0,1,103.07,97a1.54,1.54,0,0,1,.47-1.15A1.63,1.63,0,0,1,106.33,97Zm-.47,4.25v12.32h-2.32V101.26Z"/><path class="cls-2" d="M114.78,114a5.91,5.91,0,0,1-4.48-1.86,6.58,6.58,0,0,1-1.75-4.7,6.73,6.73,0,0,1,1.7-4.69,6.16,6.16,0,0,1,8.74-.1,7.1,7.1,0,0,1,1.62,5l0,.25h-9.68a4,4,0,0,0,1.21,2.91,3.89,3.89,0,0,0,6.23-1.1l2.06,1a6.15,6.15,0,0,1-2.3,2.44A6.33,6.33,0,0,1,114.78,114Zm-3.7-8h7.07a3.08,3.08,0,0,0-1.05-2.13,3.64,3.64,0,0,0-2.52-.84,3.39,3.39,0,0,0-2.25.8A3.91,3.91,0,0,0,111.08,105.94Z"/><path class="cls-2" d="M123.23,101.26h2.21V103h.1a4.1,4.1,0,0,1,1.62-1.51,4.68,4.68,0,0,1,2.28-.6,4.58,4.58,0,0,1,3.48,1.29,5.2,5.2,0,0,1,1.22,3.69v7.74h-2.32V106q-.07-3-3-3a2.88,2.88,0,0,0-2.31,1.12,4,4,0,0,0-.93,2.68v6.81h-2.31Z"/><path class="cls-2" d="M143,114a6.1,6.1,0,0,1-4.55-1.86,6.62,6.62,0,0,1-1.78-4.7,6.52,6.52,0,0,1,1.78-4.7,6.1,6.1,0,0,1,4.55-1.86,5.63,5.63,0,0,1,5.41,3.54l-2.11.88a3.48,3.48,0,0,0-3.45-2.31,3.6,3.6,0,0,0-2.74,1.28,5,5,0,0,0,0,6.34,3.77,3.77,0,0,0,6.31-1l2.06.88a5.55,5.55,0,0,1-2.12,2.6A6,6,0,0,1,143,114Z"/><path class="cls-2" d="M156.38,114a5.88,5.88,0,0,1-4.47-1.86,6.59,6.59,0,0,1-1.76-4.7,6.69,6.69,0,0,1,1.71-4.69,6.15,6.15,0,0,1,8.73-.1,7.1,7.1,0,0,1,1.62,5l0,.25h-9.68a4,4,0,0,0,1.21,2.91,3.89,3.89,0,0,0,6.23-1.1l2.06,1a6.15,6.15,0,0,1-2.3,2.44A6.33,6.33,0,0,1,156.38,114Zm-3.69-8h7.06a3.07,3.07,0,0,0-1-2.13,3.66,3.66,0,0,0-2.53-.84,3.39,3.39,0,0,0-2.25.8A3.84,3.84,0,0,0,152.69,105.94Z"/><path class="cls-2" d="M120.44,45.79q0,17.07-10.08,27.21Q99,85.07,80.45,85.11A40.87,40.87,0,0,1,50.39,72.87Q38.09,60.62,38.05,42.63T50.29,12.34A40.84,40.84,0,0,1,80.31,0a45.17,45.17,0,0,1,17,3.16,33.88,33.88,0,0,1,13.1,9l-7.5,7.53a25.23,25.23,0,0,0-9.74-7.1A32.29,32.29,0,0,0,80.32,10a30.64,30.64,0,0,0-22.51,9.26q-9.09,9.35-9.06,23.34t9.14,23.31A30.69,30.69,0,0,0,80.44,75.1q12.16,0,20.24-6.86T110,49.45l-30.31-.21,0-9.78,40.21.18A35.06,35.06,0,0,1,120.44,45.79Z"/><ellipse class="cls-3" cx="81.17" cy="43.42" rx="10.33" ry="27.76" transform="translate(33.42 122.11) rotate(-86.89)"/><ellipse class="cls-3" cx="80.88" cy="43.4" rx="10.33" ry="27.76" transform="translate(-10.88 41.28) rotate(-26.89)"/><ellipse class="cls-3" cx="81.17" cy="43.42" rx="27.76" ry="10.33" transform="translate(0.47 87.69) rotate(-56.89)"/></g></g></svg>