<svg xmlns="http://www.w3.org/2000/svg" viewBox="0 0 148.39 121.6"><defs><style>.cls-1{fill:gray;}.cls-2{fill:#ea4335;}.cls-3{fill:none;stroke:#ea4335;stroke-miterlimit:10;stroke-width:5px;}</style></defs><title>branch_iconAsset 16</title><g id="Layer_2" data-name="Layer 2"><g id="Layer_1-2" data-name="Layer 1"><path class="cls-1" d="M18.2,107.5a8.15,8.15,0,0,1-2.24,6,8.68,8.68,0,0,1-6.61,2.66,9.4,9.4,0,1,1,0-18.8,10,10,0,0,1,3.75.7,7.51,7.51,0,0,1,2.89,2l-1.66,1.66a5.61,5.61,0,0,0-2.15-1.58,7.22,7.22,0,0,0-2.83-.56,6.81,6.81,0,0,0-5,2,7.62,7.62,0,0,0,0,10.31,6.78,6.78,0,0,0,5,2,6.69,6.69,0,0,0,4.48-1.51,6,6,0,0,0,2.06-4.15H9.35v-2.16h8.73A8.07,8.07,0,0,1,18.2,107.5Z"/><path class="cls-1" d="M20.29,109.61a6.52,6.52,0,0,1,1.78-4.7,6.1,6.1,0,0,1,4.55-1.86,6,6,0,0,1,4.53,1.86,6.5,6.5,0,0,1,1.81,4.7,6.43,6.43,0,0,1-1.81,4.7,6,6,0,0,1-4.53,1.86,6.1,6.1,0,0,1-4.55-1.86A6.52,6.52,0,0,1,20.29,109.61Zm2.31,0a4.53,4.53,0,0,0,1.16,3.22,4,4,0,0,0,5.73,0,4.52,4.52,0,0,0,1.15-3.22,4.46,4.46,0,0,0-1.15-3.19,3.89,3.89,0,0,0-5.73,0A4.47,4.47,0,0,0,22.6,109.61Z"/><path class="cls-1" d="M41,121.6a7.11,7.11,0,0,1-1.94-.26,6.52,6.52,0,0,1-1.65-.75,5.28,5.28,0,0,1-1.27-1.13,4.67,4.67,0,0,1-.8-1.45l2.19-.91a3.43,3.43,0,0,0,1.31,1.73,3.62,3.62,0,0,0,2.16.66A3.86,3.86,0,0,0,44,118.36,4.43,4.43,0,0,0,45,115.24v-1.18h-.1a4.43,4.43,0,0,1-1.77,1.54,5.23,5.23,0,0,1-2.42.57,5.43,5.43,0,0,1-4.15-1.89,6.8,6.8,0,0,1-1.71-4.67A6.71,6.71,0,0,1,36.58,105a5.48,5.48,0,0,1,6.57-1.35,4.53,4.53,0,0,1,1.77,1.55H45v-1.71h2.22v11.79a6.29,6.29,0,0,1-1.69,4.65A6.12,6.12,0,0,1,41,121.6Zm.07-7.54a3.54,3.54,0,0,0,2.79-1.23,5.11,5.11,0,0,0,0-6.41,3.55,3.55,0,0,0-2.79-1.26,3.62,3.62,0,0,0-2.79,1.26,4.59,4.59,0,0,0-1.13,3.19,4.54,4.54,0,0,0,1.13,3.19A3.62,3.62,0,0,0,41.1,114.06Z"/><path class="cls-1" d="M52.87,97.77v18H50.55v-18Z"/><path class="cls-1" d="M61.59,116.17a5.91,5.91,0,0,1-4.48-1.86,6.59,6.59,0,0,1-1.76-4.7,6.69,6.69,0,0,1,1.71-4.69,6.16,6.16,0,0,1,8.74-.1,7.09,7.09,0,0,1,1.62,5l0,.26H57.72a4,4,0,0,0,1.2,2.91,3.9,3.9,0,0,0,6.24-1.1l2.06,1a6.15,6.15,0,0,1-2.3,2.44A6.33,6.33,0,0,1,61.59,116.17Zm-3.7-8H65a3.08,3.08,0,0,0-1-2.13,3.64,3.64,0,0,0-2.52-.84,3.39,3.39,0,0,0-2.25.8A3.85,3.85,0,0,0,57.89,108.13Z"/><path class="cls-2" d="M86.83,111a4.66,4.66,0,0,1-1.74,3.79,6.6,6.6,0,0,1-4.27,1.41,6.34,6.34,0,0,1-3.95-1.31,6.69,6.69,0,0,1-2.36-3.57l2.21-.9a5.81,5.81,0,0,0,.63,1.46,5.13,5.13,0,0,0,.94,1.12,4.31,4.31,0,0,0,1.2.72,3.54,3.54,0,0,0,1.38.27,3.94,3.94,0,0,0,2.59-.82,2.65,2.65,0,0,0,1-2.17,2.58,2.58,0,0,0-.83-1.94,7.86,7.86,0,0,0-2.91-1.51c-1.44-.52-2.34-.87-2.69-1a4.64,4.64,0,0,1-2.87-4.3,4.38,4.38,0,0,1,1.59-3.4,5.79,5.79,0,0,1,3.94-1.4,6.07,6.07,0,0,1,3.57,1,4.9,4.9,0,0,1,2,2.59l-2.16.91a3.25,3.25,0,0,0-1.19-1.68,3.57,3.57,0,0,0-2.18-.66,3.52,3.52,0,0,0-2.28.75,2.2,2.2,0,0,0-.93,1.84,2.15,2.15,0,0,0,.72,1.61,12.78,12.78,0,0,0,3.5,1.61,8.86,8.86,0,0,1,3.91,2.27A4.87,4.87,0,0,1,86.83,111Z"/><path class="cls-2" d="M94,116a3.5,3.5,0,0,1-2.5-.93,3.39,3.39,0,0,1-1-2.59v-6.89H88.29v-2.11h2.16V99.68h2.31v3.77h3v2.11h-3v6.14a2.25,2.25,0,0,0,.48,1.67,1.57,1.57,0,0,0,1.08.44,2,2,0,0,0,.54-.07,2.35,2.35,0,0,0,.49-.16l.73,2.06A6.15,6.15,0,0,1,94,116Z"/><path class="cls-2" d="M97.66,109.61a6.52,6.52,0,0,1,1.79-4.7,6.07,6.07,0,0,1,4.55-1.86,6,6,0,0,1,4.52,1.86,7,7,0,0,1,0,9.4,6,6,0,0,1-4.52,1.86,6.07,6.07,0,0,1-4.55-1.86A6.52,6.52,0,0,1,97.66,109.61Zm2.31,0a4.53,4.53,0,0,0,1.16,3.22,4,4,0,0,0,5.73,0,4.53,4.53,0,0,0,1.16-3.22,4.47,4.47,0,0,0-1.16-3.19,3.89,3.89,0,0,0-5.73,0A4.47,4.47,0,0,0,100,109.61Z"/><path class="cls-2" d="M118.58,116.17a6.07,6.07,0,0,1-4.55-1.86,6.62,6.62,0,0,1-1.79-4.7,6.52,6.52,0,0,1,1.79-4.7,6.07,6.07,0,0,1,4.55-1.86,5.63,5.63,0,0,1,5.4,3.54l-2.11.88a3.48,3.48,0,0,0-3.45-2.31,3.61,3.61,0,0,0-2.74,1.28,5,5,0,0,0,0,6.34,3.77,3.77,0,0,0,6.31-1l2.07.88a5.57,5.57,0,0,1-2.13,2.6A6,6,0,0,1,118.58,116.17Z"/><path class="cls-2" d="M137.4,115.77h-2.79L130.77,110l-1.89,1.86v4h-2.31v-18h2.31v11.08l5.33-5.4h3v.1l-4.8,4.78,5,7.34Z"/><path class="cls-2" d="M148.39,112.35a3.32,3.32,0,0,1-1.41,2.71,5.55,5.55,0,0,1-3.54,1.11,5.6,5.6,0,0,1-3.27-1,5.27,5.27,0,0,1-2-2.55l2.06-.88a3.78,3.78,0,0,0,1.32,1.72,3.22,3.22,0,0,0,1.9.62,3.37,3.37,0,0,0,1.85-.48,1.36,1.36,0,0,0,.74-1.13c0-.79-.61-1.37-1.81-1.74l-2.11-.52c-2.4-.61-3.6-1.76-3.6-3.47a3.2,3.2,0,0,1,1.37-2.7,6.27,6.27,0,0,1,6.46-.24,4.22,4.22,0,0,1,1.85,2.08l-2.06.86a2.61,2.61,0,0,0-1.15-1.22,3.57,3.57,0,0,0-1.77-.44,3,3,0,0,0-1.62.45,1.3,1.3,0,0,0-.72,1.11c0,.7.67,1.2,2,1.51l1.86.47Q148.39,109.57,148.39,112.35Z"/><path class="cls-2" d="M112.19,47.8q0,17.07-10.12,27.2Q90.69,87.06,72.14,87.06a40.88,40.88,0,0,1-30-12.29Q29.81,62.49,29.81,44.5T42.1,14.24A40.84,40.84,0,0,1,72.14,2a45.38,45.38,0,0,1,17,3.18,34,34,0,0,1,13.08,9l-7.51,7.51a25.31,25.31,0,0,0-9.73-7.11A32.09,32.09,0,0,0,72.14,12a30.65,30.65,0,0,0-22.53,9.22q-9.11,9.33-9.1,23.32t9.1,23.33a30.68,30.68,0,0,0,22.53,9.22q12.18,0,20.26-6.83t9.33-18.78H72.14V41.66h39.49A35.76,35.76,0,0,1,112.19,47.8Z"/><polyline class="cls-3" points="49.93 47.7 76.03 22.13 91.73 33.77 122.18 4.15"/><polygon class="cls-2" points="120.95 17.17 121.12 5.18 109.13 5.02 114.28 0 126.27 0.16 126.11 12.15 120.95 17.17"/></g></g></svg>