<?xml version="1.0" encoding="UTF-8" standalone="no"?>
<!DOCTYPE svg PUBLIC "-//W3C//DTD SVG 1.1//EN" "http://www.w3.org/Graphics/SVG/1.1/DTD/svg11.dtd">
<svg width="100%" height="100%" viewBox="0 0 1700 364" version="1.1" xmlns="http://www.w3.org/2000/svg" xmlns:xlink="http://www.w3.org/1999/xlink" xml:space="preserve" xmlns:serif="http://www.serif.com/" style="fill-rule:evenodd;clip-rule:evenodd;stroke-linecap:square;stroke-miterlimit:1.5;">
    <g id="products">
        <g transform="matrix(0.504988,0,0,0.504988,636.481,58.9493)">
            <g transform="matrix(265.68,0,0,265.68,204.574,268.168)">
                <path d="M0.773,-0.358C0.773,-0.252 0.738,-0.163 0.667,-0.092C0.596,-0.02 0.508,0.016 0.405,0.016C0.301,0.016 0.214,-0.02 0.143,-0.092C0.072,-0.163 0.037,-0.252 0.037,-0.358C0.037,-0.464 0.072,-0.553 0.143,-0.624C0.214,-0.696 0.301,-0.732 0.405,-0.732C0.509,-0.732 0.596,-0.696 0.667,-0.623C0.738,-0.552 0.773,-0.463 0.773,-0.358ZM0.131,-0.358C0.131,-0.275 0.157,-0.207 0.209,-0.153C0.262,-0.099 0.327,-0.072 0.405,-0.072C0.483,-0.072 0.548,-0.099 0.6,-0.153C0.653,-0.206 0.679,-0.275 0.679,-0.358C0.679,-0.441 0.653,-0.51 0.6,-0.563C0.548,-0.617 0.483,-0.644 0.405,-0.644C0.327,-0.644 0.262,-0.617 0.209,-0.563C0.157,-0.509 0.131,-0.441 0.131,-0.358Z" style="fill:rgb(139,139,139);fill-rule:nonzero;"/>
            </g>
            <g transform="matrix(265.68,0,0,265.68,419.775,268.168)">
                <path d="M0.486,0L0.398,0L0.398,-0.068L0.394,-0.068C0.38,-0.044 0.359,-0.024 0.33,-0.008C0.301,0.008 0.27,0.016 0.239,0.016C0.179,0.016 0.133,-0.001 0.101,-0.035C0.068,-0.07 0.052,-0.119 0.052,-0.182L0.052,-0.49L0.144,-0.49L0.144,-0.188C0.146,-0.108 0.186,-0.068 0.265,-0.068C0.302,-0.068 0.332,-0.083 0.357,-0.113C0.382,-0.142 0.394,-0.178 0.394,-0.219L0.394,-0.49L0.486,-0.49L0.486,0Z" style="fill:rgb(139,139,139);fill-rule:nonzero;"/>
            </g>
            <g transform="matrix(265.68,0,0,265.68,563.773,268.168)">
                <path d="M0.148,0L0.056,0L0.056,-0.49L0.144,-0.49L0.144,-0.41L0.148,-0.41C0.157,-0.436 0.177,-0.458 0.205,-0.476C0.234,-0.495 0.263,-0.504 0.291,-0.504C0.318,-0.504 0.34,-0.5 0.359,-0.492L0.331,-0.403C0.32,-0.408 0.302,-0.41 0.277,-0.41C0.242,-0.41 0.212,-0.396 0.187,-0.368C0.161,-0.34 0.148,-0.307 0.148,-0.27L0.148,0Z" style="fill:rgb(139,139,139);fill-rule:nonzero;"/>
            </g>
            <g transform="matrix(265.68,0,0,265.68,718.664,268.168)">
                <path d="M0.296,-0.068C0.34,-0.068 0.377,-0.085 0.407,-0.118C0.437,-0.151 0.452,-0.193 0.452,-0.245C0.452,-0.296 0.437,-0.339 0.407,-0.372C0.377,-0.405 0.34,-0.422 0.296,-0.422C0.251,-0.422 0.214,-0.405 0.184,-0.372C0.155,-0.339 0.14,-0.296 0.14,-0.245C0.14,-0.193 0.155,-0.15 0.184,-0.117C0.214,-0.084 0.251,-0.068 0.296,-0.068ZM0.311,0.016C0.275,0.016 0.242,0.008 0.213,-0.007C0.183,-0.022 0.16,-0.043 0.144,-0.068L0.14,-0.068L0.144,0L0.144,0.216L0.052,0.216L0.052,-0.49L0.14,-0.49L0.14,-0.422L0.144,-0.422C0.16,-0.447 0.183,-0.468 0.213,-0.483C0.242,-0.498 0.275,-0.506 0.311,-0.506C0.376,-0.506 0.43,-0.481 0.475,-0.43C0.521,-0.379 0.544,-0.317 0.544,-0.245C0.544,-0.172 0.521,-0.111 0.475,-0.06C0.43,-0.009 0.376,0.016 0.311,0.016Z" style="fill:rgb(139,139,139);fill-rule:nonzero;"/>
            </g>
            <g transform="matrix(265.68,0,0,265.68,869.305,268.168)">
                <path d="M0.148,0L0.056,0L0.056,-0.49L0.144,-0.49L0.144,-0.41L0.148,-0.41C0.157,-0.436 0.177,-0.458 0.205,-0.476C0.234,-0.495 0.263,-0.504 0.291,-0.504C0.318,-0.504 0.34,-0.5 0.359,-0.492L0.331,-0.403C0.32,-0.408 0.302,-0.41 0.277,-0.41C0.242,-0.41 0.212,-0.396 0.187,-0.368C0.161,-0.34 0.148,-0.307 0.148,-0.27L0.148,0Z" style="fill:rgb(139,139,139);fill-rule:nonzero;"/>
            </g>
            <g transform="matrix(265.68,0,0,265.68,957.776,268.168)">
                <path d="M0.028,-0.245C0.028,-0.32 0.052,-0.383 0.099,-0.432C0.147,-0.481 0.207,-0.506 0.28,-0.506C0.353,-0.506 0.413,-0.481 0.46,-0.432C0.508,-0.383 0.532,-0.32 0.532,-0.245C0.532,-0.169 0.508,-0.107 0.46,-0.058C0.413,-0.009 0.353,0.016 0.28,0.016C0.207,0.016 0.147,-0.009 0.099,-0.058C0.052,-0.107 0.028,-0.17 0.028,-0.245ZM0.12,-0.245C0.12,-0.192 0.135,-0.15 0.166,-0.117C0.197,-0.084 0.235,-0.068 0.28,-0.068C0.325,-0.068 0.363,-0.084 0.394,-0.117C0.425,-0.15 0.44,-0.192 0.44,-0.245C0.44,-0.297 0.425,-0.339 0.394,-0.372C0.363,-0.405 0.325,-0.422 0.28,-0.422C0.235,-0.422 0.197,-0.405 0.166,-0.372C0.135,-0.339 0.12,-0.297 0.12,-0.245Z" style="fill:rgb(139,139,139);fill-rule:nonzero;"/>
            </g>
            <g transform="matrix(265.68,0,0,265.68,1106.56,268.168)">
                <path d="M0.276,-0.068C0.321,-0.068 0.358,-0.084 0.387,-0.117C0.417,-0.15 0.432,-0.192 0.432,-0.245C0.432,-0.296 0.417,-0.339 0.387,-0.372C0.358,-0.405 0.321,-0.422 0.276,-0.422C0.232,-0.422 0.195,-0.405 0.165,-0.372C0.135,-0.339 0.12,-0.296 0.12,-0.245C0.12,-0.193 0.135,-0.151 0.165,-0.118C0.195,-0.085 0.232,-0.068 0.276,-0.068ZM0.261,0.016C0.197,0.016 0.142,-0.009 0.096,-0.06C0.051,-0.111 0.028,-0.173 0.028,-0.245C0.028,-0.317 0.051,-0.379 0.096,-0.43C0.142,-0.481 0.197,-0.506 0.261,-0.506C0.297,-0.506 0.33,-0.498 0.36,-0.483C0.389,-0.468 0.412,-0.447 0.428,-0.422L0.432,-0.422L0.428,-0.49L0.428,-0.716L0.52,-0.716L0.52,0L0.432,0L0.432,-0.068L0.428,-0.068C0.412,-0.043 0.389,-0.022 0.36,-0.007C0.33,0.008 0.297,0.016 0.261,0.016Z" style="fill:rgb(139,139,139);fill-rule:nonzero;"/>
            </g>
            <g transform="matrix(265.68,0,0,265.68,1259.59,268.168)">
                <path d="M0.486,0L0.398,0L0.398,-0.068L0.394,-0.068C0.38,-0.044 0.359,-0.024 0.33,-0.008C0.301,0.008 0.27,0.016 0.239,0.016C0.179,0.016 0.133,-0.001 0.101,-0.035C0.068,-0.07 0.052,-0.119 0.052,-0.182L0.052,-0.49L0.144,-0.49L0.144,-0.188C0.146,-0.108 0.186,-0.068 0.265,-0.068C0.302,-0.068 0.332,-0.083 0.357,-0.113C0.382,-0.142 0.394,-0.178 0.394,-0.219L0.394,-0.49L0.486,-0.49L0.486,0Z" style="fill:rgb(139,139,139);fill-rule:nonzero;"/>
            </g>
            <g transform="matrix(265.68,0,0,265.68,1402.26,268.168)">
                <path d="M0.28,0.016C0.207,0.016 0.147,-0.009 0.099,-0.058C0.052,-0.109 0.028,-0.171 0.028,-0.245C0.028,-0.32 0.052,-0.383 0.099,-0.432C0.147,-0.481 0.207,-0.506 0.28,-0.506C0.33,-0.506 0.374,-0.494 0.411,-0.469C0.448,-0.444 0.476,-0.409 0.495,-0.365L0.411,-0.33C0.385,-0.391 0.339,-0.422 0.274,-0.422C0.232,-0.422 0.196,-0.405 0.165,-0.371C0.135,-0.337 0.12,-0.295 0.12,-0.245C0.12,-0.195 0.135,-0.153 0.165,-0.119C0.196,-0.085 0.232,-0.068 0.274,-0.068C0.341,-0.068 0.389,-0.099 0.416,-0.16L0.498,-0.125C0.48,-0.081 0.452,-0.047 0.413,-0.021C0.375,0.003 0.331,0.016 0.28,0.016Z" style="fill:rgb(139,139,139);fill-rule:nonzero;"/>
            </g>
            <g transform="matrix(265.68,0,0,265.68,1539.61,268.168)">
                <path d="M0.25,0.008C0.21,0.008 0.177,-0.004 0.151,-0.029C0.124,-0.054 0.111,-0.088 0.11,-0.132L0.11,-0.406L0.024,-0.406L0.024,-0.49L0.11,-0.49L0.11,-0.64L0.202,-0.64L0.202,-0.49L0.322,-0.49L0.322,-0.406L0.202,-0.406L0.202,-0.162C0.202,-0.129 0.208,-0.107 0.221,-0.096C0.234,-0.084 0.248,-0.078 0.264,-0.078C0.271,-0.078 0.279,-0.079 0.285,-0.081C0.293,-0.082 0.299,-0.084 0.305,-0.087L0.334,-0.005C0.31,0.004 0.282,0.008 0.25,0.008Z" style="fill:rgb(139,139,139);fill-rule:nonzero;"/>
            </g>
            <g transform="matrix(265.68,0,0,265.68,1636.32,268.168)">
                <path d="M0.431,-0.136C0.431,-0.093 0.412,-0.057 0.375,-0.028C0.338,0.001 0.291,0.016 0.234,0.016C0.185,0.016 0.141,0.003 0.104,-0.023C0.067,-0.048 0.04,-0.082 0.024,-0.124L0.106,-0.159C0.118,-0.13 0.136,-0.107 0.159,-0.091C0.182,-0.074 0.207,-0.066 0.234,-0.066C0.263,-0.066 0.288,-0.072 0.308,-0.085C0.327,-0.098 0.337,-0.113 0.337,-0.13C0.337,-0.161 0.313,-0.184 0.265,-0.199L0.181,-0.22C0.086,-0.244 0.038,-0.29 0.038,-0.358C0.038,-0.403 0.056,-0.439 0.093,-0.466C0.129,-0.493 0.175,-0.506 0.232,-0.506C0.275,-0.506 0.315,-0.496 0.349,-0.475C0.385,-0.454 0.409,-0.427 0.423,-0.392L0.341,-0.358C0.332,-0.379 0.317,-0.395 0.296,-0.406C0.275,-0.418 0.251,-0.424 0.225,-0.424C0.201,-0.424 0.18,-0.418 0.161,-0.406C0.141,-0.394 0.132,-0.379 0.132,-0.362C0.132,-0.334 0.158,-0.314 0.211,-0.302L0.285,-0.283C0.382,-0.259 0.431,-0.21 0.431,-0.136Z" style="fill:rgb(139,139,139);fill-rule:nonzero;"/>
            </g>
        </g>
        <circle cx="171.66" cy="219.778" r="101.162" style="fill:none;stroke:rgb(66,133,244);stroke-width:15px;"/>
        <circle cx="284.302" cy="311.36" r="112.641" style="fill:none;stroke:rgb(66,133,244);stroke-width:15px;"/>
        <g transform="matrix(1,0,0,1,3.92203,6.47026)">
            <circle cx="167.738" cy="213.307" r="14.589" style="fill:none;stroke:rgb(66,133,244);stroke-width:15px;"/>
        </g>
        <circle cx="594.222" cy="81.635" r="71.4" style="fill:none;stroke:rgb(234,67,53);stroke-width:15px;"/>
        <g transform="matrix(1,0,0,1,11.5119,37.7478)">
            <circle cx="456.231" cy="2.759" r="59.288" style="fill:none;stroke:rgb(234,67,53);stroke-width:15px;"/>
        </g>
        <circle cx="591.939" cy="176.491" r="57.876" style="fill:none;stroke:rgb(234,67,53);stroke-width:15px;"/>
        <g transform="matrix(1,0,0,1,0,3.70909)">
            <circle cx="594.222" cy="77.926" r="14.527" style="fill:none;stroke:rgb(234,67,53);stroke-width:15px;"/>
        </g>
        <g transform="matrix(1,0,0,1,54.4,33.3818)">
            <circle cx="1449.21" cy="404.301" r="184.524" style="fill:none;stroke:rgb(52,168,83);stroke-width:15px;"/>
        </g>
        <circle cx="1695.6" cy="269.81" r="50.033" style="fill:none;stroke:rgb(52,168,83);stroke-width:15px;"/>
        <circle cx="1543.71" cy="339.622" r="40.105" style="fill:none;stroke:rgb(52,168,83);stroke-width:15px;"/>
        <g transform="matrix(1,0,0,1,42.9292,-38.0728)">
            <circle cx="1412.6" cy="32.193" r="73.687" style="fill:none;stroke:rgb(251,188,5);stroke-width:15px;"/>
        </g>
        <g transform="matrix(1,0,0,1,10.2893,-51.8359)">
            <circle cx="1547.82" cy="95.398" r="36.005" style="fill:none;stroke:rgb(251,188,5);stroke-width:15px;"/>
        </g>
        <g transform="matrix(1,0,0,1,54.6258,-38.0728)">
            <circle cx="1289.05" cy="57.996" r="38.166" style="fill:none;stroke:rgb(251,188,5);stroke-width:15px;"/>
        </g>
        <g transform="matrix(1,0,0,1,194.233,-33.4695)">
            <circle cx="821.848" cy="367.035" r="47.192" style="fill:none;stroke:rgb(251,188,5);stroke-width:15px;"/>
        </g>
        <g transform="matrix(1,0,0,1,112.49,-2.51302)">
            <ellipse cx="903.59" cy="336.078" rx="4.309" ry="3.543" style="fill:none;stroke:rgb(251,188,5);stroke-width:15px;"/>
        </g>
        <g transform="matrix(1,0,0,1,30.0279,-50.9741)">
            <circle cx="1425.5" cy="45.095" r="12.901" style="fill:none;stroke:rgb(251,188,5);stroke-width:15px;"/>
        </g>
    </g>
</svg>
