<?xml version="1.0" encoding="UTF-8" standalone="no"?>
<!DOCTYPE svg PUBLIC "-//W3C//DTD SVG 1.1//EN" "http://www.w3.org/Graphics/SVG/1.1/DTD/svg11.dtd">
<svg width="100%" height="100%" viewBox="0 0 3840 1080" version="1.1" xmlns="http://www.w3.org/2000/svg" xmlns:xlink="http://www.w3.org/1999/xlink" xml:space="preserve" xmlns:serif="http://www.serif.com/" style="fill-rule:evenodd;clip-rule:evenodd;stroke-linejoin:round;stroke-miterlimit:1.5;">
    <g transform="matrix(3.55556,0,0,1,-4.54747e-13,0)">
        <rect x="0" y="0" width="1080" height="1080" style="fill:rgb(64,64,64);fill-opacity:0.93;"/>
    </g>
    <g transform="matrix(1,0,0,0.841089,1380,42.727)">
        <g transform="matrix(1,-0,-0,1.18894,-1380,-50.7997)">
            <path d="M3075.79,277.873C3080.76,277.873 3084.79,273.84 3084.79,268.873C3084.79,263.906 3080.76,259.873 3075.79,259.873C3070.83,259.873 3066.79,263.906 3066.79,268.873C3066.79,273.84 3070.83,277.873 3075.79,277.873Z" style="fill:rgb(52,168,83);"/>
            <path d="M3070.39,268.873L2306.1,268.873C2286.77,268.873 2271.1,284.543 2271.1,303.873C2271.1,362.553 2271.1,480.102 2271.1,538.782C2271.1,548.064 2267.41,556.967 2260.85,563.53C2254.28,570.094 2245.38,573.782 2236.1,573.782C2212.79,573.782 2186.43,573.782 2186.43,573.782" style="fill:none;stroke:rgb(52,168,83);stroke-width:6px;stroke-dasharray:30,18,0,0;"/>
        </g>
    </g>
    <g transform="matrix(1.61543,0,0,1.61543,2849.73,-934.157)">
        <g transform="matrix(37.1418,0,0,37.1418,-165.09,718.611)">
            <path d="M0.345,-0.333L0.345,0L0.253,0L0.253,-0.333L0.012,-0.716L0.12,-0.716L0.297,-0.425L0.301,-0.425L0.474,-0.716L0.582,-0.716L0.345,-0.333Z" style="fill:rgb(52,168,83);fill-rule:nonzero;"/>
        </g>
        <g transform="matrix(37.1418,0,0,37.1418,-146.742,718.611)">
            <path d="M0.276,0.016C0.204,0.016 0.145,-0.009 0.098,-0.058C0.051,-0.107 0.028,-0.17 0.028,-0.245C0.028,-0.32 0.051,-0.382 0.096,-0.432C0.141,-0.481 0.199,-0.506 0.27,-0.506C0.343,-0.506 0.401,-0.483 0.444,-0.436C0.487,-0.389 0.508,-0.323 0.508,-0.238L0.507,-0.228L0.122,-0.228C0.123,-0.18 0.139,-0.141 0.17,-0.112C0.201,-0.083 0.237,-0.068 0.28,-0.068C0.339,-0.068 0.385,-0.097 0.418,-0.156L0.5,-0.116C0.478,-0.075 0.448,-0.042 0.408,-0.019C0.37,0.004 0.325,0.016 0.276,0.016ZM0.129,-0.304L0.41,-0.304C0.407,-0.338 0.394,-0.366 0.369,-0.389C0.344,-0.411 0.31,-0.422 0.268,-0.422C0.233,-0.422 0.203,-0.411 0.179,-0.39C0.154,-0.369 0.137,-0.34 0.129,-0.304Z" style="fill:rgb(52,168,83);fill-rule:nonzero;"/>
        </g>
        <g transform="matrix(37.1418,0,0,37.1418,-126.648,718.611)">
            <path d="M0.123,-0.15C0.123,-0.126 0.133,-0.106 0.154,-0.09C0.174,-0.074 0.198,-0.066 0.225,-0.066C0.264,-0.066 0.298,-0.08 0.329,-0.109C0.359,-0.138 0.374,-0.171 0.374,-0.21C0.345,-0.233 0.305,-0.244 0.254,-0.244C0.217,-0.244 0.186,-0.235 0.161,-0.217C0.136,-0.199 0.123,-0.177 0.123,-0.15ZM0.242,-0.506C0.31,-0.506 0.364,-0.488 0.403,-0.452C0.442,-0.415 0.462,-0.365 0.462,-0.302L0.462,0L0.374,0L0.374,-0.068L0.37,-0.068C0.332,-0.012 0.281,0.016 0.218,0.016C0.164,0.016 0.119,0 0.083,-0.032C0.046,-0.064 0.028,-0.104 0.028,-0.152C0.028,-0.203 0.047,-0.243 0.086,-0.273C0.124,-0.303 0.175,-0.318 0.239,-0.318C0.294,-0.318 0.339,-0.308 0.374,-0.288L0.374,-0.309C0.374,-0.341 0.361,-0.368 0.336,-0.391C0.311,-0.413 0.281,-0.424 0.247,-0.424C0.196,-0.424 0.155,-0.402 0.125,-0.359L0.044,-0.41C0.089,-0.474 0.155,-0.506 0.242,-0.506Z" style="fill:rgb(52,168,83);fill-rule:nonzero;"/>
        </g>
        <g transform="matrix(37.1418,0,0,37.1418,-107.705,718.611)">
            <path d="M0.148,0L0.056,0L0.056,-0.49L0.144,-0.49L0.144,-0.41L0.148,-0.41C0.157,-0.436 0.177,-0.458 0.205,-0.476C0.234,-0.495 0.263,-0.504 0.291,-0.504C0.318,-0.504 0.34,-0.5 0.359,-0.492L0.331,-0.403C0.32,-0.408 0.302,-0.41 0.277,-0.41C0.242,-0.41 0.212,-0.396 0.187,-0.368C0.161,-0.34 0.148,-0.307 0.148,-0.27L0.148,0Z" style="fill:rgb(52,168,83);fill-rule:nonzero;"/>
        </g>
        <g transform="matrix(37.1418,0,0,37.1418,-94.9658,718.611)">
            <path d="M0.431,-0.136C0.431,-0.093 0.412,-0.057 0.375,-0.028C0.338,0.001 0.291,0.016 0.234,0.016C0.185,0.016 0.141,0.003 0.104,-0.023C0.067,-0.048 0.04,-0.082 0.024,-0.124L0.106,-0.159C0.118,-0.13 0.136,-0.107 0.159,-0.091C0.182,-0.074 0.207,-0.066 0.234,-0.066C0.263,-0.066 0.288,-0.072 0.308,-0.085C0.327,-0.098 0.337,-0.113 0.337,-0.13C0.337,-0.161 0.313,-0.184 0.265,-0.199L0.181,-0.22C0.086,-0.244 0.038,-0.29 0.038,-0.358C0.038,-0.403 0.056,-0.439 0.093,-0.466C0.129,-0.493 0.175,-0.506 0.232,-0.506C0.275,-0.506 0.315,-0.496 0.349,-0.475C0.385,-0.454 0.409,-0.427 0.423,-0.392L0.341,-0.358C0.332,-0.379 0.317,-0.395 0.296,-0.406C0.275,-0.418 0.251,-0.424 0.225,-0.424C0.201,-0.424 0.18,-0.418 0.161,-0.406C0.141,-0.394 0.132,-0.379 0.132,-0.362C0.132,-0.334 0.158,-0.314 0.211,-0.302L0.285,-0.283C0.382,-0.259 0.431,-0.21 0.431,-0.136Z" style="fill:rgb(52,168,83);fill-rule:nonzero;"/>
        </g>
        <g transform="matrix(37.1418,0,0,37.1418,-69.8951,718.611)">
            <path d="M0.028,-0.245C0.028,-0.32 0.052,-0.383 0.099,-0.432C0.147,-0.481 0.207,-0.506 0.28,-0.506C0.353,-0.506 0.413,-0.481 0.46,-0.432C0.508,-0.383 0.532,-0.32 0.532,-0.245C0.532,-0.169 0.508,-0.107 0.46,-0.058C0.413,-0.009 0.353,0.016 0.28,0.016C0.207,0.016 0.147,-0.009 0.099,-0.058C0.052,-0.107 0.028,-0.17 0.028,-0.245ZM0.12,-0.245C0.12,-0.192 0.135,-0.15 0.166,-0.117C0.197,-0.084 0.235,-0.068 0.28,-0.068C0.325,-0.068 0.363,-0.084 0.394,-0.117C0.425,-0.15 0.44,-0.192 0.44,-0.245C0.44,-0.297 0.425,-0.339 0.394,-0.372C0.363,-0.405 0.325,-0.422 0.28,-0.422C0.235,-0.422 0.197,-0.405 0.166,-0.372C0.135,-0.339 0.12,-0.297 0.12,-0.245Z" style="fill:rgb(52,168,83);fill-rule:nonzero;"/>
        </g>
        <g transform="matrix(37.1418,0,0,37.1418,-49.6528,718.611)">
            <path d="M0.282,-0.724C0.315,-0.724 0.343,-0.718 0.364,-0.707L0.339,-0.626C0.323,-0.634 0.305,-0.638 0.285,-0.638C0.262,-0.638 0.244,-0.63 0.23,-0.615C0.215,-0.599 0.208,-0.578 0.208,-0.552L0.208,-0.49L0.336,-0.49L0.336,-0.406L0.208,-0.406L0.208,0L0.116,0L0.116,-0.406L0.024,-0.406L0.024,-0.49L0.116,-0.49L0.116,-0.561C0.116,-0.61 0.132,-0.649 0.163,-0.679C0.194,-0.709 0.233,-0.724 0.282,-0.724Z" style="fill:rgb(52,168,83);fill-rule:nonzero;"/>
        </g>
        <g transform="matrix(37.1418,0,0,37.1418,-27.8134,718.611)">
            <path d="M0.072,0L0.072,-0.716L0.291,-0.716C0.4,-0.716 0.488,-0.683 0.555,-0.617C0.621,-0.551 0.654,-0.465 0.654,-0.358C0.654,-0.251 0.621,-0.164 0.555,-0.099C0.488,-0.033 0.4,0 0.291,0L0.072,0ZM0.164,-0.628L0.164,-0.088L0.291,-0.088C0.374,-0.088 0.44,-0.112 0.488,-0.16C0.536,-0.207 0.56,-0.273 0.56,-0.358C0.56,-0.442 0.536,-0.508 0.488,-0.556C0.44,-0.604 0.374,-0.628 0.291,-0.628L0.164,-0.628Z" style="fill:rgb(52,168,83);fill-rule:nonzero;"/>
        </g>
        <g transform="matrix(37.1418,0,0,37.1418,-2.70553,718.611)">
            <path d="M0.276,0.016C0.204,0.016 0.145,-0.009 0.098,-0.058C0.051,-0.107 0.028,-0.17 0.028,-0.245C0.028,-0.32 0.051,-0.382 0.096,-0.432C0.141,-0.481 0.199,-0.506 0.27,-0.506C0.343,-0.506 0.401,-0.483 0.444,-0.436C0.487,-0.389 0.508,-0.323 0.508,-0.238L0.507,-0.228L0.122,-0.228C0.123,-0.18 0.139,-0.141 0.17,-0.112C0.201,-0.083 0.237,-0.068 0.28,-0.068C0.339,-0.068 0.385,-0.097 0.418,-0.156L0.5,-0.116C0.478,-0.075 0.448,-0.042 0.408,-0.019C0.37,0.004 0.325,0.016 0.276,0.016ZM0.129,-0.304L0.41,-0.304C0.407,-0.338 0.394,-0.366 0.369,-0.389C0.344,-0.411 0.31,-0.422 0.268,-0.422C0.233,-0.422 0.203,-0.411 0.179,-0.39C0.154,-0.369 0.137,-0.34 0.129,-0.304Z" style="fill:rgb(52,168,83);fill-rule:nonzero;"/>
        </g>
        <g transform="matrix(37.1418,0,0,37.1418,17.3882,718.611)">
            <path d="M0.276,-0.068C0.321,-0.068 0.358,-0.084 0.387,-0.117C0.417,-0.15 0.432,-0.192 0.432,-0.245C0.432,-0.296 0.417,-0.339 0.387,-0.372C0.358,-0.405 0.321,-0.422 0.276,-0.422C0.232,-0.422 0.195,-0.405 0.165,-0.372C0.135,-0.339 0.12,-0.296 0.12,-0.245C0.12,-0.193 0.135,-0.151 0.165,-0.118C0.195,-0.085 0.232,-0.068 0.276,-0.068ZM0.261,0.016C0.197,0.016 0.142,-0.009 0.096,-0.06C0.051,-0.111 0.028,-0.173 0.028,-0.245C0.028,-0.317 0.051,-0.379 0.096,-0.43C0.142,-0.481 0.197,-0.506 0.261,-0.506C0.297,-0.506 0.33,-0.498 0.36,-0.483C0.389,-0.468 0.412,-0.447 0.428,-0.422L0.432,-0.422L0.428,-0.49L0.428,-0.716L0.52,-0.716L0.52,0L0.432,0L0.432,-0.068L0.428,-0.068C0.412,-0.043 0.389,-0.022 0.36,-0.007C0.33,0.008 0.297,0.016 0.261,0.016Z" style="fill:rgb(52,168,83);fill-rule:nonzero;"/>
        </g>
        <g transform="matrix(37.1418,0,0,37.1418,38.7819,718.611)">
            <path d="M0.175,-0.659C0.175,-0.641 0.169,-0.626 0.156,-0.613C0.143,-0.6 0.128,-0.594 0.11,-0.594C0.092,-0.594 0.077,-0.6 0.064,-0.613C0.051,-0.626 0.045,-0.641 0.045,-0.659C0.045,-0.677 0.051,-0.692 0.064,-0.705C0.077,-0.718 0.092,-0.724 0.11,-0.724C0.128,-0.724 0.143,-0.718 0.156,-0.705C0.169,-0.692 0.175,-0.677 0.175,-0.659ZM0.156,-0.49L0.156,0L0.064,0L0.064,-0.49L0.156,-0.49Z" style="fill:rgb(52,168,83);fill-rule:nonzero;"/>
        </g>
        <g transform="matrix(37.1418,0,0,37.1418,46.7674,718.611)">
            <path d="M0.28,0.016C0.207,0.016 0.147,-0.009 0.099,-0.058C0.052,-0.109 0.028,-0.171 0.028,-0.245C0.028,-0.32 0.052,-0.383 0.099,-0.432C0.147,-0.481 0.207,-0.506 0.28,-0.506C0.33,-0.506 0.374,-0.494 0.411,-0.469C0.448,-0.444 0.476,-0.409 0.495,-0.365L0.411,-0.33C0.385,-0.391 0.339,-0.422 0.274,-0.422C0.232,-0.422 0.196,-0.405 0.165,-0.371C0.135,-0.337 0.12,-0.295 0.12,-0.245C0.12,-0.195 0.135,-0.153 0.165,-0.119C0.196,-0.085 0.232,-0.068 0.274,-0.068C0.341,-0.068 0.389,-0.099 0.416,-0.16L0.498,-0.125C0.48,-0.081 0.452,-0.047 0.413,-0.021C0.375,0.003 0.331,0.016 0.28,0.016Z" style="fill:rgb(52,168,83);fill-rule:nonzero;"/>
        </g>
        <g transform="matrix(37.1418,0,0,37.1418,65.9697,718.611)">
            <path d="M0.123,-0.15C0.123,-0.126 0.133,-0.106 0.154,-0.09C0.174,-0.074 0.198,-0.066 0.225,-0.066C0.264,-0.066 0.298,-0.08 0.329,-0.109C0.359,-0.138 0.374,-0.171 0.374,-0.21C0.345,-0.233 0.305,-0.244 0.254,-0.244C0.217,-0.244 0.186,-0.235 0.161,-0.217C0.136,-0.199 0.123,-0.177 0.123,-0.15ZM0.242,-0.506C0.31,-0.506 0.364,-0.488 0.403,-0.452C0.442,-0.415 0.462,-0.365 0.462,-0.302L0.462,0L0.374,0L0.374,-0.068L0.37,-0.068C0.332,-0.012 0.281,0.016 0.218,0.016C0.164,0.016 0.119,0 0.083,-0.032C0.046,-0.064 0.028,-0.104 0.028,-0.152C0.028,-0.203 0.047,-0.243 0.086,-0.273C0.124,-0.303 0.175,-0.318 0.239,-0.318C0.294,-0.318 0.339,-0.308 0.374,-0.288L0.374,-0.309C0.374,-0.341 0.361,-0.368 0.336,-0.391C0.311,-0.413 0.281,-0.424 0.247,-0.424C0.196,-0.424 0.155,-0.402 0.125,-0.359L0.044,-0.41C0.089,-0.474 0.155,-0.506 0.242,-0.506Z" style="fill:rgb(52,168,83);fill-rule:nonzero;"/>
        </g>
        <g transform="matrix(37.1418,0,0,37.1418,84.5406,718.611)">
            <path d="M0.25,0.008C0.21,0.008 0.177,-0.004 0.151,-0.029C0.124,-0.054 0.111,-0.088 0.11,-0.132L0.11,-0.406L0.024,-0.406L0.024,-0.49L0.11,-0.49L0.11,-0.64L0.202,-0.64L0.202,-0.49L0.322,-0.49L0.322,-0.406L0.202,-0.406L0.202,-0.162C0.202,-0.129 0.208,-0.107 0.221,-0.096C0.234,-0.084 0.248,-0.078 0.264,-0.078C0.271,-0.078 0.279,-0.079 0.285,-0.081C0.293,-0.082 0.299,-0.084 0.305,-0.087L0.334,-0.005C0.31,0.004 0.282,0.008 0.25,0.008Z" style="fill:rgb(52,168,83);fill-rule:nonzero;"/>
        </g>
        <g transform="matrix(37.1418,0,0,37.1418,97.8745,718.611)">
            <path d="M0.175,-0.659C0.175,-0.641 0.169,-0.626 0.156,-0.613C0.143,-0.6 0.128,-0.594 0.11,-0.594C0.092,-0.594 0.077,-0.6 0.064,-0.613C0.051,-0.626 0.045,-0.641 0.045,-0.659C0.045,-0.677 0.051,-0.692 0.064,-0.705C0.077,-0.718 0.092,-0.724 0.11,-0.724C0.128,-0.724 0.143,-0.718 0.156,-0.705C0.169,-0.692 0.175,-0.677 0.175,-0.659ZM0.156,-0.49L0.156,0L0.064,0L0.064,-0.49L0.156,-0.49Z" style="fill:rgb(52,168,83);fill-rule:nonzero;"/>
        </g>
        <g transform="matrix(37.1418,0,0,37.1418,105.86,718.611)">
            <path d="M0.028,-0.245C0.028,-0.32 0.052,-0.383 0.099,-0.432C0.147,-0.481 0.207,-0.506 0.28,-0.506C0.353,-0.506 0.413,-0.481 0.46,-0.432C0.508,-0.383 0.532,-0.32 0.532,-0.245C0.532,-0.169 0.508,-0.107 0.46,-0.058C0.413,-0.009 0.353,0.016 0.28,0.016C0.207,0.016 0.147,-0.009 0.099,-0.058C0.052,-0.107 0.028,-0.17 0.028,-0.245ZM0.12,-0.245C0.12,-0.192 0.135,-0.15 0.166,-0.117C0.197,-0.084 0.235,-0.068 0.28,-0.068C0.325,-0.068 0.363,-0.084 0.394,-0.117C0.425,-0.15 0.44,-0.192 0.44,-0.245C0.44,-0.297 0.425,-0.339 0.394,-0.372C0.363,-0.405 0.325,-0.422 0.28,-0.422C0.235,-0.422 0.197,-0.405 0.166,-0.372C0.135,-0.339 0.12,-0.297 0.12,-0.245Z" style="fill:rgb(52,168,83);fill-rule:nonzero;"/>
        </g>
        <g transform="matrix(37.1418,0,0,37.1418,126.288,718.611)">
            <path d="M0.056,-0.49L0.144,-0.49L0.144,-0.422L0.148,-0.422C0.162,-0.446 0.184,-0.466 0.213,-0.482C0.242,-0.498 0.272,-0.506 0.303,-0.506C0.363,-0.506 0.409,-0.489 0.442,-0.455C0.474,-0.42 0.49,-0.371 0.49,-0.308L0.49,0L0.398,0L0.398,-0.302C0.396,-0.382 0.356,-0.422 0.277,-0.422C0.24,-0.422 0.21,-0.407 0.185,-0.378C0.16,-0.348 0.148,-0.312 0.148,-0.271L0.148,0L0.056,0L0.056,-0.49Z" style="fill:rgb(52,168,83);fill-rule:nonzero;"/>
        </g>
    </g>
    <g transform="matrix(1.61543,0,0,1.61543,2744.75,-293.828)">
        <g transform="matrix(37.1418,0,0,37.1418,33.8349,718.611)">
            <path d="M0.164,-0.307L0.164,0L0.072,0L0.072,-0.716L0.49,-0.716L0.49,-0.628L0.164,-0.628L0.164,-0.393L0.458,-0.393L0.458,-0.307L0.164,-0.307Z" style="fill:rgb(66,133,244);fill-rule:nonzero;"/>
        </g>
        <g transform="matrix(37.1418,0,0,37.1418,52.4801,718.611)">
            <path d="M0.123,-0.15C0.123,-0.126 0.133,-0.106 0.154,-0.09C0.174,-0.074 0.198,-0.066 0.225,-0.066C0.264,-0.066 0.298,-0.08 0.329,-0.109C0.359,-0.138 0.374,-0.171 0.374,-0.21C0.345,-0.233 0.305,-0.244 0.254,-0.244C0.217,-0.244 0.186,-0.235 0.161,-0.217C0.136,-0.199 0.123,-0.177 0.123,-0.15ZM0.242,-0.506C0.31,-0.506 0.364,-0.488 0.403,-0.452C0.442,-0.415 0.462,-0.365 0.462,-0.302L0.462,0L0.374,0L0.374,-0.068L0.37,-0.068C0.332,-0.012 0.281,0.016 0.218,0.016C0.164,0.016 0.119,0 0.083,-0.032C0.046,-0.064 0.028,-0.104 0.028,-0.152C0.028,-0.203 0.047,-0.243 0.086,-0.273C0.124,-0.303 0.175,-0.318 0.239,-0.318C0.294,-0.318 0.339,-0.308 0.374,-0.288L0.374,-0.309C0.374,-0.341 0.361,-0.368 0.336,-0.391C0.311,-0.413 0.281,-0.424 0.247,-0.424C0.196,-0.424 0.155,-0.402 0.125,-0.359L0.044,-0.41C0.089,-0.474 0.155,-0.506 0.242,-0.506Z" style="fill:rgb(66,133,244);fill-rule:nonzero;"/>
        </g>
        <g transform="matrix(37.1418,0,0,37.1418,71.4224,718.611)">
            <path d="M0.175,-0.659C0.175,-0.641 0.169,-0.626 0.156,-0.613C0.143,-0.6 0.128,-0.594 0.11,-0.594C0.092,-0.594 0.077,-0.6 0.064,-0.613C0.051,-0.626 0.045,-0.641 0.045,-0.659C0.045,-0.677 0.051,-0.692 0.064,-0.705C0.077,-0.718 0.092,-0.724 0.11,-0.724C0.128,-0.724 0.143,-0.718 0.156,-0.705C0.169,-0.692 0.175,-0.677 0.175,-0.659ZM0.156,-0.49L0.156,0L0.064,0L0.064,-0.49L0.156,-0.49Z" style="fill:rgb(66,133,244);fill-rule:nonzero;"/>
        </g>
        <g transform="matrix(37.1418,0,0,37.1418,79.5936,718.611)">
            <path d="M0.148,0L0.056,0L0.056,-0.49L0.144,-0.49L0.144,-0.41L0.148,-0.41C0.157,-0.436 0.177,-0.458 0.205,-0.476C0.234,-0.495 0.263,-0.504 0.291,-0.504C0.318,-0.504 0.34,-0.5 0.359,-0.492L0.331,-0.403C0.32,-0.408 0.302,-0.41 0.277,-0.41C0.242,-0.41 0.212,-0.396 0.187,-0.368C0.161,-0.34 0.148,-0.307 0.148,-0.27L0.148,0Z" style="fill:rgb(66,133,244);fill-rule:nonzero;"/>
        </g>
        <g transform="matrix(37.1418,0,0,37.1418,93.4475,718.611)">
            <path d="M0.494,-0.49L0.187,0.216L0.092,0.216L0.206,-0.031L0.004,-0.49L0.104,-0.49L0.25,-0.138L0.252,-0.138L0.394,-0.49L0.494,-0.49Z" style="fill:rgb(66,133,244);fill-rule:nonzero;"/>
        </g>
        <g transform="matrix(37.1418,0,0,37.1418,120.115,718.611)">
            <path d="M0.276,-0.068C0.321,-0.068 0.358,-0.084 0.387,-0.117C0.417,-0.15 0.432,-0.192 0.432,-0.245C0.432,-0.296 0.417,-0.339 0.387,-0.372C0.358,-0.405 0.321,-0.422 0.276,-0.422C0.232,-0.422 0.195,-0.405 0.165,-0.372C0.135,-0.339 0.12,-0.296 0.12,-0.245C0.12,-0.193 0.135,-0.151 0.165,-0.118C0.195,-0.085 0.232,-0.068 0.276,-0.068ZM0.261,0.016C0.197,0.016 0.142,-0.009 0.096,-0.06C0.051,-0.111 0.028,-0.173 0.028,-0.245C0.028,-0.317 0.051,-0.379 0.096,-0.43C0.142,-0.481 0.197,-0.506 0.261,-0.506C0.297,-0.506 0.33,-0.498 0.36,-0.483C0.389,-0.468 0.412,-0.447 0.428,-0.422L0.432,-0.422L0.428,-0.49L0.428,-0.716L0.52,-0.716L0.52,0L0.432,0L0.432,-0.068L0.428,-0.068C0.412,-0.043 0.389,-0.022 0.36,-0.007C0.33,0.008 0.297,0.016 0.261,0.016Z" style="fill:rgb(66,133,244);fill-rule:nonzero;"/>
        </g>
        <g transform="matrix(37.1418,0,0,37.1418,141.509,718.611)">
            <path d="M0.486,0L0.398,0L0.398,-0.068L0.394,-0.068C0.38,-0.044 0.359,-0.024 0.33,-0.008C0.301,0.008 0.27,0.016 0.239,0.016C0.179,0.016 0.133,-0.001 0.101,-0.035C0.068,-0.07 0.052,-0.119 0.052,-0.182L0.052,-0.49L0.144,-0.49L0.144,-0.188C0.146,-0.108 0.186,-0.068 0.265,-0.068C0.302,-0.068 0.332,-0.083 0.357,-0.113C0.382,-0.142 0.394,-0.178 0.394,-0.219L0.394,-0.49L0.486,-0.49L0.486,0Z" style="fill:rgb(66,133,244);fill-rule:nonzero;"/>
        </g>
        <g transform="matrix(37.1418,0,0,37.1418,161.454,718.611)">
            <path d="M0.431,-0.136C0.431,-0.093 0.412,-0.057 0.375,-0.028C0.338,0.001 0.291,0.016 0.234,0.016C0.185,0.016 0.141,0.003 0.104,-0.023C0.067,-0.048 0.04,-0.082 0.024,-0.124L0.106,-0.159C0.118,-0.13 0.136,-0.107 0.159,-0.091C0.182,-0.074 0.207,-0.066 0.234,-0.066C0.263,-0.066 0.288,-0.072 0.308,-0.085C0.327,-0.098 0.337,-0.113 0.337,-0.13C0.337,-0.161 0.313,-0.184 0.265,-0.199L0.181,-0.22C0.086,-0.244 0.038,-0.29 0.038,-0.358C0.038,-0.403 0.056,-0.439 0.093,-0.466C0.129,-0.493 0.175,-0.506 0.232,-0.506C0.275,-0.506 0.315,-0.496 0.349,-0.475C0.385,-0.454 0.409,-0.427 0.423,-0.392L0.341,-0.358C0.332,-0.379 0.317,-0.395 0.296,-0.406C0.275,-0.418 0.251,-0.424 0.225,-0.424C0.201,-0.424 0.18,-0.418 0.161,-0.406C0.141,-0.394 0.132,-0.379 0.132,-0.362C0.132,-0.334 0.158,-0.314 0.211,-0.302L0.285,-0.283C0.382,-0.259 0.431,-0.21 0.431,-0.136Z" style="fill:rgb(66,133,244);fill-rule:nonzero;"/>
        </g>
        <g transform="matrix(37.1418,0,0,37.1418,178.168,718.611)">
            <path d="M0.25,0.008C0.21,0.008 0.177,-0.004 0.151,-0.029C0.124,-0.054 0.111,-0.088 0.11,-0.132L0.11,-0.406L0.024,-0.406L0.024,-0.49L0.11,-0.49L0.11,-0.64L0.202,-0.64L0.202,-0.49L0.322,-0.49L0.322,-0.406L0.202,-0.406L0.202,-0.162C0.202,-0.129 0.208,-0.107 0.221,-0.096C0.234,-0.084 0.248,-0.078 0.264,-0.078C0.271,-0.078 0.279,-0.079 0.285,-0.081C0.293,-0.082 0.299,-0.084 0.305,-0.087L0.334,-0.005C0.31,0.004 0.282,0.008 0.25,0.008Z" style="fill:rgb(66,133,244);fill-rule:nonzero;"/>
        </g>
    </g>
    <g transform="matrix(1.23343,0,0,1.23343,863.922,-56.2009)">
        <g transform="matrix(48.6447,0,0,48.6447,33.8349,718.611)">
            <path d="M0.164,-0.307L0.164,0L0.072,0L0.072,-0.716L0.49,-0.716L0.49,-0.628L0.164,-0.628L0.164,-0.393L0.458,-0.393L0.458,-0.307L0.164,-0.307Z" style="fill:rgb(234,67,53);fill-rule:nonzero;"/>
        </g>
        <g transform="matrix(48.6447,0,0,48.6447,59.2274,718.611)">
            <rect x="0.056" y="-0.716" width="0.092" height="0.716" style="fill:rgb(234,67,53);fill-rule:nonzero;"/>
        </g>
        <g transform="matrix(48.6447,0,0,48.6447,68.9077,718.611)">
            <path d="M0.028,-0.245C0.028,-0.32 0.052,-0.383 0.099,-0.432C0.147,-0.481 0.207,-0.506 0.28,-0.506C0.353,-0.506 0.413,-0.481 0.46,-0.432C0.508,-0.383 0.532,-0.32 0.532,-0.245C0.532,-0.169 0.508,-0.107 0.46,-0.058C0.413,-0.009 0.353,0.016 0.28,0.016C0.207,0.016 0.147,-0.009 0.099,-0.058C0.052,-0.107 0.028,-0.17 0.028,-0.245ZM0.12,-0.245C0.12,-0.192 0.135,-0.15 0.166,-0.117C0.197,-0.084 0.235,-0.068 0.28,-0.068C0.325,-0.068 0.363,-0.084 0.394,-0.117C0.425,-0.15 0.44,-0.192 0.44,-0.245C0.44,-0.297 0.425,-0.339 0.394,-0.372C0.363,-0.405 0.325,-0.422 0.28,-0.422C0.235,-0.422 0.197,-0.405 0.166,-0.372C0.135,-0.339 0.12,-0.297 0.12,-0.245Z" style="fill:rgb(234,67,53);fill-rule:nonzero;"/>
        </g>
        <g transform="matrix(48.6447,0,0,48.6447,96.1487,718.611)">
            <path d="M0.28,0.016C0.207,0.016 0.147,-0.009 0.099,-0.058C0.052,-0.109 0.028,-0.171 0.028,-0.245C0.028,-0.32 0.052,-0.383 0.099,-0.432C0.147,-0.481 0.207,-0.506 0.28,-0.506C0.33,-0.506 0.374,-0.494 0.411,-0.469C0.448,-0.444 0.476,-0.409 0.495,-0.365L0.411,-0.33C0.385,-0.391 0.339,-0.422 0.274,-0.422C0.232,-0.422 0.196,-0.405 0.165,-0.371C0.135,-0.337 0.12,-0.295 0.12,-0.245C0.12,-0.195 0.135,-0.153 0.165,-0.119C0.196,-0.085 0.232,-0.068 0.274,-0.068C0.341,-0.068 0.389,-0.099 0.416,-0.16L0.498,-0.125C0.48,-0.081 0.452,-0.047 0.413,-0.021C0.375,0.003 0.331,0.016 0.28,0.016Z" style="fill:rgb(234,67,53);fill-rule:nonzero;"/>
        </g>
        <g transform="matrix(48.6447,0,0,48.6447,121.541,718.611)">
            <path d="M0.487,0L0.376,0L0.223,-0.231L0.148,-0.157L0.148,0L0.056,0L0.056,-0.716L0.148,-0.716L0.148,-0.275L0.36,-0.49L0.478,-0.49L0.478,-0.486L0.287,-0.296L0.487,-0.004L0.487,0Z" style="fill:rgb(234,67,53);fill-rule:nonzero;"/>
        </g>
        <g transform="matrix(48.6447,0,0,48.6447,144.55,718.611)">
            <path d="M0.431,-0.136C0.431,-0.093 0.412,-0.057 0.375,-0.028C0.338,0.001 0.291,0.016 0.234,0.016C0.185,0.016 0.141,0.003 0.104,-0.023C0.067,-0.048 0.04,-0.082 0.024,-0.124L0.106,-0.159C0.118,-0.13 0.136,-0.107 0.159,-0.091C0.182,-0.074 0.207,-0.066 0.234,-0.066C0.263,-0.066 0.288,-0.072 0.308,-0.085C0.327,-0.098 0.337,-0.113 0.337,-0.13C0.337,-0.161 0.313,-0.184 0.265,-0.199L0.181,-0.22C0.086,-0.244 0.038,-0.29 0.038,-0.358C0.038,-0.403 0.056,-0.439 0.093,-0.466C0.129,-0.493 0.175,-0.506 0.232,-0.506C0.275,-0.506 0.315,-0.496 0.349,-0.475C0.385,-0.454 0.409,-0.427 0.423,-0.392L0.341,-0.358C0.332,-0.379 0.317,-0.395 0.296,-0.406C0.275,-0.418 0.251,-0.424 0.225,-0.424C0.201,-0.424 0.18,-0.418 0.161,-0.406C0.141,-0.394 0.132,-0.379 0.132,-0.362C0.132,-0.334 0.158,-0.314 0.211,-0.302L0.285,-0.283C0.382,-0.259 0.431,-0.21 0.431,-0.136Z" style="fill:rgb(234,67,53);fill-rule:nonzero;"/>
        </g>
        <g transform="matrix(48.6447,0,0,48.6447,177.385,718.611)">
            <path d="M0.028,-0.245C0.028,-0.32 0.052,-0.383 0.099,-0.432C0.147,-0.481 0.207,-0.506 0.28,-0.506C0.353,-0.506 0.413,-0.481 0.46,-0.432C0.508,-0.383 0.532,-0.32 0.532,-0.245C0.532,-0.169 0.508,-0.107 0.46,-0.058C0.413,-0.009 0.353,0.016 0.28,0.016C0.207,0.016 0.147,-0.009 0.099,-0.058C0.052,-0.107 0.028,-0.17 0.028,-0.245ZM0.12,-0.245C0.12,-0.192 0.135,-0.15 0.166,-0.117C0.197,-0.084 0.235,-0.068 0.28,-0.068C0.325,-0.068 0.363,-0.084 0.394,-0.117C0.425,-0.15 0.44,-0.192 0.44,-0.245C0.44,-0.297 0.425,-0.339 0.394,-0.372C0.363,-0.405 0.325,-0.422 0.28,-0.422C0.235,-0.422 0.197,-0.405 0.166,-0.372C0.135,-0.339 0.12,-0.297 0.12,-0.245Z" style="fill:rgb(234,67,53);fill-rule:nonzero;"/>
        </g>
        <g transform="matrix(48.6447,0,0,48.6447,203.897,718.611)">
            <path d="M0.282,-0.724C0.315,-0.724 0.343,-0.718 0.364,-0.707L0.339,-0.626C0.323,-0.634 0.305,-0.638 0.285,-0.638C0.262,-0.638 0.244,-0.63 0.23,-0.615C0.215,-0.599 0.208,-0.578 0.208,-0.552L0.208,-0.49L0.336,-0.49L0.336,-0.406L0.208,-0.406L0.208,0L0.116,0L0.116,-0.406L0.024,-0.406L0.024,-0.49L0.116,-0.49L0.116,-0.561C0.116,-0.61 0.132,-0.649 0.163,-0.679C0.194,-0.709 0.233,-0.724 0.282,-0.724Z" style="fill:rgb(234,67,53);fill-rule:nonzero;"/>
        </g>
        <g transform="matrix(48.6447,0,0,48.6447,232.5,718.611)">
            <path d="M0.276,0.016C0.204,0.016 0.145,-0.009 0.098,-0.058C0.051,-0.107 0.028,-0.17 0.028,-0.245C0.028,-0.32 0.051,-0.382 0.096,-0.432C0.141,-0.481 0.199,-0.506 0.27,-0.506C0.343,-0.506 0.401,-0.483 0.444,-0.436C0.487,-0.389 0.508,-0.323 0.508,-0.238L0.507,-0.228L0.122,-0.228C0.123,-0.18 0.139,-0.141 0.17,-0.112C0.201,-0.083 0.237,-0.068 0.28,-0.068C0.339,-0.068 0.385,-0.097 0.418,-0.156L0.5,-0.116C0.478,-0.075 0.448,-0.042 0.408,-0.019C0.37,0.004 0.325,0.016 0.276,0.016ZM0.129,-0.304L0.41,-0.304C0.407,-0.338 0.394,-0.366 0.369,-0.389C0.344,-0.411 0.31,-0.422 0.268,-0.422C0.233,-0.422 0.203,-0.411 0.179,-0.39C0.154,-0.369 0.137,-0.34 0.129,-0.304Z" style="fill:rgb(234,67,53);fill-rule:nonzero;"/>
        </g>
        <g transform="matrix(48.6447,0,0,48.6447,258.573,718.611)">
            <path d="M0.056,-0.49L0.144,-0.49L0.144,-0.422L0.148,-0.422C0.162,-0.446 0.184,-0.466 0.213,-0.482C0.242,-0.498 0.272,-0.506 0.303,-0.506C0.363,-0.506 0.409,-0.489 0.442,-0.455C0.474,-0.42 0.49,-0.371 0.49,-0.308L0.49,0L0.398,0L0.398,-0.302C0.396,-0.382 0.356,-0.422 0.277,-0.422C0.24,-0.422 0.21,-0.407 0.185,-0.378C0.16,-0.348 0.148,-0.312 0.148,-0.271L0.148,0L0.056,0L0.056,-0.49Z" style="fill:rgb(234,67,53);fill-rule:nonzero;"/>
        </g>
        <g transform="matrix(48.6447,0,0,48.6447,284.696,718.611)">
            <path d="M0.276,-0.068C0.321,-0.068 0.358,-0.084 0.387,-0.117C0.417,-0.15 0.432,-0.192 0.432,-0.245C0.432,-0.296 0.417,-0.339 0.387,-0.372C0.358,-0.405 0.321,-0.422 0.276,-0.422C0.232,-0.422 0.195,-0.405 0.165,-0.372C0.135,-0.339 0.12,-0.296 0.12,-0.245C0.12,-0.193 0.135,-0.151 0.165,-0.118C0.195,-0.085 0.232,-0.068 0.276,-0.068ZM0.273,0.232C0.246,0.232 0.22,0.228 0.196,0.221C0.172,0.214 0.15,0.205 0.131,0.192C0.111,0.179 0.094,0.164 0.08,0.147C0.066,0.13 0.055,0.11 0.048,0.089L0.135,0.053C0.145,0.082 0.162,0.105 0.187,0.122C0.212,0.139 0.24,0.148 0.273,0.148C0.323,0.148 0.362,0.133 0.39,0.103C0.418,0.073 0.432,0.032 0.432,-0.021L0.432,-0.068L0.428,-0.068C0.411,-0.042 0.387,-0.021 0.358,-0.007C0.328,0.008 0.296,0.016 0.261,0.016C0.197,0.016 0.142,-0.009 0.096,-0.059C0.051,-0.11 0.028,-0.172 0.028,-0.245C0.028,-0.318 0.051,-0.379 0.096,-0.43C0.142,-0.481 0.197,-0.506 0.261,-0.506C0.296,-0.506 0.328,-0.499 0.358,-0.484C0.387,-0.469 0.411,-0.448 0.428,-0.422L0.432,-0.422L0.432,-0.49L0.52,-0.49L0.52,-0.021C0.52,0.058 0.498,0.119 0.453,0.164C0.408,0.209 0.348,0.232 0.273,0.232Z" style="fill:rgb(234,67,53);fill-rule:nonzero;"/>
        </g>
        <g transform="matrix(48.6447,0,0,48.6447,312.715,718.611)">
            <path d="M0.175,-0.659C0.175,-0.641 0.169,-0.626 0.156,-0.613C0.143,-0.6 0.128,-0.594 0.11,-0.594C0.092,-0.594 0.077,-0.6 0.064,-0.613C0.051,-0.626 0.045,-0.641 0.045,-0.659C0.045,-0.677 0.051,-0.692 0.064,-0.705C0.077,-0.718 0.092,-0.724 0.11,-0.724C0.128,-0.724 0.143,-0.718 0.156,-0.705C0.169,-0.692 0.175,-0.677 0.175,-0.659ZM0.156,-0.49L0.156,0L0.064,0L0.064,-0.49L0.156,-0.49Z" style="fill:rgb(234,67,53);fill-rule:nonzero;"/>
        </g>
        <g transform="matrix(48.6447,0,0,48.6447,323.417,718.611)">
            <path d="M0.056,-0.49L0.144,-0.49L0.144,-0.422L0.148,-0.422C0.162,-0.446 0.184,-0.466 0.213,-0.482C0.242,-0.498 0.272,-0.506 0.303,-0.506C0.363,-0.506 0.409,-0.489 0.442,-0.455C0.474,-0.42 0.49,-0.371 0.49,-0.308L0.49,0L0.398,0L0.398,-0.302C0.396,-0.382 0.356,-0.422 0.277,-0.422C0.24,-0.422 0.21,-0.407 0.185,-0.378C0.16,-0.348 0.148,-0.312 0.148,-0.271L0.148,0L0.056,0L0.056,-0.49Z" style="fill:rgb(234,67,53);fill-rule:nonzero;"/>
        </g>
        <g transform="matrix(48.6447,0,0,48.6447,349.782,718.611)">
            <path d="M0.276,0.016C0.204,0.016 0.145,-0.009 0.098,-0.058C0.051,-0.107 0.028,-0.17 0.028,-0.245C0.028,-0.32 0.051,-0.382 0.096,-0.432C0.141,-0.481 0.199,-0.506 0.27,-0.506C0.343,-0.506 0.401,-0.483 0.444,-0.436C0.487,-0.389 0.508,-0.323 0.508,-0.238L0.507,-0.228L0.122,-0.228C0.123,-0.18 0.139,-0.141 0.17,-0.112C0.201,-0.083 0.237,-0.068 0.28,-0.068C0.339,-0.068 0.385,-0.097 0.418,-0.156L0.5,-0.116C0.478,-0.075 0.448,-0.042 0.408,-0.019C0.37,0.004 0.325,0.016 0.276,0.016ZM0.129,-0.304L0.41,-0.304C0.407,-0.338 0.394,-0.366 0.369,-0.389C0.344,-0.411 0.31,-0.422 0.268,-0.422C0.233,-0.422 0.203,-0.411 0.179,-0.39C0.154,-0.369 0.137,-0.34 0.129,-0.304Z" style="fill:rgb(234,67,53);fill-rule:nonzero;"/>
        </g>
        <g transform="matrix(48.6447,0,0,48.6447,376.099,718.611)">
            <path d="M0.276,0.016C0.204,0.016 0.145,-0.009 0.098,-0.058C0.051,-0.107 0.028,-0.17 0.028,-0.245C0.028,-0.32 0.051,-0.382 0.096,-0.432C0.141,-0.481 0.199,-0.506 0.27,-0.506C0.343,-0.506 0.401,-0.483 0.444,-0.436C0.487,-0.389 0.508,-0.323 0.508,-0.238L0.507,-0.228L0.122,-0.228C0.123,-0.18 0.139,-0.141 0.17,-0.112C0.201,-0.083 0.237,-0.068 0.28,-0.068C0.339,-0.068 0.385,-0.097 0.418,-0.156L0.5,-0.116C0.478,-0.075 0.448,-0.042 0.408,-0.019C0.37,0.004 0.325,0.016 0.276,0.016ZM0.129,-0.304L0.41,-0.304C0.407,-0.338 0.394,-0.366 0.369,-0.389C0.344,-0.411 0.31,-0.422 0.268,-0.422C0.233,-0.422 0.203,-0.411 0.179,-0.39C0.154,-0.369 0.137,-0.34 0.129,-0.304Z" style="fill:rgb(234,67,53);fill-rule:nonzero;"/>
        </g>
        <g transform="matrix(48.6447,0,0,48.6447,402.173,718.611)">
            <path d="M0.148,0L0.056,0L0.056,-0.49L0.144,-0.49L0.144,-0.41L0.148,-0.41C0.157,-0.436 0.177,-0.458 0.205,-0.476C0.234,-0.495 0.263,-0.504 0.291,-0.504C0.318,-0.504 0.34,-0.5 0.359,-0.492L0.331,-0.403C0.32,-0.408 0.302,-0.41 0.277,-0.41C0.242,-0.41 0.212,-0.396 0.187,-0.368C0.161,-0.34 0.148,-0.307 0.148,-0.27L0.148,0Z" style="fill:rgb(234,67,53);fill-rule:nonzero;"/>
        </g>
        <g transform="matrix(48.6447,0,0,48.6447,418.858,718.611)">
            <path d="M0.431,-0.136C0.431,-0.093 0.412,-0.057 0.375,-0.028C0.338,0.001 0.291,0.016 0.234,0.016C0.185,0.016 0.141,0.003 0.104,-0.023C0.067,-0.048 0.04,-0.082 0.024,-0.124L0.106,-0.159C0.118,-0.13 0.136,-0.107 0.159,-0.091C0.182,-0.074 0.207,-0.066 0.234,-0.066C0.263,-0.066 0.288,-0.072 0.308,-0.085C0.327,-0.098 0.337,-0.113 0.337,-0.13C0.337,-0.161 0.313,-0.184 0.265,-0.199L0.181,-0.22C0.086,-0.244 0.038,-0.29 0.038,-0.358C0.038,-0.403 0.056,-0.439 0.093,-0.466C0.129,-0.493 0.175,-0.506 0.232,-0.506C0.275,-0.506 0.315,-0.496 0.349,-0.475C0.385,-0.454 0.409,-0.427 0.423,-0.392L0.341,-0.358C0.332,-0.379 0.317,-0.395 0.296,-0.406C0.275,-0.418 0.251,-0.424 0.225,-0.424C0.201,-0.424 0.18,-0.418 0.161,-0.406C0.141,-0.394 0.132,-0.379 0.132,-0.362C0.132,-0.334 0.158,-0.314 0.211,-0.302L0.285,-0.283C0.382,-0.259 0.431,-0.21 0.431,-0.136Z" style="fill:rgb(234,67,53);fill-rule:nonzero;"/>
        </g>
    </g>
    <g transform="matrix(1.13821,0,0,1.13821,683.18,-295.498)">
        <g transform="matrix(52.7141,0,0,52.7141,33.8349,718.611)">
            <path d="M0.164,0L0.072,0L0.072,-0.716L0.164,-0.716L0.413,-0.28L0.417,-0.28L0.666,-0.716L0.758,-0.716L0.758,0L0.666,0L0.666,-0.425L0.67,-0.545L0.666,-0.545L0.442,-0.152L0.388,-0.152L0.164,-0.545L0.16,-0.545L0.164,-0.425L0.164,0Z" style="fill:rgb(66,133,244);fill-rule:nonzero;"/>
        </g>
        <g transform="matrix(52.7141,0,0,52.7141,77.5876,718.611)">
            <path d="M0.028,-0.245C0.028,-0.32 0.052,-0.383 0.099,-0.432C0.147,-0.481 0.207,-0.506 0.28,-0.506C0.353,-0.506 0.413,-0.481 0.46,-0.432C0.508,-0.383 0.532,-0.32 0.532,-0.245C0.532,-0.169 0.508,-0.107 0.46,-0.058C0.413,-0.009 0.353,0.016 0.28,0.016C0.207,0.016 0.147,-0.009 0.099,-0.058C0.052,-0.107 0.028,-0.17 0.028,-0.245ZM0.12,-0.245C0.12,-0.192 0.135,-0.15 0.166,-0.117C0.197,-0.084 0.235,-0.068 0.28,-0.068C0.325,-0.068 0.363,-0.084 0.394,-0.117C0.425,-0.15 0.44,-0.192 0.44,-0.245C0.44,-0.297 0.425,-0.339 0.394,-0.372C0.363,-0.405 0.325,-0.422 0.28,-0.422C0.235,-0.422 0.197,-0.405 0.166,-0.372C0.135,-0.339 0.12,-0.297 0.12,-0.245Z" style="fill:rgb(66,133,244);fill-rule:nonzero;"/>
        </g>
        <g transform="matrix(52.7141,0,0,52.7141,106.844,718.611)">
            <path d="M0.486,0L0.398,0L0.398,-0.068L0.394,-0.068C0.38,-0.044 0.359,-0.024 0.33,-0.008C0.301,0.008 0.27,0.016 0.239,0.016C0.179,0.016 0.133,-0.001 0.101,-0.035C0.068,-0.07 0.052,-0.119 0.052,-0.182L0.052,-0.49L0.144,-0.49L0.144,-0.188C0.146,-0.108 0.186,-0.068 0.265,-0.068C0.302,-0.068 0.332,-0.083 0.357,-0.113C0.382,-0.142 0.394,-0.178 0.394,-0.219L0.394,-0.49L0.486,-0.49L0.486,0Z" style="fill:rgb(66,133,244);fill-rule:nonzero;"/>
        </g>
        <g transform="matrix(52.7141,0,0,52.7141,135.415,718.611)">
            <path d="M0.056,-0.49L0.144,-0.49L0.144,-0.422L0.148,-0.422C0.162,-0.446 0.184,-0.466 0.213,-0.482C0.242,-0.498 0.272,-0.506 0.303,-0.506C0.363,-0.506 0.409,-0.489 0.442,-0.455C0.474,-0.42 0.49,-0.371 0.49,-0.308L0.49,0L0.398,0L0.398,-0.302C0.396,-0.382 0.356,-0.422 0.277,-0.422C0.24,-0.422 0.21,-0.407 0.185,-0.378C0.16,-0.348 0.148,-0.312 0.148,-0.271L0.148,0L0.056,0L0.056,-0.49Z" style="fill:rgb(66,133,244);fill-rule:nonzero;"/>
        </g>
        <g transform="matrix(52.7141,0,0,52.7141,162.668,718.611)">
            <path d="M0.25,0.008C0.21,0.008 0.177,-0.004 0.151,-0.029C0.124,-0.054 0.111,-0.088 0.11,-0.132L0.11,-0.406L0.024,-0.406L0.024,-0.49L0.11,-0.49L0.11,-0.64L0.202,-0.64L0.202,-0.49L0.322,-0.49L0.322,-0.406L0.202,-0.406L0.202,-0.162C0.202,-0.129 0.208,-0.107 0.221,-0.096C0.234,-0.084 0.248,-0.078 0.264,-0.078C0.271,-0.078 0.279,-0.079 0.285,-0.081C0.293,-0.082 0.299,-0.084 0.305,-0.087L0.334,-0.005C0.31,0.004 0.282,0.008 0.25,0.008Z" style="fill:rgb(66,133,244);fill-rule:nonzero;"/>
        </g>
        <g transform="matrix(52.7141,0,0,52.7141,180.802,718.611)">
            <path d="M0.123,-0.15C0.123,-0.126 0.133,-0.106 0.154,-0.09C0.174,-0.074 0.198,-0.066 0.225,-0.066C0.264,-0.066 0.298,-0.08 0.329,-0.109C0.359,-0.138 0.374,-0.171 0.374,-0.21C0.345,-0.233 0.305,-0.244 0.254,-0.244C0.217,-0.244 0.186,-0.235 0.161,-0.217C0.136,-0.199 0.123,-0.177 0.123,-0.15ZM0.242,-0.506C0.31,-0.506 0.364,-0.488 0.403,-0.452C0.442,-0.415 0.462,-0.365 0.462,-0.302L0.462,0L0.374,0L0.374,-0.068L0.37,-0.068C0.332,-0.012 0.281,0.016 0.218,0.016C0.164,0.016 0.119,0 0.083,-0.032C0.046,-0.064 0.028,-0.104 0.028,-0.152C0.028,-0.203 0.047,-0.243 0.086,-0.273C0.124,-0.303 0.175,-0.318 0.239,-0.318C0.294,-0.318 0.339,-0.308 0.374,-0.288L0.374,-0.309C0.374,-0.341 0.361,-0.368 0.336,-0.391C0.311,-0.413 0.281,-0.424 0.247,-0.424C0.196,-0.424 0.155,-0.402 0.125,-0.359L0.044,-0.41C0.089,-0.474 0.155,-0.506 0.242,-0.506Z" style="fill:rgb(66,133,244);fill-rule:nonzero;"/>
        </g>
        <g transform="matrix(52.7141,0,0,52.7141,207.686,718.611)">
            <path d="M0.175,-0.659C0.175,-0.641 0.169,-0.626 0.156,-0.613C0.143,-0.6 0.128,-0.594 0.11,-0.594C0.092,-0.594 0.077,-0.6 0.064,-0.613C0.051,-0.626 0.045,-0.641 0.045,-0.659C0.045,-0.677 0.051,-0.692 0.064,-0.705C0.077,-0.718 0.092,-0.724 0.11,-0.724C0.128,-0.724 0.143,-0.718 0.156,-0.705C0.169,-0.692 0.175,-0.677 0.175,-0.659ZM0.156,-0.49L0.156,0L0.064,0L0.064,-0.49L0.156,-0.49Z" style="fill:rgb(66,133,244);fill-rule:nonzero;"/>
        </g>
        <g transform="matrix(52.7141,0,0,52.7141,219.283,718.611)">
            <path d="M0.056,-0.49L0.144,-0.49L0.144,-0.422L0.148,-0.422C0.162,-0.446 0.184,-0.466 0.213,-0.482C0.242,-0.498 0.272,-0.506 0.303,-0.506C0.363,-0.506 0.409,-0.489 0.442,-0.455C0.474,-0.42 0.49,-0.371 0.49,-0.308L0.49,0L0.398,0L0.398,-0.302C0.396,-0.382 0.356,-0.422 0.277,-0.422C0.24,-0.422 0.21,-0.407 0.185,-0.378C0.16,-0.348 0.148,-0.312 0.148,-0.271L0.148,0L0.056,0L0.056,-0.49Z" style="fill:rgb(66,133,244);fill-rule:nonzero;"/>
        </g>
        <g transform="matrix(52.7141,0,0,52.7141,247.591,718.611)">
            <path d="M0.431,-0.136C0.431,-0.093 0.412,-0.057 0.375,-0.028C0.338,0.001 0.291,0.016 0.234,0.016C0.185,0.016 0.141,0.003 0.104,-0.023C0.067,-0.048 0.04,-0.082 0.024,-0.124L0.106,-0.159C0.118,-0.13 0.136,-0.107 0.159,-0.091C0.182,-0.074 0.207,-0.066 0.234,-0.066C0.263,-0.066 0.288,-0.072 0.308,-0.085C0.327,-0.098 0.337,-0.113 0.337,-0.13C0.337,-0.161 0.313,-0.184 0.265,-0.199L0.181,-0.22C0.086,-0.244 0.038,-0.29 0.038,-0.358C0.038,-0.403 0.056,-0.439 0.093,-0.466C0.129,-0.493 0.175,-0.506 0.232,-0.506C0.275,-0.506 0.315,-0.496 0.349,-0.475C0.385,-0.454 0.409,-0.427 0.423,-0.392L0.341,-0.358C0.332,-0.379 0.317,-0.395 0.296,-0.406C0.275,-0.418 0.251,-0.424 0.225,-0.424C0.201,-0.424 0.18,-0.418 0.161,-0.406C0.141,-0.394 0.132,-0.379 0.132,-0.362C0.132,-0.334 0.158,-0.314 0.211,-0.302L0.285,-0.283C0.382,-0.259 0.431,-0.21 0.431,-0.136Z" style="fill:rgb(66,133,244);fill-rule:nonzero;"/>
        </g>
        <g transform="matrix(52.7141,0,0,52.7141,283.173,718.611)">
            <path d="M0.028,-0.245C0.028,-0.32 0.052,-0.383 0.099,-0.432C0.147,-0.481 0.207,-0.506 0.28,-0.506C0.353,-0.506 0.413,-0.481 0.46,-0.432C0.508,-0.383 0.532,-0.32 0.532,-0.245C0.532,-0.169 0.508,-0.107 0.46,-0.058C0.413,-0.009 0.353,0.016 0.28,0.016C0.207,0.016 0.147,-0.009 0.099,-0.058C0.052,-0.107 0.028,-0.17 0.028,-0.245ZM0.12,-0.245C0.12,-0.192 0.135,-0.15 0.166,-0.117C0.197,-0.084 0.235,-0.068 0.28,-0.068C0.325,-0.068 0.363,-0.084 0.394,-0.117C0.425,-0.15 0.44,-0.192 0.44,-0.245C0.44,-0.297 0.425,-0.339 0.394,-0.372C0.363,-0.405 0.325,-0.422 0.28,-0.422C0.235,-0.422 0.197,-0.405 0.166,-0.372C0.135,-0.339 0.12,-0.297 0.12,-0.245Z" style="fill:rgb(66,133,244);fill-rule:nonzero;"/>
        </g>
        <g transform="matrix(52.7141,0,0,52.7141,311.902,718.611)">
            <path d="M0.282,-0.724C0.315,-0.724 0.343,-0.718 0.364,-0.707L0.339,-0.626C0.323,-0.634 0.305,-0.638 0.285,-0.638C0.262,-0.638 0.244,-0.63 0.23,-0.615C0.215,-0.599 0.208,-0.578 0.208,-0.552L0.208,-0.49L0.336,-0.49L0.336,-0.406L0.208,-0.406L0.208,0L0.116,0L0.116,-0.406L0.024,-0.406L0.024,-0.49L0.116,-0.49L0.116,-0.561C0.116,-0.61 0.132,-0.649 0.163,-0.679C0.194,-0.709 0.233,-0.724 0.282,-0.724Z" style="fill:rgb(66,133,244);fill-rule:nonzero;"/>
        </g>
        <g transform="matrix(52.7141,0,0,52.7141,342.898,718.611)">
            <path d="M0.148,0L0.056,0L0.056,-0.49L0.144,-0.49L0.144,-0.41L0.148,-0.41C0.157,-0.436 0.177,-0.458 0.205,-0.476C0.234,-0.495 0.263,-0.504 0.291,-0.504C0.318,-0.504 0.34,-0.5 0.359,-0.492L0.331,-0.403C0.32,-0.408 0.302,-0.41 0.277,-0.41C0.242,-0.41 0.212,-0.396 0.187,-0.368C0.161,-0.34 0.148,-0.307 0.148,-0.27L0.148,0Z" style="fill:rgb(66,133,244);fill-rule:nonzero;"/>
        </g>
        <g transform="matrix(52.7141,0,0,52.7141,360.452,718.611)">
            <path d="M0.276,0.016C0.204,0.016 0.145,-0.009 0.098,-0.058C0.051,-0.107 0.028,-0.17 0.028,-0.245C0.028,-0.32 0.051,-0.382 0.096,-0.432C0.141,-0.481 0.199,-0.506 0.27,-0.506C0.343,-0.506 0.401,-0.483 0.444,-0.436C0.487,-0.389 0.508,-0.323 0.508,-0.238L0.507,-0.228L0.122,-0.228C0.123,-0.18 0.139,-0.141 0.17,-0.112C0.201,-0.083 0.237,-0.068 0.28,-0.068C0.339,-0.068 0.385,-0.097 0.418,-0.156L0.5,-0.116C0.478,-0.075 0.448,-0.042 0.408,-0.019C0.37,0.004 0.325,0.016 0.276,0.016ZM0.129,-0.304L0.41,-0.304C0.407,-0.338 0.394,-0.366 0.369,-0.389C0.344,-0.411 0.31,-0.422 0.268,-0.422C0.233,-0.422 0.203,-0.411 0.179,-0.39C0.154,-0.369 0.137,-0.34 0.129,-0.304Z" style="fill:rgb(66,133,244);fill-rule:nonzero;"/>
        </g>
        <g transform="matrix(52.7141,0,0,52.7141,388.97,718.611)">
            <path d="M0.431,-0.136C0.431,-0.093 0.412,-0.057 0.375,-0.028C0.338,0.001 0.291,0.016 0.234,0.016C0.185,0.016 0.141,0.003 0.104,-0.023C0.067,-0.048 0.04,-0.082 0.024,-0.124L0.106,-0.159C0.118,-0.13 0.136,-0.107 0.159,-0.091C0.182,-0.074 0.207,-0.066 0.234,-0.066C0.263,-0.066 0.288,-0.072 0.308,-0.085C0.327,-0.098 0.337,-0.113 0.337,-0.13C0.337,-0.161 0.313,-0.184 0.265,-0.199L0.181,-0.22C0.086,-0.244 0.038,-0.29 0.038,-0.358C0.038,-0.403 0.056,-0.439 0.093,-0.466C0.129,-0.493 0.175,-0.506 0.232,-0.506C0.275,-0.506 0.315,-0.496 0.349,-0.475C0.385,-0.454 0.409,-0.427 0.423,-0.392L0.341,-0.358C0.332,-0.379 0.317,-0.395 0.296,-0.406C0.275,-0.418 0.251,-0.424 0.225,-0.424C0.201,-0.424 0.18,-0.418 0.161,-0.406C0.141,-0.394 0.132,-0.379 0.132,-0.362C0.132,-0.334 0.158,-0.314 0.211,-0.302L0.285,-0.283C0.382,-0.259 0.431,-0.21 0.431,-0.136Z" style="fill:rgb(66,133,244);fill-rule:nonzero;"/>
        </g>
        <g transform="matrix(52.7141,0,0,52.7141,413.218,718.611)">
            <path d="M0.276,0.016C0.204,0.016 0.145,-0.009 0.098,-0.058C0.051,-0.107 0.028,-0.17 0.028,-0.245C0.028,-0.32 0.051,-0.382 0.096,-0.432C0.141,-0.481 0.199,-0.506 0.27,-0.506C0.343,-0.506 0.401,-0.483 0.444,-0.436C0.487,-0.389 0.508,-0.323 0.508,-0.238L0.507,-0.228L0.122,-0.228C0.123,-0.18 0.139,-0.141 0.17,-0.112C0.201,-0.083 0.237,-0.068 0.28,-0.068C0.339,-0.068 0.385,-0.097 0.418,-0.156L0.5,-0.116C0.478,-0.075 0.448,-0.042 0.408,-0.019C0.37,0.004 0.325,0.016 0.276,0.016ZM0.129,-0.304L0.41,-0.304C0.407,-0.338 0.394,-0.366 0.369,-0.389C0.344,-0.411 0.31,-0.422 0.268,-0.422C0.233,-0.422 0.203,-0.411 0.179,-0.39C0.154,-0.369 0.137,-0.34 0.129,-0.304Z" style="fill:rgb(66,133,244);fill-rule:nonzero;"/>
        </g>
        <g transform="matrix(52.7141,0,0,52.7141,441.737,718.611)">
            <path d="M0.123,-0.15C0.123,-0.126 0.133,-0.106 0.154,-0.09C0.174,-0.074 0.198,-0.066 0.225,-0.066C0.264,-0.066 0.298,-0.08 0.329,-0.109C0.359,-0.138 0.374,-0.171 0.374,-0.21C0.345,-0.233 0.305,-0.244 0.254,-0.244C0.217,-0.244 0.186,-0.235 0.161,-0.217C0.136,-0.199 0.123,-0.177 0.123,-0.15ZM0.242,-0.506C0.31,-0.506 0.364,-0.488 0.403,-0.452C0.442,-0.415 0.462,-0.365 0.462,-0.302L0.462,0L0.374,0L0.374,-0.068L0.37,-0.068C0.332,-0.012 0.281,0.016 0.218,0.016C0.164,0.016 0.119,0 0.083,-0.032C0.046,-0.064 0.028,-0.104 0.028,-0.152C0.028,-0.203 0.047,-0.243 0.086,-0.273C0.124,-0.303 0.175,-0.318 0.239,-0.318C0.294,-0.318 0.339,-0.308 0.374,-0.288L0.374,-0.309C0.374,-0.341 0.361,-0.368 0.336,-0.391C0.311,-0.413 0.281,-0.424 0.247,-0.424C0.196,-0.424 0.155,-0.402 0.125,-0.359L0.044,-0.41C0.089,-0.474 0.155,-0.506 0.242,-0.506Z" style="fill:rgb(66,133,244);fill-rule:nonzero;"/>
        </g>
        <g transform="matrix(52.7141,0,0,52.7141,468.621,718.611)">
            <path d="M0.148,0L0.056,0L0.056,-0.49L0.144,-0.49L0.144,-0.41L0.148,-0.41C0.157,-0.436 0.177,-0.458 0.205,-0.476C0.234,-0.495 0.263,-0.504 0.291,-0.504C0.318,-0.504 0.34,-0.5 0.359,-0.492L0.331,-0.403C0.32,-0.408 0.302,-0.41 0.277,-0.41C0.242,-0.41 0.212,-0.396 0.187,-0.368C0.161,-0.34 0.148,-0.307 0.148,-0.27L0.148,0Z" style="fill:rgb(66,133,244);fill-rule:nonzero;"/>
        </g>
        <g transform="matrix(52.7141,0,0,52.7141,486.175,718.611)">
            <path d="M0.28,0.016C0.207,0.016 0.147,-0.009 0.099,-0.058C0.052,-0.109 0.028,-0.171 0.028,-0.245C0.028,-0.32 0.052,-0.383 0.099,-0.432C0.147,-0.481 0.207,-0.506 0.28,-0.506C0.33,-0.506 0.374,-0.494 0.411,-0.469C0.448,-0.444 0.476,-0.409 0.495,-0.365L0.411,-0.33C0.385,-0.391 0.339,-0.422 0.274,-0.422C0.232,-0.422 0.196,-0.405 0.165,-0.371C0.135,-0.337 0.12,-0.295 0.12,-0.245C0.12,-0.195 0.135,-0.153 0.165,-0.119C0.196,-0.085 0.232,-0.068 0.274,-0.068C0.341,-0.068 0.389,-0.099 0.416,-0.16L0.498,-0.125C0.48,-0.081 0.452,-0.047 0.413,-0.021C0.375,0.003 0.331,0.016 0.28,0.016Z" style="fill:rgb(66,133,244);fill-rule:nonzero;"/>
        </g>
        <g transform="matrix(52.7141,0,0,52.7141,513.692,718.611)">
            <path d="M0.056,-0.716L0.148,-0.716L0.148,-0.49L0.144,-0.422L0.148,-0.422C0.162,-0.446 0.184,-0.466 0.213,-0.482C0.242,-0.498 0.272,-0.506 0.303,-0.506C0.363,-0.506 0.409,-0.489 0.442,-0.455C0.474,-0.42 0.49,-0.371 0.49,-0.308L0.49,0L0.398,0L0.398,-0.29C0.398,-0.378 0.359,-0.422 0.281,-0.422C0.244,-0.422 0.212,-0.406 0.187,-0.376C0.161,-0.344 0.148,-0.308 0.148,-0.267L0.148,0L0.056,0L0.056,-0.716Z" style="fill:rgb(66,133,244);fill-rule:nonzero;"/>
        </g>
    </g>
    <g transform="matrix(0.870178,0,0,0.870178,1458.88,-4.54747e-13)">
        <g transform="matrix(1,0,0,1.04888,65.2212,1.57159)">
            <rect x="208.708" y="0" width="26.403" height="661.327" style="fill:url(#_Linear1);"/>
        </g>
        <g transform="matrix(-1,0,0,1.05126,1014.78,0)">
            <rect x="208.708" y="0" width="26.403" height="661.327" style="fill:url(#_Linear2);"/>
        </g>
        <g transform="matrix(1,0,0,1.25428,143.801,0)">
            <rect x="208.708" y="0" width="26.403" height="661.327" style="fill:url(#_Linear3);"/>
        </g>
        <g transform="matrix(-1,0,0,1.27075,936.199,0)">
            <rect x="208.708" y="0" width="26.403" height="661.327" style="fill:url(#_Linear4);"/>
        </g>
        <g transform="matrix(1,0,0,1.40399,239.668,0)">
            <rect x="208.708" y="0" width="26.403" height="661.327" style="fill:url(#_Linear5);"/>
        </g>
        <g transform="matrix(-1,0,0,1.40399,840.332,0)">
            <rect x="208.708" y="0" width="26.403" height="661.327" style="fill:url(#_Linear6);"/>
        </g>
    </g>
    <g transform="matrix(0.870178,0,0,0.870178,1458.88,-4.54747e-13)">
        <g transform="matrix(0.125525,0,0,0.37069,535.865,26.7008)">
            <circle cx="1013.66" cy="350.853" r="54.691" style="fill:none;stroke:url(#_Linear7);stroke-width:41.03px;stroke-linecap:round;"/>
        </g>
        <g transform="matrix(0.0881274,0,0,0.37069,447.894,26.6355)">
            <circle cx="1013.66" cy="350.853" r="54.691" style="fill:rgb(163,163,163);stroke:url(#_Linear8);stroke-width:42.15px;stroke-linecap:round;"/>
        </g>
        <g transform="matrix(0.32586,0,0,0.37069,-4.1788,26.7008)">
            <circle cx="1013.66" cy="350.853" r="54.691" style="fill:none;stroke:url(#_Linear9);stroke-width:32.54px;stroke-linecap:round;"/>
        </g>
        <g transform="matrix(0.291887,0,0,0.37069,459.2,26.7008)">
            <circle cx="1013.66" cy="350.853" r="54.691" style="fill:none;stroke:url(#_Linear10);stroke-width:34.04px;stroke-linecap:round;"/>
        </g>
        <g transform="matrix(0.136172,0,0,0.37069,280.578,26.7008)">
            <circle cx="1013.66" cy="350.853" r="54.691" style="fill:none;stroke:url(#_Linear11);stroke-width:40.66px;stroke-linecap:round;"/>
        </g>
    </g>
    <g transform="matrix(0.870178,0,0,0.870178,1458.88,-4.54747e-13)">
        <g transform="matrix(0.125525,0,0,0.37069,532.6,312.747)">
            <circle cx="1013.66" cy="350.853" r="54.691" style="fill:none;stroke:url(#_Linear12);stroke-width:41.03px;stroke-linecap:round;"/>
        </g>
        <g transform="matrix(0.0881274,0,0,0.37069,450.668,312.747)">
            <circle cx="1013.66" cy="350.853" r="54.691" style="fill:rgb(163,163,163);stroke:url(#_Linear13);stroke-width:42.15px;stroke-linecap:round;"/>
        </g>
        <g transform="matrix(0.32586,0,0,0.37069,-4.1788,312.747)">
            <circle cx="1013.66" cy="350.853" r="54.691" style="fill:none;stroke:url(#_Linear14);stroke-width:32.54px;stroke-linecap:round;"/>
        </g>
        <g transform="matrix(0.291887,0,0,0.37069,459.2,312.747)">
            <circle cx="1013.66" cy="350.853" r="54.691" style="fill:none;stroke:url(#_Linear15);stroke-width:34.04px;stroke-linecap:round;"/>
        </g>
        <g transform="matrix(0.136172,0,0,0.37069,277.313,312.747)">
            <circle cx="1013.66" cy="350.853" r="54.691" style="fill:none;stroke:url(#_Linear16);stroke-width:40.66px;stroke-linecap:round;"/>
        </g>
    </g>
    <g id="right" transform="matrix(0.870178,0,0,0.870178,1481.34,109.282)">
        <g transform="matrix(1,0,0,1,577.559,156.875)">
            <path d="M171.437,379.341C170.658,379.366 223.823,376.047 223.823,409.558C223.823,443.068 171.437,439.774 171.437,439.774" style="fill:none;stroke:url(#_Linear17);stroke-width:11.36px;"/>
        </g>
        <g transform="matrix(1,0,0,0.22921,577.551,429.59)">
            <rect x="49.638" y="349.124" width="121.799" height="231.423" style="fill:url(#_Linear18);"/>
        </g>
        <g transform="matrix(1,0,0,0.22921,577.551,489.165)">
            <rect x="49.638" y="349.124" width="121.799" height="231.423" style="fill:url(#_Linear19);"/>
        </g>
        <g transform="matrix(1,0,0,1,577.559,156.879)">
            <rect x="171.428" y="427.557" width="8.821" height="22.547" style="fill:url(#_Linear20);"/>
        </g>
        <g transform="matrix(1,0,0,1,577.559,98.4949)">
            <rect x="171.428" y="427.557" width="8.821" height="22.547" style="fill:url(#_Linear21);"/>
        </g>
        <g transform="matrix(1,0,0,1,577.559,275.96)">
            <path d="M171.437,379.341C170.658,379.366 223.823,376.047 223.823,409.558C223.823,443.068 171.437,439.774 171.437,439.774" style="fill:none;stroke:url(#_Linear22);stroke-width:11.36px;"/>
        </g>
        <g transform="matrix(1,0,0,0.22921,577.551,548.676)">
            <rect x="49.638" y="349.124" width="121.799" height="231.423" style="fill:url(#_Linear23);"/>
        </g>
        <g transform="matrix(1,0,0,0.22921,577.551,608.251)">
            <rect x="49.638" y="349.124" width="121.799" height="231.423" style="fill:url(#_Linear24);"/>
        </g>
        <g transform="matrix(1,0,0,1,577.559,275.964)">
            <rect x="171.428" y="427.557" width="8.821" height="22.547" style="fill:url(#_Linear25);"/>
        </g>
        <g transform="matrix(1,0,0,1,577.559,217.58)">
            <rect x="171.428" y="427.557" width="8.821" height="22.547" style="fill:url(#_Linear26);"/>
        </g>
    </g>
    <g id="right1" serif:id="right" transform="matrix(-0.870178,0,0,0.870178,2376.06,109.282)">
        <g transform="matrix(1,0,0,1,577.559,156.875)">
            <path d="M171.437,379.341C170.658,379.366 223.823,376.047 223.823,409.558C223.823,443.068 171.437,439.774 171.437,439.774" style="fill:none;stroke:url(#_Linear27);stroke-width:11.36px;"/>
        </g>
        <g transform="matrix(1,0,0,0.22921,577.551,429.59)">
            <rect x="49.638" y="349.124" width="121.799" height="231.423" style="fill:url(#_Linear28);"/>
        </g>
        <g transform="matrix(1,0,0,0.22921,577.551,489.165)">
            <rect x="49.638" y="349.124" width="121.799" height="231.423" style="fill:url(#_Linear29);"/>
        </g>
        <g transform="matrix(1,0,0,1,577.559,156.879)">
            <rect x="171.428" y="427.557" width="8.821" height="22.547" style="fill:url(#_Linear30);"/>
        </g>
        <g transform="matrix(1,0,0,1,577.559,98.4949)">
            <rect x="171.428" y="427.557" width="8.821" height="22.547" style="fill:url(#_Linear31);"/>
        </g>
        <g transform="matrix(1,0,0,1,577.559,275.96)">
            <path d="M171.437,379.341C170.658,379.366 223.823,376.047 223.823,409.558C223.823,443.068 171.437,439.774 171.437,439.774" style="fill:none;stroke:url(#_Linear32);stroke-width:11.36px;"/>
        </g>
        <g transform="matrix(1,0,0,0.22921,577.551,548.676)">
            <rect x="49.638" y="349.124" width="121.799" height="231.423" style="fill:url(#_Linear33);"/>
        </g>
        <g transform="matrix(1,0,0,0.22921,577.551,608.251)">
            <rect x="49.638" y="349.124" width="121.799" height="231.423" style="fill:url(#_Linear34);"/>
        </g>
        <g transform="matrix(1,0,0,1,577.559,275.964)">
            <rect x="171.428" y="427.557" width="8.821" height="22.547" style="fill:url(#_Linear35);"/>
        </g>
        <g transform="matrix(1,0,0,1,577.559,217.58)">
            <rect x="171.428" y="427.557" width="8.821" height="22.547" style="fill:url(#_Linear36);"/>
        </g>
    </g>
    <g transform="matrix(0.943434,0,0,0.983253,1418.81,-70.7697)">
        <rect x="494.229" y="591.662" width="92.378" height="380.036" style="fill:url(#_Linear37);"/>
    </g>
    <g transform="matrix(0.870178,0,0,0.870178,1462.68,31.3982)">
        <ellipse cx="535.635" cy="518.705" rx="46.105" ry="8.018" style="fill:none;stroke:url(#_Linear38);stroke-width:5.35px;"/>
    </g>
    <g transform="matrix(0.870178,0,0,0.870178,1462.68,22.1814)">
        <ellipse cx="535.635" cy="518.705" rx="46.105" ry="8.018" style="fill:none;stroke:url(#_Linear39);stroke-width:5.35px;"/>
    </g>
    <g transform="matrix(0.870178,0,0,0.870178,1462.68,12.9646)">
        <ellipse cx="535.635" cy="518.705" rx="46.105" ry="8.018" style="fill:none;stroke:url(#_Linear40);stroke-width:5.35px;"/>
    </g>
    <g transform="matrix(2.07894,0,0,0.863642,829.465,-4.54747e-13)">
        <rect x="517.148" y="0" width="23.27" height="591.662" style="fill:url(#_Linear41);"/>
    </g>
    <g transform="matrix(0.870178,0,0,0.870178,1462.68,31.3982)">
        <clipPath id="_clip42">
            <rect x="485.425" y="518.705" width="100.155" height="10.592"/>
        </clipPath>
        <g clip-path="url(#_clip42)">
            <ellipse cx="535.635" cy="518.705" rx="46.105" ry="8.018" style="fill:none;stroke:url(#_Linear43);stroke-width:5.35px;"/>
        </g>
    </g>
    <g transform="matrix(0.870178,0,0,0.870178,1462.68,22.1814)">
        <clipPath id="_clip44">
            <rect x="485.425" y="518.705" width="100.155" height="10.592"/>
        </clipPath>
        <g clip-path="url(#_clip44)">
            <ellipse cx="535.635" cy="518.705" rx="46.105" ry="8.018" style="fill:none;stroke:url(#_Linear45);stroke-width:5.35px;"/>
        </g>
    </g>
    <g transform="matrix(0.870178,0,0,0.870178,1462.68,12.9646)">
        <clipPath id="_clip46">
            <rect x="485.425" y="518.705" width="100.155" height="10.592"/>
        </clipPath>
        <g clip-path="url(#_clip46)">
            <ellipse cx="535.635" cy="518.705" rx="46.105" ry="8.018" style="fill:none;stroke:url(#_Linear47);stroke-width:5.35px;"/>
        </g>
    </g>
    <g transform="matrix(0.870178,0,0,0.870178,1458.88,-4.54747e-13)">
        <rect x="249.275" y="384.349" width="575.9" height="19.002" style="fill:url(#_Linear48);"/>
    </g>
    <g transform="matrix(0.923109,0,0,0.870178,1435.55,-4.54747e-13)">
        <rect x="224.427" y="100.784" width="600.749" height="23.387" style="fill:url(#_Linear49);"/>
    </g>
    <g transform="matrix(6.12323e-17,1,-1,6.12323e-17,2474.41,-122.589)">
        <g transform="matrix(6.12323e-17,-1,1,6.12323e-17,122.589,2474.41)">
            <circle cx="917.333" cy="878.247" r="9" style="fill:rgb(234,67,53);"/>
            <path d="M922.733,878.247L1742.3,878.247C1751.58,878.247 1760.48,874.56 1767.05,867.996C1773.61,861.432 1777.3,852.53 1777.3,843.247L1777.3,786.718" style="fill:none;stroke:rgb(234,67,53);stroke-width:6px;stroke-dasharray:30,18,0,0;"/>
        </g>
    </g>
    <g transform="matrix(1,0,0,1,1380,0)">
        <g transform="matrix(1,-0,-0,1,-1380,0)">
            <path d="M2762.88,821C2762.88,816.033 2766.91,812 2771.88,812C2776.85,812 2780.88,816.033 2780.88,821C2780.88,825.967 2776.85,830 2771.88,830C2766.91,830 2762.88,825.967 2762.88,821Z" style="fill:rgb(66,133,244);"/>
            <path d="M1927.53,910.781L1927.53,931.155C1927.53,950.485 1943.2,966.155 1962.53,966.155L2736.88,966.155C2756.21,966.155 2771.88,950.485 2771.88,931.155L2771.88,826.4" style="fill:none;stroke:rgb(66,133,244);stroke-width:6px;stroke-dasharray:30,18,0,0;"/>
        </g>
    </g>
    <g transform="matrix(1,0,0,1,1380,0)">
        <g transform="matrix(1,-0,-0,1,-1380,0)">
            <path d="M702.75,531C702.75,535.967 698.717,540 693.75,540C688.783,540 684.75,535.967 684.75,531C684.75,526.033 688.783,522 693.75,522C698.717,522 702.75,526.033 702.75,531Z" style="fill:rgb(66,133,244);"/>
            <path d="M1622.64,343.996L1596.33,343.996C1577,343.996 1561.33,359.666 1561.33,378.996C1561.33,387.117 1561.33,395.761 1561.33,403.882C1561.33,423.212 1545.66,438.882 1526.33,438.882C1386.48,438.882 868.601,438.882 728.75,438.882C709.42,438.882 693.75,454.552 693.75,473.882C693.75,491.614 693.75,512.174 693.75,525.6" style="fill:none;stroke:rgb(66,133,244);stroke-width:6px;stroke-dasharray:30,18,0,0;"/>
        </g>
    </g>
    <defs>
        <linearGradient id="_Linear1" x1="0" y1="0" x2="1" y2="0" gradientUnits="userSpaceOnUse" gradientTransform="matrix(14.9344,0,0,14.9344,214.043,316.514)"><stop offset="0" style="stop-color:rgb(244,199,67);stop-opacity:1"/><stop offset="1" style="stop-color:rgb(207,154,0);stop-opacity:1"/></linearGradient>
        <linearGradient id="_Linear2" x1="0" y1="0" x2="1" y2="0" gradientUnits="userSpaceOnUse" gradientTransform="matrix(14.9344,0,0,14.9344,214.043,316.514)"><stop offset="0" style="stop-color:rgb(207,154,0);stop-opacity:1"/><stop offset="1" style="stop-color:rgb(244,199,67);stop-opacity:1"/></linearGradient>
        <linearGradient id="_Linear3" x1="0" y1="0" x2="1" y2="0" gradientUnits="userSpaceOnUse" gradientTransform="matrix(14.9344,0,0,14.9344,214.043,316.514)"><stop offset="0" style="stop-color:rgb(244,199,67);stop-opacity:1"/><stop offset="1" style="stop-color:rgb(207,154,0);stop-opacity:1"/></linearGradient>
        <linearGradient id="_Linear4" x1="0" y1="0" x2="1" y2="0" gradientUnits="userSpaceOnUse" gradientTransform="matrix(14.9344,0,0,14.9344,214.043,316.514)"><stop offset="0" style="stop-color:rgb(207,154,0);stop-opacity:1"/><stop offset="1" style="stop-color:rgb(244,199,67);stop-opacity:1"/></linearGradient>
        <linearGradient id="_Linear5" x1="0" y1="0" x2="1" y2="0" gradientUnits="userSpaceOnUse" gradientTransform="matrix(14.9344,0,0,14.9344,214.043,316.514)"><stop offset="0" style="stop-color:rgb(244,199,67);stop-opacity:1"/><stop offset="1" style="stop-color:rgb(207,154,0);stop-opacity:1"/></linearGradient>
        <linearGradient id="_Linear6" x1="0" y1="0" x2="1" y2="0" gradientUnits="userSpaceOnUse" gradientTransform="matrix(14.9344,0,0,14.9344,214.043,316.514)"><stop offset="0" style="stop-color:rgb(207,154,0);stop-opacity:1"/><stop offset="1" style="stop-color:rgb(244,199,67);stop-opacity:1"/></linearGradient>
        <linearGradient id="_Linear7" x1="0" y1="0" x2="1" y2="0" gradientUnits="userSpaceOnUse" gradientTransform="matrix(109.383,0,0,109.383,958.973,350.853)"><stop offset="0" style="stop-color:rgb(207,154,0);stop-opacity:1"/><stop offset="1" style="stop-color:rgb(244,199,67);stop-opacity:1"/></linearGradient>
        <linearGradient id="_Linear8" x1="0" y1="0" x2="1" y2="0" gradientUnits="userSpaceOnUse" gradientTransform="matrix(109.383,0,0,109.383,958.973,350.853)"><stop offset="0" style="stop-color:rgb(207,154,0);stop-opacity:1"/><stop offset="1" style="stop-color:rgb(244,199,67);stop-opacity:1"/></linearGradient>
        <linearGradient id="_Linear9" x1="0" y1="0" x2="1" y2="0" gradientUnits="userSpaceOnUse" gradientTransform="matrix(109.383,0,0,109.383,958.973,350.853)"><stop offset="0" style="stop-color:rgb(207,154,0);stop-opacity:1"/><stop offset="1" style="stop-color:rgb(244,199,67);stop-opacity:1"/></linearGradient>
        <linearGradient id="_Linear10" x1="0" y1="0" x2="1" y2="0" gradientUnits="userSpaceOnUse" gradientTransform="matrix(109.383,0,0,109.383,958.973,350.853)"><stop offset="0" style="stop-color:rgb(207,154,0);stop-opacity:1"/><stop offset="1" style="stop-color:rgb(244,199,67);stop-opacity:1"/></linearGradient>
        <linearGradient id="_Linear11" x1="0" y1="0" x2="1" y2="0" gradientUnits="userSpaceOnUse" gradientTransform="matrix(109.383,0,0,109.383,958.973,350.853)"><stop offset="0" style="stop-color:rgb(207,154,0);stop-opacity:1"/><stop offset="1" style="stop-color:rgb(244,199,67);stop-opacity:1"/></linearGradient>
        <linearGradient id="_Linear12" x1="0" y1="0" x2="1" y2="0" gradientUnits="userSpaceOnUse" gradientTransform="matrix(109.383,0,0,109.383,958.973,350.853)"><stop offset="0" style="stop-color:rgb(207,154,0);stop-opacity:1"/><stop offset="1" style="stop-color:rgb(244,199,67);stop-opacity:1"/></linearGradient>
        <linearGradient id="_Linear13" x1="0" y1="0" x2="1" y2="0" gradientUnits="userSpaceOnUse" gradientTransform="matrix(109.383,0,0,109.383,958.973,350.853)"><stop offset="0" style="stop-color:rgb(207,154,0);stop-opacity:1"/><stop offset="1" style="stop-color:rgb(244,199,67);stop-opacity:1"/></linearGradient>
        <linearGradient id="_Linear14" x1="0" y1="0" x2="1" y2="0" gradientUnits="userSpaceOnUse" gradientTransform="matrix(109.383,0,0,109.383,958.973,350.853)"><stop offset="0" style="stop-color:rgb(207,154,0);stop-opacity:1"/><stop offset="1" style="stop-color:rgb(244,199,67);stop-opacity:1"/></linearGradient>
        <linearGradient id="_Linear15" x1="0" y1="0" x2="1" y2="0" gradientUnits="userSpaceOnUse" gradientTransform="matrix(109.383,0,0,109.383,958.973,350.853)"><stop offset="0" style="stop-color:rgb(207,154,0);stop-opacity:1"/><stop offset="1" style="stop-color:rgb(244,199,67);stop-opacity:1"/></linearGradient>
        <linearGradient id="_Linear16" x1="0" y1="0" x2="1" y2="0" gradientUnits="userSpaceOnUse" gradientTransform="matrix(109.383,0,0,109.383,958.973,350.853)"><stop offset="0" style="stop-color:rgb(207,154,0);stop-opacity:1"/><stop offset="1" style="stop-color:rgb(244,199,67);stop-opacity:1"/></linearGradient>
        <linearGradient id="_Linear17" x1="0" y1="0" x2="1" y2="0" gradientUnits="userSpaceOnUse" gradientTransform="matrix(52.3949,0,0,60.6026,171.428,409.562)"><stop offset="0" style="stop-color:rgb(66,133,244);stop-opacity:1"/><stop offset="1" style="stop-color:rgb(0,74,197);stop-opacity:1"/></linearGradient>
        <linearGradient id="_Linear18" x1="0" y1="0" x2="1" y2="0" gradientUnits="userSpaceOnUse" gradientTransform="matrix(87.7863,104.751,-24.0099,382.995,55.9454,397.637)"><stop offset="0" style="stop-color:rgb(52,168,83);stop-opacity:1"/><stop offset="1" style="stop-color:rgb(14,111,40);stop-opacity:1"/></linearGradient>
        <linearGradient id="_Linear19" x1="0" y1="0" x2="1" y2="0" gradientUnits="userSpaceOnUse" gradientTransform="matrix(88.5366,108.024,-24.7602,386.268,61.1975,383.233)"><stop offset="0" style="stop-color:rgb(234,67,53);stop-opacity:1"/><stop offset="1" style="stop-color:rgb(179,14,0);stop-opacity:1"/></linearGradient>
        <linearGradient id="_Linear20" x1="0" y1="0" x2="1" y2="0" gradientUnits="userSpaceOnUse" gradientTransform="matrix(8.82089,0,0,22.5474,171.428,438.831)"><stop offset="0" style="stop-color:rgb(238,233,218);stop-opacity:1"/><stop offset="1" style="stop-color:rgb(251,188,5);stop-opacity:1"/></linearGradient>
        <linearGradient id="_Linear21" x1="0" y1="0" x2="1" y2="0" gradientUnits="userSpaceOnUse" gradientTransform="matrix(8.82089,0,0,22.5474,171.428,438.831)"><stop offset="0" style="stop-color:rgb(238,233,218);stop-opacity:1"/><stop offset="1" style="stop-color:rgb(251,188,5);stop-opacity:1"/></linearGradient>
        <linearGradient id="_Linear22" x1="0" y1="0" x2="1" y2="0" gradientUnits="userSpaceOnUse" gradientTransform="matrix(52.3949,0,0,60.6026,171.428,409.562)"><stop offset="0" style="stop-color:rgb(52,168,83);stop-opacity:1"/><stop offset="1" style="stop-color:rgb(14,111,40);stop-opacity:1"/></linearGradient>
        <linearGradient id="_Linear23" x1="0" y1="0" x2="1" y2="0" gradientUnits="userSpaceOnUse" gradientTransform="matrix(81.0335,111.298,-25.5105,353.534,64.1988,398.569)"><stop offset="0" style="stop-color:rgb(66,133,244);stop-opacity:1"/><stop offset="1" style="stop-color:rgb(0,74,197);stop-opacity:1"/></linearGradient>
        <linearGradient id="_Linear24" x1="0" y1="0" x2="1" y2="0" gradientUnits="userSpaceOnUse" gradientTransform="matrix(86.2857,94.9304,-21.759,376.448,57.446,393.986)"><stop offset="0" style="stop-color:rgb(234,67,53);stop-opacity:1"/><stop offset="1" style="stop-color:rgb(179,14,0);stop-opacity:1"/></linearGradient>
        <linearGradient id="_Linear25" x1="0" y1="0" x2="1" y2="0" gradientUnits="userSpaceOnUse" gradientTransform="matrix(8.82089,0,0,22.5474,171.428,438.831)"><stop offset="0" style="stop-color:rgb(238,233,218);stop-opacity:1"/><stop offset="1" style="stop-color:rgb(251,188,5);stop-opacity:1"/></linearGradient>
        <linearGradient id="_Linear26" x1="0" y1="0" x2="1" y2="0" gradientUnits="userSpaceOnUse" gradientTransform="matrix(8.82089,0,0,22.5474,171.428,438.831)"><stop offset="0" style="stop-color:rgb(238,233,218);stop-opacity:1"/><stop offset="1" style="stop-color:rgb(251,188,5);stop-opacity:1"/></linearGradient>
        <linearGradient id="_Linear27" x1="0" y1="0" x2="1" y2="0" gradientUnits="userSpaceOnUse" gradientTransform="matrix(52.3949,0,0,60.6026,171.428,409.562)"><stop offset="0" style="stop-color:rgb(14,111,40);stop-opacity:1"/><stop offset="1" style="stop-color:rgb(52,168,83);stop-opacity:1"/></linearGradient>
        <linearGradient id="_Linear28" x1="0" y1="0" x2="1" y2="0" gradientUnits="userSpaceOnUse" gradientTransform="matrix(-81.7838,114.571,26.2609,356.807,151.037,400.91)"><stop offset="0" style="stop-color:rgb(234,67,53);stop-opacity:1"/><stop offset="1" style="stop-color:rgb(179,14,0);stop-opacity:1"/></linearGradient>
        <linearGradient id="_Linear29" x1="0" y1="0" x2="1" y2="0" gradientUnits="userSpaceOnUse" gradientTransform="matrix(-84.785,108.024,24.7602,369.901,160.04,402.874)"><stop offset="0" style="stop-color:rgb(66,133,244);stop-opacity:1"/><stop offset="1" style="stop-color:rgb(0,74,197);stop-opacity:1"/></linearGradient>
        <linearGradient id="_Linear30" x1="0" y1="0" x2="1" y2="0" gradientUnits="userSpaceOnUse" gradientTransform="matrix(8.82089,0,0,22.5474,171.428,438.831)"><stop offset="0" style="stop-color:rgb(251,188,5);stop-opacity:1"/><stop offset="1" style="stop-color:rgb(238,233,218);stop-opacity:1"/></linearGradient>
        <linearGradient id="_Linear31" x1="0" y1="0" x2="1" y2="0" gradientUnits="userSpaceOnUse" gradientTransform="matrix(8.82089,0,0,22.5474,171.428,438.831)"><stop offset="0" style="stop-color:rgb(251,188,5);stop-opacity:1"/><stop offset="1" style="stop-color:rgb(238,233,218);stop-opacity:1"/></linearGradient>
        <linearGradient id="_Linear32" x1="0" y1="0" x2="1" y2="0" gradientUnits="userSpaceOnUse" gradientTransform="matrix(52.3949,0,0,60.6026,171.428,409.562)"><stop offset="0" style="stop-color:rgb(0,74,197);stop-opacity:1"/><stop offset="1" style="stop-color:rgb(66,133,244);stop-opacity:1"/></linearGradient>
        <linearGradient id="_Linear33" x1="0" y1="0" x2="1" y2="0" gradientUnits="userSpaceOnUse" gradientTransform="matrix(-94.5391,78.5631,18.0074,412.456,157.039,437.851)"><stop offset="0" style="stop-color:rgb(52,168,83);stop-opacity:1"/><stop offset="1" style="stop-color:rgb(14,111,40);stop-opacity:1"/></linearGradient>
        <linearGradient id="_Linear34" x1="0" y1="0" x2="1" y2="0" gradientUnits="userSpaceOnUse" gradientTransform="matrix(-91.5378,29.4611,6.75279,399.362,163.042,407.08)"><stop offset="0" style="stop-color:rgb(234,67,53);stop-opacity:1"/><stop offset="1" style="stop-color:rgb(179,14,0);stop-opacity:1"/></linearGradient>
        <linearGradient id="_Linear35" x1="0" y1="0" x2="1" y2="0" gradientUnits="userSpaceOnUse" gradientTransform="matrix(8.82089,0,0,22.5474,171.428,438.831)"><stop offset="0" style="stop-color:rgb(251,188,5);stop-opacity:1"/><stop offset="1" style="stop-color:rgb(238,233,218);stop-opacity:1"/></linearGradient>
        <linearGradient id="_Linear36" x1="0" y1="0" x2="1" y2="0" gradientUnits="userSpaceOnUse" gradientTransform="matrix(8.82089,0,0,22.5474,171.428,438.831)"><stop offset="0" style="stop-color:rgb(251,188,5);stop-opacity:1"/><stop offset="1" style="stop-color:rgb(238,233,218);stop-opacity:1"/></linearGradient>
        <linearGradient id="_Linear37" x1="0" y1="0" x2="1" y2="0" gradientUnits="userSpaceOnUse" gradientTransform="matrix(92.3779,0,0,380.036,494.229,781.68)"><stop offset="0" style="stop-color:rgb(244,199,67);stop-opacity:1"/><stop offset="1" style="stop-color:rgb(207,154,0);stop-opacity:1"/></linearGradient>
        <linearGradient id="_Linear38" x1="0" y1="0" x2="1" y2="0" gradientUnits="userSpaceOnUse" gradientTransform="matrix(92.2109,0,0,16.0367,489.529,518.705)"><stop offset="0" style="stop-color:rgb(244,199,67);stop-opacity:1"/><stop offset="1" style="stop-color:rgb(207,154,0);stop-opacity:1"/></linearGradient>
        <linearGradient id="_Linear39" x1="0" y1="0" x2="1" y2="0" gradientUnits="userSpaceOnUse" gradientTransform="matrix(92.2109,0,0,16.0367,489.529,518.705)"><stop offset="0" style="stop-color:rgb(244,199,67);stop-opacity:1"/><stop offset="1" style="stop-color:rgb(207,154,0);stop-opacity:1"/></linearGradient>
        <linearGradient id="_Linear40" x1="0" y1="0" x2="1" y2="0" gradientUnits="userSpaceOnUse" gradientTransform="matrix(92.2109,0,0,16.0367,489.529,518.705)"><stop offset="0" style="stop-color:rgb(244,199,67);stop-opacity:1"/><stop offset="1" style="stop-color:rgb(207,154,0);stop-opacity:1"/></linearGradient>
        <linearGradient id="_Linear41" x1="0" y1="0" x2="1" y2="0" gradientUnits="userSpaceOnUse" gradientTransform="matrix(20.8404,0,0,529.894,519.577,295.831)"><stop offset="0" style="stop-color:rgb(244,199,67);stop-opacity:1"/><stop offset="1" style="stop-color:rgb(207,154,0);stop-opacity:1"/></linearGradient>
        <linearGradient id="_Linear43" x1="0" y1="0" x2="1" y2="0" gradientUnits="userSpaceOnUse" gradientTransform="matrix(92.2109,0,0,16.0367,489.529,518.705)"><stop offset="0" style="stop-color:rgb(244,199,67);stop-opacity:1"/><stop offset="1" style="stop-color:rgb(207,154,0);stop-opacity:1"/></linearGradient>
        <linearGradient id="_Linear45" x1="0" y1="0" x2="1" y2="0" gradientUnits="userSpaceOnUse" gradientTransform="matrix(92.2109,0,0,16.0367,489.529,518.705)"><stop offset="0" style="stop-color:rgb(244,199,67);stop-opacity:1"/><stop offset="1" style="stop-color:rgb(207,154,0);stop-opacity:1"/></linearGradient>
        <linearGradient id="_Linear47" x1="0" y1="0" x2="1" y2="0" gradientUnits="userSpaceOnUse" gradientTransform="matrix(92.2109,0,0,8.01834,489.529,522.714)"><stop offset="0" style="stop-color:rgb(244,199,67);stop-opacity:1"/><stop offset="1" style="stop-color:rgb(207,154,0);stop-opacity:1"/></linearGradient>
        <linearGradient id="_Linear48" x1="0" y1="0" x2="1" y2="0" gradientUnits="userSpaceOnUse" gradientTransform="matrix(448.34,0,0,448.34,306.677,393.85)"><stop offset="0" style="stop-color:rgb(244,199,67);stop-opacity:1"/><stop offset="1" style="stop-color:rgb(207,154,0);stop-opacity:1"/></linearGradient>
        <linearGradient id="_Linear49" x1="0" y1="0" x2="1" y2="0" gradientUnits="userSpaceOnUse" gradientTransform="matrix(-410.637,5.33475e-14,-5.02886e-14,-435.615,755.175,393.85)"><stop offset="0" style="stop-color:rgb(207,154,0);stop-opacity:1"/><stop offset="1" style="stop-color:rgb(244,199,67);stop-opacity:1"/></linearGradient>
    </defs>
</svg>
