<?xml version="1.0" encoding="UTF-8" standalone="no"?>
<!DOCTYPE svg PUBLIC "-//W3C//DTD SVG 1.1//EN" "http://www.w3.org/Graphics/SVG/1.1/DTD/svg11.dtd">
<svg width="100%" height="100%" viewBox="0 0 1700 364" version="1.1" xmlns="http://www.w3.org/2000/svg" xmlns:xlink="http://www.w3.org/1999/xlink" xml:space="preserve" xmlns:serif="http://www.serif.com/" style="fill-rule:evenodd;clip-rule:evenodd;">
    <g id="quantum" transform="matrix(1,0,0,1,202.167,-69.1074)">
        <g transform="matrix(1.08871,0,0,1.08871,-18.558,7.31657)">
            <g id="Layer_1-2">
                <g>
                    <path d="M891.08,129.95L1020.68,0.35" style="fill:none;fill-rule:nonzero;stroke:url(#_Linear1);stroke-width:1px;"/>
                    <path d="M1311.95,168.5L1054.46,77.95" style="fill:none;fill-rule:nonzero;stroke:url(#_Linear2);stroke-width:1px;"/>
                    <path d="M907.77,379.385L799.26,56.66" style="fill:none;fill-rule:nonzero;stroke:url(#_Linear3);stroke-width:1px;"/>
                    <path d="M0.05,63.6L271.49,92.3" style="fill:none;fill-rule:nonzero;stroke:url(#_Linear4);stroke-width:1px;"/>
                    <path d="M6.546,348.011L308.36,81.47" style="fill:none;fill-rule:nonzero;stroke:url(#_Linear5);stroke-width:1px;"/>
                    <path d="M495.98,192.17L753.47,282.73" style="fill:none;fill-rule:nonzero;stroke:url(#_Linear6);stroke-width:1px;"/>
                    <path d="M699.97,133.14L970.56,113.31" style="fill:none;fill-rule:nonzero;stroke:url(#_Linear7);stroke-width:1px;"/>
                    <path d="M681.12,123.22L930.11,15.46" style="fill:none;fill-rule:nonzero;stroke:url(#_Linear8);stroke-width:1px;"/>
                    <path d="M268.56,186.02L525.91,309.58" style="fill:none;fill-rule:nonzero;stroke:url(#_Linear9);stroke-width:1px;"/>
                    <path d="M783.52,190.15L514.18,284.75" style="fill:none;fill-rule:nonzero;stroke:url(#_Linear10);stroke-width:1px;"/>
                    <path d="M379.32,133.14L109.98,227.74" style="fill:none;fill-rule:nonzero;stroke:url(#_Linear11);stroke-width:1px;"/>
                    <path d="M264.52,194.38L494.13,364.01" style="fill:none;fill-rule:nonzero;stroke:url(#_Linear12);stroke-width:1px;"/>
                    <path d="M430.06,54.22L578.27,134.27" style="fill:none;fill-rule:nonzero;stroke:url(#_Linear13);stroke-width:1px;"/>
                    <path d="M586.66,122.39L510.33,9.07" style="fill:none;fill-rule:nonzero;stroke:url(#_Linear14);stroke-width:1px;"/>
                    <g transform="matrix(0.918516,0,0,0.918516,23.7271,29.2843)">
                        <g transform="matrix(1,-0,-0,1,-209.441,29.9087)">
                            <path d="M1111.07,145.1L1108.59,162.96L1095.79,150.256L1111.07,145.1Z" style="fill:rgb(71,136,244);"/>
                            <path d="M1092.24,114.515C1092.24,114.515 1099.62,136.383 1104.46,150.734" style="fill:none;stroke:rgb(71,136,244);stroke-width:5.38px;stroke-linecap:square;stroke-linejoin:round;stroke-miterlimit:1.5;"/>
                        </g>
                    </g>
                    <path d="M835.26,105.46C835.263,105.46 835.267,105.46 835.27,105.46C866.254,105.46 891.75,130.956 891.75,161.94C891.75,192.924 866.254,218.42 835.27,218.42C804.286,218.42 778.79,192.924 778.79,161.94C778.828,130.974 804.294,105.504 835.26,105.46M835.26,92.46C797.144,92.46 765.78,123.824 765.78,161.94C765.78,200.056 797.144,231.42 835.26,231.42C873.376,231.42 904.74,200.056 904.74,161.94C904.74,123.824 873.376,92.46 835.26,92.46Z" style="fill:url(#_Linear15);fill-rule:nonzero;"/>
                    <path d="M866,130.88L866,140.88C880,140.88 885.89,144.64 886.45,146.35C887.01,148.06 885,152.9 877.45,159.35C868.65,166.89 855.15,173.97 840.39,178.75C827.95,182.75 815.22,185.01 804.57,185.01C790.57,185.01 784.68,181.25 784.12,179.53C783.56,177.81 785.57,172.99 793.12,166.53C801.92,158.98 815.42,151.91 830.18,147.12C842.62,143.12 855.35,140.87 866,140.87L866,130.87M866,130.87C854.65,130.87 841.11,133.07 827.1,137.61C793.6,148.48 770.1,168.61 774.65,182.61C777.29,190.74 788.82,195 804.65,195C816,195 829.54,192.8 843.55,188.25C877.05,177.39 900.55,157.25 896,143.25C893.36,135.11 881.83,130.86 866,130.86L866,130.87Z" style="fill:url(#_Linear16);fill-rule:nonzero;"/>
                    <path d="M214.75,105.46C245.734,105.46 271.23,130.956 271.23,161.94C271.23,192.924 245.734,218.42 214.75,218.42C183.766,218.42 158.27,192.924 158.27,161.94C158.303,130.968 183.778,105.493 214.75,105.46M214.75,92.46C214.747,92.46 214.743,92.46 214.74,92.46C176.624,92.46 145.26,123.824 145.26,161.94C145.26,200.056 176.624,231.42 214.74,231.42C252.856,231.42 284.22,200.056 284.22,161.94C284.22,123.828 252.862,92.465 214.75,92.46Z" style="fill:url(#_Linear17);fill-rule:nonzero;"/>
                    <path d="M177.33,113.69L177.33,123.69C186.57,123.69 205.08,132.25 223.88,151.05C234.94,162.11 243.88,174.65 248.27,185.46C252.08,194.71 251.57,200.09 250.35,201.3C249.8,201.86 248.41,202.19 246.63,202.19C237.39,202.19 218.89,193.63 200.09,174.83C189.03,163.77 180.09,151.23 175.69,140.42C171.89,131.16 172.4,125.79 173.62,124.57C174.17,124.02 175.56,123.69 177.33,123.69L177.33,113.69M177.33,113.69C172.84,113.69 169.13,114.91 166.55,117.5C156.07,128 167.92,156.81 193,181.9C211.9,200.8 232.91,212.19 246.61,212.19C251.11,212.19 254.81,210.96 257.4,208.38C267.89,197.9 256,169.07 231,144C212.1,125.11 191.08,113.72 177.38,113.72L177.33,113.69Z" style="fill:url(#_Linear18);fill-rule:nonzero;"/>
                    <path d="M432.41,98.49L432.41,111.49C432.462,111.49 432.515,111.49 432.567,111.49C463.562,111.49 489.067,136.995 489.067,167.99C489.067,198.985 463.562,224.49 432.567,224.49C412.662,224.49 394.171,213.971 384,196.86C378.803,188.124 376.06,178.145 376.06,167.98C376.06,137.024 401.504,111.539 432.46,111.49L432.46,98.49M432.46,98.49C394.353,98.502 363.002,129.863 363.002,167.97C363.002,206.086 394.366,237.45 432.482,237.45C470.598,237.45 501.962,206.086 501.962,167.97C501.962,155.484 498.596,143.225 492.22,132.49C479.742,111.406 456.96,98.463 432.46,98.54L432.46,98.49Z" style="fill:url(#_Linear19);fill-rule:nonzero;"/>
                    <path d="M443.14,103.47L443.14,113.47C443.273,113.454 443.407,113.454 443.54,113.47C445.21,113.89 448.39,118.25 449.86,128.15C451.57,139.71 450.35,155.03 446.5,170.2C442.86,184.53 437.24,197.61 430.68,207.01C424.22,216.26 419.07,218.7 417.26,218.7C417.125,218.705 416.99,218.688 416.86,218.65C415.19,218.23 412,213.87 410.54,203.98C408.83,192.42 410.05,177.09 413.9,161.93C417.53,147.59 423.15,134.51 429.72,125.11C436.18,115.87 441.32,113.42 443.14,113.42L443.14,103.42M443.14,103.42C429.25,103.42 412.36,127.31 404.2,159.47C395.48,193.87 400.04,224.71 414.4,228.35C415.336,228.582 416.296,228.7 417.26,228.7C431.15,228.7 448.04,204.81 456.19,172.7C464.92,138.3 460.35,107.46 446,103.82C445.066,103.581 444.105,103.46 443.14,103.46L443.14,103.42Z" style="fill:url(#_Linear20);fill-rule:nonzero;"/>
                    <g transform="matrix(0.918516,0,0,0.918516,23.7271,29.2843)">
                        <g transform="matrix(1,-0,-0,1,-209.441,29.9087)">
                            <path d="M614.484,116.016L601.403,103.604L619.182,100.587L614.484,116.016Z" style="fill:rgb(236,87,75);"/>
                            <path d="M651.973,119.001C651.973,119.001 628.717,111.92 613.747,107.362" style="fill:none;stroke:rgb(236,87,75);stroke-width:5.38px;stroke-linecap:square;stroke-linejoin:round;stroke-miterlimit:1.5;"/>
                        </g>
                    </g>
                    <circle cx="1030.67" cy="160.2" r="69.47" style="fill:url(#_Linear21);"/>
                    <circle cx="636.17" cy="160.2" r="69.47" style="fill:url(#_Linear22);"/>
                </g>
            </g>
        </g>
        <g transform="matrix(0.504501,0,0,0.504501,134.16,161.913)">
            <g transform="matrix(118.297,0,0,118.297,41.9904,316.746)">
                <path d="M0.316,-0.628L0.316,0L0.224,0L0.224,-0.628L0.024,-0.628L0.024,-0.716L0.516,-0.716L0.516,-0.628L0.316,-0.628Z" style="fill:rgb(139,139,139);fill-rule:nonzero;"/>
            </g>
            <g transform="matrix(118.297,0,0,118.297,108.828,316.746)">
                <path d="M0.056,-0.716L0.148,-0.716L0.148,-0.49L0.144,-0.422L0.148,-0.422C0.162,-0.446 0.184,-0.466 0.213,-0.482C0.242,-0.498 0.272,-0.506 0.303,-0.506C0.363,-0.506 0.409,-0.489 0.442,-0.455C0.474,-0.42 0.49,-0.371 0.49,-0.308L0.49,0L0.398,0L0.398,-0.29C0.398,-0.378 0.359,-0.422 0.281,-0.422C0.244,-0.422 0.212,-0.406 0.187,-0.376C0.161,-0.344 0.148,-0.308 0.148,-0.267L0.148,0L0.056,0L0.056,-0.716Z" style="fill:rgb(139,139,139);fill-rule:nonzero;"/>
            </g>
            <g transform="matrix(118.297,0,0,118.297,175.903,316.746)">
                <path d="M0.276,0.016C0.204,0.016 0.145,-0.009 0.098,-0.058C0.051,-0.107 0.028,-0.17 0.028,-0.245C0.028,-0.32 0.051,-0.382 0.096,-0.432C0.141,-0.481 0.199,-0.506 0.27,-0.506C0.343,-0.506 0.401,-0.483 0.444,-0.436C0.487,-0.389 0.508,-0.323 0.508,-0.238L0.507,-0.228L0.122,-0.228C0.123,-0.18 0.139,-0.141 0.17,-0.112C0.201,-0.083 0.237,-0.068 0.28,-0.068C0.339,-0.068 0.385,-0.097 0.418,-0.156L0.5,-0.116C0.478,-0.075 0.448,-0.042 0.408,-0.019C0.37,0.004 0.325,0.016 0.276,0.016ZM0.129,-0.304L0.41,-0.304C0.407,-0.338 0.394,-0.366 0.369,-0.389C0.344,-0.411 0.31,-0.422 0.268,-0.422C0.233,-0.422 0.203,-0.411 0.179,-0.39C0.154,-0.369 0.137,-0.34 0.129,-0.304Z" style="fill:rgb(139,139,139);fill-rule:nonzero;"/>
            </g>
            <g transform="matrix(118.297,0,0,118.297,271.251,316.746)">
                <path d="M0.75,-0.49L0.592,0L0.498,0L0.376,-0.376L0.255,0L0.162,0L0.004,-0.49L0.1,-0.49L0.209,-0.12L0.21,-0.12L0.331,-0.49L0.426,-0.49L0.547,-0.12L0.548,-0.12L0.656,-0.49L0.75,-0.49Z" style="fill:rgb(139,139,139);fill-rule:nonzero;"/>
            </g>
            <g transform="matrix(118.297,0,0,118.297,362.222,316.746)">
                <path d="M0.028,-0.245C0.028,-0.32 0.052,-0.383 0.099,-0.432C0.147,-0.481 0.207,-0.506 0.28,-0.506C0.353,-0.506 0.413,-0.481 0.46,-0.432C0.508,-0.383 0.532,-0.32 0.532,-0.245C0.532,-0.169 0.508,-0.107 0.46,-0.058C0.413,-0.009 0.353,0.016 0.28,0.016C0.207,0.016 0.147,-0.009 0.099,-0.058C0.052,-0.107 0.028,-0.17 0.028,-0.245ZM0.12,-0.245C0.12,-0.192 0.135,-0.15 0.166,-0.117C0.197,-0.084 0.235,-0.068 0.28,-0.068C0.325,-0.068 0.363,-0.084 0.394,-0.117C0.425,-0.15 0.44,-0.192 0.44,-0.245C0.44,-0.297 0.425,-0.339 0.394,-0.372C0.363,-0.405 0.325,-0.422 0.28,-0.422C0.235,-0.422 0.197,-0.405 0.166,-0.372C0.135,-0.339 0.12,-0.297 0.12,-0.245Z" style="fill:rgb(139,139,139);fill-rule:nonzero;"/>
            </g>
            <g transform="matrix(118.297,0,0,118.297,430.243,316.746)">
                <path d="M0.056,-0.49L0.144,-0.49L0.144,-0.422L0.148,-0.422C0.162,-0.446 0.184,-0.466 0.213,-0.482C0.242,-0.498 0.272,-0.506 0.303,-0.506C0.363,-0.506 0.409,-0.489 0.442,-0.455C0.474,-0.42 0.49,-0.371 0.49,-0.308L0.49,0L0.398,0L0.398,-0.302C0.396,-0.382 0.356,-0.422 0.277,-0.422C0.24,-0.422 0.21,-0.407 0.185,-0.378C0.16,-0.348 0.148,-0.312 0.148,-0.271L0.148,0L0.056,0L0.056,-0.49Z" style="fill:rgb(139,139,139);fill-rule:nonzero;"/>
            </g>
            <g transform="matrix(118.297,0,0,118.297,497.317,316.746)">
                <path d="M0.276,-0.068C0.321,-0.068 0.358,-0.084 0.387,-0.117C0.417,-0.15 0.432,-0.192 0.432,-0.245C0.432,-0.296 0.417,-0.339 0.387,-0.372C0.358,-0.405 0.321,-0.422 0.276,-0.422C0.232,-0.422 0.195,-0.405 0.165,-0.372C0.135,-0.339 0.12,-0.296 0.12,-0.245C0.12,-0.193 0.135,-0.151 0.165,-0.118C0.195,-0.085 0.232,-0.068 0.276,-0.068ZM0.261,0.016C0.197,0.016 0.142,-0.009 0.096,-0.06C0.051,-0.111 0.028,-0.173 0.028,-0.245C0.028,-0.317 0.051,-0.379 0.096,-0.43C0.142,-0.481 0.197,-0.506 0.261,-0.506C0.297,-0.506 0.33,-0.498 0.36,-0.483C0.389,-0.468 0.412,-0.447 0.428,-0.422L0.432,-0.422L0.428,-0.49L0.428,-0.716L0.52,-0.716L0.52,0L0.432,0L0.432,-0.068L0.428,-0.068C0.412,-0.043 0.389,-0.022 0.36,-0.007C0.33,0.008 0.297,0.016 0.261,0.016Z" style="fill:rgb(139,139,139);fill-rule:nonzero;"/>
            </g>
            <g transform="matrix(118.297,0,0,118.297,567.823,316.746)">
                <path d="M0.276,0.016C0.204,0.016 0.145,-0.009 0.098,-0.058C0.051,-0.107 0.028,-0.17 0.028,-0.245C0.028,-0.32 0.051,-0.382 0.096,-0.432C0.141,-0.481 0.199,-0.506 0.27,-0.506C0.343,-0.506 0.401,-0.483 0.444,-0.436C0.487,-0.389 0.508,-0.323 0.508,-0.238L0.507,-0.228L0.122,-0.228C0.123,-0.18 0.139,-0.141 0.17,-0.112C0.201,-0.083 0.237,-0.068 0.28,-0.068C0.339,-0.068 0.385,-0.097 0.418,-0.156L0.5,-0.116C0.478,-0.075 0.448,-0.042 0.408,-0.019C0.37,0.004 0.325,0.016 0.276,0.016ZM0.129,-0.304L0.41,-0.304C0.407,-0.338 0.394,-0.366 0.369,-0.389C0.344,-0.411 0.31,-0.422 0.268,-0.422C0.233,-0.422 0.203,-0.411 0.179,-0.39C0.154,-0.369 0.137,-0.34 0.129,-0.304Z" style="fill:rgb(139,139,139);fill-rule:nonzero;"/>
            </g>
            <g transform="matrix(118.297,0,0,118.297,634.188,316.746)">
                <path d="M0.148,0L0.056,0L0.056,-0.49L0.144,-0.49L0.144,-0.41L0.148,-0.41C0.157,-0.436 0.177,-0.458 0.205,-0.476C0.234,-0.495 0.263,-0.504 0.291,-0.504C0.318,-0.504 0.34,-0.5 0.359,-0.492L0.331,-0.403C0.32,-0.408 0.302,-0.41 0.277,-0.41C0.242,-0.41 0.212,-0.396 0.187,-0.368C0.161,-0.34 0.148,-0.307 0.148,-0.27L0.148,0Z" style="fill:rgb(139,139,139);fill-rule:nonzero;"/>
            </g>
            <g transform="matrix(118.297,0,0,118.297,677.721,316.746)">
                <path d="M0.431,-0.136C0.431,-0.093 0.412,-0.057 0.375,-0.028C0.338,0.001 0.291,0.016 0.234,0.016C0.185,0.016 0.141,0.003 0.104,-0.023C0.067,-0.048 0.04,-0.082 0.024,-0.124L0.106,-0.159C0.118,-0.13 0.136,-0.107 0.159,-0.091C0.182,-0.074 0.207,-0.066 0.234,-0.066C0.263,-0.066 0.288,-0.072 0.308,-0.085C0.327,-0.098 0.337,-0.113 0.337,-0.13C0.337,-0.161 0.313,-0.184 0.265,-0.199L0.181,-0.22C0.086,-0.244 0.038,-0.29 0.038,-0.358C0.038,-0.403 0.056,-0.439 0.093,-0.466C0.129,-0.493 0.175,-0.506 0.232,-0.506C0.275,-0.506 0.315,-0.496 0.349,-0.475C0.385,-0.454 0.409,-0.427 0.423,-0.392L0.341,-0.358C0.332,-0.379 0.317,-0.395 0.296,-0.406C0.275,-0.418 0.251,-0.424 0.225,-0.424C0.201,-0.424 0.18,-0.418 0.161,-0.406C0.141,-0.394 0.132,-0.379 0.132,-0.362C0.132,-0.334 0.158,-0.314 0.211,-0.302L0.285,-0.283C0.382,-0.259 0.431,-0.21 0.431,-0.136Z" style="fill:rgb(139,139,139);fill-rule:nonzero;"/>
            </g>
            <g transform="matrix(118.297,0,0,118.297,763.487,316.746)">
                <path d="M0.028,-0.245C0.028,-0.32 0.052,-0.383 0.099,-0.432C0.147,-0.481 0.207,-0.506 0.28,-0.506C0.353,-0.506 0.413,-0.481 0.46,-0.432C0.508,-0.383 0.532,-0.32 0.532,-0.245C0.532,-0.169 0.508,-0.107 0.46,-0.058C0.413,-0.009 0.353,0.016 0.28,0.016C0.207,0.016 0.147,-0.009 0.099,-0.058C0.052,-0.107 0.028,-0.17 0.028,-0.245ZM0.12,-0.245C0.12,-0.192 0.135,-0.15 0.166,-0.117C0.197,-0.084 0.235,-0.068 0.28,-0.068C0.325,-0.068 0.363,-0.084 0.394,-0.117C0.425,-0.15 0.44,-0.192 0.44,-0.245C0.44,-0.297 0.425,-0.339 0.394,-0.372C0.363,-0.405 0.325,-0.422 0.28,-0.422C0.235,-0.422 0.197,-0.405 0.166,-0.372C0.135,-0.339 0.12,-0.297 0.12,-0.245Z" style="fill:rgb(139,139,139);fill-rule:nonzero;"/>
            </g>
            <g transform="matrix(118.297,0,0,118.297,830.916,316.746)">
                <path d="M0.282,-0.724C0.315,-0.724 0.343,-0.718 0.364,-0.707L0.339,-0.626C0.323,-0.634 0.305,-0.638 0.285,-0.638C0.262,-0.638 0.244,-0.63 0.23,-0.615C0.215,-0.599 0.208,-0.578 0.208,-0.552L0.208,-0.49L0.336,-0.49L0.336,-0.406L0.208,-0.406L0.208,0L0.116,0L0.116,-0.406L0.024,-0.406L0.024,-0.49L0.116,-0.49L0.116,-0.561C0.116,-0.61 0.132,-0.649 0.163,-0.679C0.194,-0.709 0.233,-0.724 0.282,-0.724Z" style="fill:rgb(139,139,139);fill-rule:nonzero;"/>
            </g>
            <g transform="matrix(118.297,0,0,118.297,906.39,316.746)">
                <path d="M0.52,0.216L0.428,0.216L0.428,0L0.432,-0.068L0.428,-0.068C0.412,-0.043 0.389,-0.022 0.36,-0.007C0.33,0.008 0.297,0.016 0.261,0.016C0.197,0.016 0.142,-0.009 0.096,-0.06C0.051,-0.111 0.028,-0.173 0.028,-0.245C0.028,-0.317 0.051,-0.379 0.096,-0.43C0.142,-0.481 0.197,-0.506 0.261,-0.506C0.297,-0.506 0.33,-0.498 0.36,-0.483C0.389,-0.468 0.412,-0.447 0.428,-0.422L0.432,-0.422L0.432,-0.49L0.52,-0.49L0.52,0.216ZM0.276,-0.068C0.321,-0.068 0.358,-0.084 0.387,-0.117C0.417,-0.15 0.432,-0.192 0.432,-0.245C0.432,-0.296 0.417,-0.339 0.387,-0.372C0.358,-0.405 0.321,-0.422 0.276,-0.422C0.232,-0.422 0.195,-0.405 0.165,-0.372C0.135,-0.339 0.12,-0.296 0.12,-0.245C0.12,-0.193 0.135,-0.151 0.165,-0.118C0.195,-0.085 0.232,-0.068 0.276,-0.068Z" style="fill:rgb(139,139,139);fill-rule:nonzero;"/>
            </g>
            <g transform="matrix(118.297,0,0,118.297,977.014,316.746)">
                <path d="M0.486,0L0.398,0L0.398,-0.068L0.394,-0.068C0.38,-0.044 0.359,-0.024 0.33,-0.008C0.301,0.008 0.27,0.016 0.239,0.016C0.179,0.016 0.133,-0.001 0.101,-0.035C0.068,-0.07 0.052,-0.119 0.052,-0.182L0.052,-0.49L0.144,-0.49L0.144,-0.188C0.146,-0.108 0.186,-0.068 0.265,-0.068C0.302,-0.068 0.332,-0.083 0.357,-0.113C0.382,-0.142 0.394,-0.178 0.394,-0.219L0.394,-0.49L0.486,-0.49L0.486,0Z" style="fill:rgb(139,139,139);fill-rule:nonzero;"/>
            </g>
            <g transform="matrix(118.297,0,0,118.297,1043.5,316.746)">
                <path d="M0.123,-0.15C0.123,-0.126 0.133,-0.106 0.154,-0.09C0.174,-0.074 0.198,-0.066 0.225,-0.066C0.264,-0.066 0.298,-0.08 0.329,-0.109C0.359,-0.138 0.374,-0.171 0.374,-0.21C0.345,-0.233 0.305,-0.244 0.254,-0.244C0.217,-0.244 0.186,-0.235 0.161,-0.217C0.136,-0.199 0.123,-0.177 0.123,-0.15ZM0.242,-0.506C0.31,-0.506 0.364,-0.488 0.403,-0.452C0.442,-0.415 0.462,-0.365 0.462,-0.302L0.462,0L0.374,0L0.374,-0.068L0.37,-0.068C0.332,-0.012 0.281,0.016 0.218,0.016C0.164,0.016 0.119,0 0.083,-0.032C0.046,-0.064 0.028,-0.104 0.028,-0.152C0.028,-0.203 0.047,-0.243 0.086,-0.273C0.124,-0.303 0.175,-0.318 0.239,-0.318C0.294,-0.318 0.339,-0.308 0.374,-0.288L0.374,-0.309C0.374,-0.341 0.361,-0.368 0.336,-0.391C0.311,-0.413 0.281,-0.424 0.247,-0.424C0.196,-0.424 0.155,-0.402 0.125,-0.359L0.044,-0.41C0.089,-0.474 0.155,-0.506 0.242,-0.506Z" style="fill:rgb(139,139,139);fill-rule:nonzero;"/>
            </g>
            <g transform="matrix(118.297,0,0,118.297,1106.79,316.746)">
                <path d="M0.056,-0.49L0.144,-0.49L0.144,-0.422L0.148,-0.422C0.162,-0.446 0.184,-0.466 0.213,-0.482C0.242,-0.498 0.272,-0.506 0.303,-0.506C0.363,-0.506 0.409,-0.489 0.442,-0.455C0.474,-0.42 0.49,-0.371 0.49,-0.308L0.49,0L0.398,0L0.398,-0.302C0.396,-0.382 0.356,-0.422 0.277,-0.422C0.24,-0.422 0.21,-0.407 0.185,-0.378C0.16,-0.348 0.148,-0.312 0.148,-0.271L0.148,0L0.056,0L0.056,-0.49Z" style="fill:rgb(139,139,139);fill-rule:nonzero;"/>
            </g>
            <g transform="matrix(118.297,0,0,118.297,1170.9,316.746)">
                <path d="M0.25,0.008C0.21,0.008 0.177,-0.004 0.151,-0.029C0.124,-0.054 0.111,-0.088 0.11,-0.132L0.11,-0.406L0.024,-0.406L0.024,-0.49L0.11,-0.49L0.11,-0.64L0.202,-0.64L0.202,-0.49L0.322,-0.49L0.322,-0.406L0.202,-0.406L0.202,-0.162C0.202,-0.129 0.208,-0.107 0.221,-0.096C0.234,-0.084 0.248,-0.078 0.264,-0.078C0.271,-0.078 0.279,-0.079 0.285,-0.081C0.293,-0.082 0.299,-0.084 0.305,-0.087L0.334,-0.005C0.31,0.004 0.282,0.008 0.25,0.008Z" style="fill:rgb(139,139,139);fill-rule:nonzero;"/>
            </g>
            <g transform="matrix(118.297,0,0,118.297,1215.74,316.746)">
                <path d="M0.486,0L0.398,0L0.398,-0.068L0.394,-0.068C0.38,-0.044 0.359,-0.024 0.33,-0.008C0.301,0.008 0.27,0.016 0.239,0.016C0.179,0.016 0.133,-0.001 0.101,-0.035C0.068,-0.07 0.052,-0.119 0.052,-0.182L0.052,-0.49L0.144,-0.49L0.144,-0.188C0.146,-0.108 0.186,-0.068 0.265,-0.068C0.302,-0.068 0.332,-0.083 0.357,-0.113C0.382,-0.142 0.394,-0.178 0.394,-0.219L0.394,-0.49L0.486,-0.49L0.486,0Z" style="fill:rgb(139,139,139);fill-rule:nonzero;"/>
            </g>
            <g transform="matrix(118.297,0,0,118.297,1282.81,316.746)">
                <path d="M0.148,0L0.056,0L0.056,-0.49L0.144,-0.49L0.144,-0.422L0.148,-0.422C0.162,-0.446 0.184,-0.466 0.213,-0.482C0.242,-0.498 0.27,-0.506 0.299,-0.506C0.335,-0.506 0.367,-0.498 0.394,-0.481C0.421,-0.464 0.441,-0.441 0.454,-0.412C0.495,-0.475 0.551,-0.506 0.623,-0.506C0.68,-0.506 0.723,-0.489 0.754,-0.454C0.785,-0.419 0.8,-0.37 0.8,-0.306L0.8,0L0.708,0L0.708,-0.292C0.708,-0.338 0.7,-0.371 0.683,-0.392C0.666,-0.412 0.638,-0.422 0.599,-0.422C0.564,-0.422 0.534,-0.407 0.51,-0.377C0.486,-0.347 0.474,-0.312 0.474,-0.271L0.474,0L0.382,0L0.382,-0.292C0.382,-0.338 0.374,-0.371 0.357,-0.392C0.34,-0.412 0.312,-0.422 0.273,-0.422C0.238,-0.422 0.208,-0.407 0.184,-0.377C0.16,-0.347 0.148,-0.312 0.148,-0.271L0.148,0Z" style="fill:rgb(139,139,139);fill-rule:nonzero;"/>
            </g>
            <g transform="matrix(118.297,0,0,118.297,1415.54,316.746)">
                <path d="M0.28,0.016C0.207,0.016 0.147,-0.009 0.099,-0.058C0.052,-0.109 0.028,-0.171 0.028,-0.245C0.028,-0.32 0.052,-0.383 0.099,-0.432C0.147,-0.481 0.207,-0.506 0.28,-0.506C0.33,-0.506 0.374,-0.494 0.411,-0.469C0.448,-0.444 0.476,-0.409 0.495,-0.365L0.411,-0.33C0.385,-0.391 0.339,-0.422 0.274,-0.422C0.232,-0.422 0.196,-0.405 0.165,-0.371C0.135,-0.337 0.12,-0.295 0.12,-0.245C0.12,-0.195 0.135,-0.153 0.165,-0.119C0.196,-0.085 0.232,-0.068 0.274,-0.068C0.341,-0.068 0.389,-0.099 0.416,-0.16L0.498,-0.125C0.48,-0.081 0.452,-0.047 0.413,-0.021C0.375,0.003 0.331,0.016 0.28,0.016Z" style="fill:rgb(139,139,139);fill-rule:nonzero;"/>
            </g>
            <g transform="matrix(118.297,0,0,118.297,1479.66,316.746)">
                <path d="M0.028,-0.245C0.028,-0.32 0.052,-0.383 0.099,-0.432C0.147,-0.481 0.207,-0.506 0.28,-0.506C0.353,-0.506 0.413,-0.481 0.46,-0.432C0.508,-0.383 0.532,-0.32 0.532,-0.245C0.532,-0.169 0.508,-0.107 0.46,-0.058C0.413,-0.009 0.353,0.016 0.28,0.016C0.207,0.016 0.147,-0.009 0.099,-0.058C0.052,-0.107 0.028,-0.17 0.028,-0.245ZM0.12,-0.245C0.12,-0.192 0.135,-0.15 0.166,-0.117C0.197,-0.084 0.235,-0.068 0.28,-0.068C0.325,-0.068 0.363,-0.084 0.394,-0.117C0.425,-0.15 0.44,-0.192 0.44,-0.245C0.44,-0.297 0.425,-0.339 0.394,-0.372C0.363,-0.405 0.325,-0.422 0.28,-0.422C0.235,-0.422 0.197,-0.405 0.166,-0.372C0.135,-0.339 0.12,-0.297 0.12,-0.245Z" style="fill:rgb(139,139,139);fill-rule:nonzero;"/>
            </g>
            <g transform="matrix(118.297,0,0,118.297,1547.68,316.746)">
                <path d="M0.148,0L0.056,0L0.056,-0.49L0.144,-0.49L0.144,-0.422L0.148,-0.422C0.162,-0.446 0.184,-0.466 0.213,-0.482C0.242,-0.498 0.27,-0.506 0.299,-0.506C0.335,-0.506 0.367,-0.498 0.394,-0.481C0.421,-0.464 0.441,-0.441 0.454,-0.412C0.495,-0.475 0.551,-0.506 0.623,-0.506C0.68,-0.506 0.723,-0.489 0.754,-0.454C0.785,-0.419 0.8,-0.37 0.8,-0.306L0.8,0L0.708,0L0.708,-0.292C0.708,-0.338 0.7,-0.371 0.683,-0.392C0.666,-0.412 0.638,-0.422 0.599,-0.422C0.564,-0.422 0.534,-0.407 0.51,-0.377C0.486,-0.347 0.474,-0.312 0.474,-0.271L0.474,0L0.382,0L0.382,-0.292C0.382,-0.338 0.374,-0.371 0.357,-0.392C0.34,-0.412 0.312,-0.422 0.273,-0.422C0.238,-0.422 0.208,-0.407 0.184,-0.377C0.16,-0.347 0.148,-0.312 0.148,-0.271L0.148,0Z" style="fill:rgb(139,139,139);fill-rule:nonzero;"/>
            </g>
            <g transform="matrix(118.297,0,0,118.297,1651.43,316.746)">
                <path d="M0.296,-0.068C0.34,-0.068 0.377,-0.085 0.407,-0.118C0.437,-0.151 0.452,-0.193 0.452,-0.245C0.452,-0.296 0.437,-0.339 0.407,-0.372C0.377,-0.405 0.34,-0.422 0.296,-0.422C0.251,-0.422 0.214,-0.405 0.184,-0.372C0.155,-0.339 0.14,-0.296 0.14,-0.245C0.14,-0.193 0.155,-0.15 0.184,-0.117C0.214,-0.084 0.251,-0.068 0.296,-0.068ZM0.311,0.016C0.275,0.016 0.242,0.008 0.213,-0.007C0.183,-0.022 0.16,-0.043 0.144,-0.068L0.14,-0.068L0.144,0L0.144,0.216L0.052,0.216L0.052,-0.49L0.14,-0.49L0.14,-0.422L0.144,-0.422C0.16,-0.447 0.183,-0.468 0.213,-0.483C0.242,-0.498 0.275,-0.506 0.311,-0.506C0.376,-0.506 0.43,-0.481 0.475,-0.43C0.521,-0.379 0.544,-0.317 0.544,-0.245C0.544,-0.172 0.521,-0.111 0.475,-0.06C0.43,-0.009 0.376,0.016 0.311,0.016Z" style="fill:rgb(139,139,139);fill-rule:nonzero;"/>
            </g>
            <g transform="matrix(118.297,0,0,118.297,1721.46,316.746)">
                <path d="M0.486,0L0.398,0L0.398,-0.068L0.394,-0.068C0.38,-0.044 0.359,-0.024 0.33,-0.008C0.301,0.008 0.27,0.016 0.239,0.016C0.179,0.016 0.133,-0.001 0.101,-0.035C0.068,-0.07 0.052,-0.119 0.052,-0.182L0.052,-0.49L0.144,-0.49L0.144,-0.188C0.146,-0.108 0.186,-0.068 0.265,-0.068C0.302,-0.068 0.332,-0.083 0.357,-0.113C0.382,-0.142 0.394,-0.178 0.394,-0.219L0.394,-0.49L0.486,-0.49L0.486,0Z" style="fill:rgb(139,139,139);fill-rule:nonzero;"/>
            </g>
            <g transform="matrix(118.297,0,0,118.297,1789.13,316.746)">
                <path d="M0.25,0.008C0.21,0.008 0.177,-0.004 0.151,-0.029C0.124,-0.054 0.111,-0.088 0.11,-0.132L0.11,-0.406L0.024,-0.406L0.024,-0.49L0.11,-0.49L0.11,-0.64L0.202,-0.64L0.202,-0.49L0.322,-0.49L0.322,-0.406L0.202,-0.406L0.202,-0.162C0.202,-0.129 0.208,-0.107 0.221,-0.096C0.234,-0.084 0.248,-0.078 0.264,-0.078C0.271,-0.078 0.279,-0.079 0.285,-0.081C0.293,-0.082 0.299,-0.084 0.305,-0.087L0.334,-0.005C0.31,0.004 0.282,0.008 0.25,0.008Z" style="fill:rgb(139,139,139);fill-rule:nonzero;"/>
            </g>
            <g transform="matrix(118.297,0,0,118.297,1834.55,316.746)">
                <path d="M0.175,-0.659C0.175,-0.641 0.169,-0.626 0.156,-0.613C0.143,-0.6 0.128,-0.594 0.11,-0.594C0.092,-0.594 0.077,-0.6 0.064,-0.613C0.051,-0.626 0.045,-0.641 0.045,-0.659C0.045,-0.677 0.051,-0.692 0.064,-0.705C0.077,-0.718 0.092,-0.724 0.11,-0.724C0.128,-0.724 0.143,-0.718 0.156,-0.705C0.169,-0.692 0.175,-0.677 0.175,-0.659ZM0.156,-0.49L0.156,0L0.064,0L0.064,-0.49L0.156,-0.49Z" style="fill:rgb(139,139,139);fill-rule:nonzero;"/>
            </g>
            <g transform="matrix(118.297,0,0,118.297,1863.54,316.746)">
                <path d="M0.056,-0.49L0.144,-0.49L0.144,-0.422L0.148,-0.422C0.162,-0.446 0.184,-0.466 0.213,-0.482C0.242,-0.498 0.272,-0.506 0.303,-0.506C0.363,-0.506 0.409,-0.489 0.442,-0.455C0.474,-0.42 0.49,-0.371 0.49,-0.308L0.49,0L0.398,0L0.398,-0.302C0.396,-0.382 0.356,-0.422 0.277,-0.422C0.24,-0.422 0.21,-0.407 0.185,-0.378C0.16,-0.348 0.148,-0.312 0.148,-0.271L0.148,0L0.056,0L0.056,-0.49Z" style="fill:rgb(139,139,139);fill-rule:nonzero;"/>
            </g>
            <g transform="matrix(118.297,0,0,118.297,1930.02,316.746)">
                <path d="M0.276,-0.068C0.321,-0.068 0.358,-0.084 0.387,-0.117C0.417,-0.15 0.432,-0.192 0.432,-0.245C0.432,-0.296 0.417,-0.339 0.387,-0.372C0.358,-0.405 0.321,-0.422 0.276,-0.422C0.232,-0.422 0.195,-0.405 0.165,-0.372C0.135,-0.339 0.12,-0.296 0.12,-0.245C0.12,-0.193 0.135,-0.151 0.165,-0.118C0.195,-0.085 0.232,-0.068 0.276,-0.068ZM0.273,0.232C0.246,0.232 0.22,0.228 0.196,0.221C0.172,0.214 0.15,0.205 0.131,0.192C0.111,0.179 0.094,0.164 0.08,0.147C0.066,0.13 0.055,0.11 0.048,0.089L0.135,0.053C0.145,0.082 0.162,0.105 0.187,0.122C0.212,0.139 0.24,0.148 0.273,0.148C0.323,0.148 0.362,0.133 0.39,0.103C0.418,0.073 0.432,0.032 0.432,-0.021L0.432,-0.068L0.428,-0.068C0.411,-0.042 0.387,-0.021 0.358,-0.007C0.328,0.008 0.296,0.016 0.261,0.016C0.197,0.016 0.142,-0.009 0.096,-0.059C0.051,-0.11 0.028,-0.172 0.028,-0.245C0.028,-0.318 0.051,-0.379 0.096,-0.43C0.142,-0.481 0.197,-0.506 0.261,-0.506C0.296,-0.506 0.328,-0.499 0.358,-0.484C0.387,-0.469 0.411,-0.448 0.428,-0.422L0.432,-0.422L0.432,-0.49L0.52,-0.49L0.52,-0.021C0.52,0.058 0.498,0.119 0.453,0.164C0.408,0.209 0.348,0.232 0.273,0.232Z" style="fill:rgb(139,139,139);fill-rule:nonzero;"/>
            </g>
        </g>
    </g>
    <defs>
        <linearGradient id="_Linear1" x1="0" y1="0" x2="1" y2="0" gradientUnits="userSpaceOnUse" gradientTransform="matrix(130.31,0,0,130.31,890.73,65.15)"><stop offset="0" style="stop-color:rgb(66,133,244);stop-opacity:1"/><stop offset="0.18" style="stop-color:rgb(66,133,244);stop-opacity:0.8"/><stop offset="0.59" style="stop-color:rgb(66,133,244);stop-opacity:0.37"/><stop offset="0.87" style="stop-color:rgb(66,133,244);stop-opacity:0.1"/><stop offset="1" style="stop-color:rgb(66,133,244);stop-opacity:0"/></linearGradient>
        <linearGradient id="_Linear2" x1="0" y1="0" x2="1" y2="0" gradientUnits="userSpaceOnUse" gradientTransform="matrix(-83.7603,-174.665,174.665,-83.7603,1225.45,210.54)"><stop offset="0" style="stop-color:rgb(66,133,244);stop-opacity:1"/><stop offset="0.18" style="stop-color:rgb(66,133,244);stop-opacity:0.8"/><stop offset="0.59" style="stop-color:rgb(66,133,244);stop-opacity:0.37"/><stop offset="0.87" style="stop-color:rgb(66,133,244);stop-opacity:0.1"/><stop offset="1" style="stop-color:rgb(66,133,244);stop-opacity:0"/></linearGradient>
        <linearGradient id="_Linear3" x1="0" y1="0" x2="1" y2="0" gradientUnits="userSpaceOnUse" gradientTransform="matrix(86.1908,-173.478,173.478,86.1908,799.916,272.89)"><stop offset="0" style="stop-color:rgb(66,133,244);stop-opacity:1"/><stop offset="0.18" style="stop-color:rgb(66,133,244);stop-opacity:0.8"/><stop offset="0.59" style="stop-color:rgb(66,133,244);stop-opacity:0.37"/><stop offset="0.87" style="stop-color:rgb(66,133,244);stop-opacity:0.1"/><stop offset="1" style="stop-color:rgb(66,133,244);stop-opacity:0"/></linearGradient>
        <linearGradient id="_Linear4" x1="0" y1="0" x2="1" y2="0" gradientUnits="userSpaceOnUse" gradientTransform="matrix(121.807,150.634,-150.634,121.807,74.8145,2.56758)"><stop offset="0" style="stop-color:rgb(66,133,244);stop-opacity:1"/><stop offset="0.18" style="stop-color:rgb(66,133,244);stop-opacity:0.8"/><stop offset="0.59" style="stop-color:rgb(66,133,244);stop-opacity:0.37"/><stop offset="0.87" style="stop-color:rgb(66,133,244);stop-opacity:0.1"/><stop offset="1" style="stop-color:rgb(66,133,244);stop-opacity:0"/></linearGradient>
        <linearGradient id="_Linear5" x1="0" y1="0" x2="1" y2="0" gradientUnits="userSpaceOnUse" gradientTransform="matrix(193.338,11.9944,-11.9944,193.338,109.364,165.756)"><stop offset="0" style="stop-color:rgb(66,133,244);stop-opacity:1"/><stop offset="0.18" style="stop-color:rgb(66,133,244);stop-opacity:0.8"/><stop offset="0.59" style="stop-color:rgb(66,133,244);stop-opacity:0.37"/><stop offset="0.87" style="stop-color:rgb(66,133,244);stop-opacity:0.1"/><stop offset="1" style="stop-color:rgb(66,133,244);stop-opacity:0"/></linearGradient>
        <linearGradient id="_Linear6" x1="0" y1="0" x2="1" y2="0" gradientUnits="userSpaceOnUse" gradientTransform="matrix(83.7603,174.665,-174.665,83.7603,582.761,150)"><stop offset="0" style="stop-color:rgb(66,133,244);stop-opacity:1"/><stop offset="0.18" style="stop-color:rgb(66,133,244);stop-opacity:0.8"/><stop offset="0.59" style="stop-color:rgb(66,133,244);stop-opacity:0.37"/><stop offset="0.87" style="stop-color:rgb(66,133,244);stop-opacity:0.1"/><stop offset="1" style="stop-color:rgb(66,133,244);stop-opacity:0"/></linearGradient>
        <linearGradient id="_Linear7" x1="0" y1="0" x2="1" y2="0" gradientUnits="userSpaceOnUse" gradientTransform="matrix(81.3582,114.289,-114.289,81.3582,799.675,59.7157)"><stop offset="0" style="stop-color:rgb(66,133,244);stop-opacity:1"/><stop offset="0.18" style="stop-color:rgb(66,133,244);stop-opacity:0.8"/><stop offset="0.59" style="stop-color:rgb(66,133,244);stop-opacity:0.37"/><stop offset="0.87" style="stop-color:rgb(66,133,244);stop-opacity:0.1"/><stop offset="1" style="stop-color:rgb(66,133,244);stop-opacity:0"/></linearGradient>
        <linearGradient id="_Linear8" x1="0" y1="0" x2="1" y2="0" gradientUnits="userSpaceOnUse" gradientTransform="matrix(114.295,81.3624,-81.3624,114.295,748.691,29.5334)"><stop offset="0" style="stop-color:rgb(66,133,244);stop-opacity:1"/><stop offset="0.18" style="stop-color:rgb(66,133,244);stop-opacity:0.8"/><stop offset="0.59" style="stop-color:rgb(66,133,244);stop-opacity:0.37"/><stop offset="0.87" style="stop-color:rgb(66,133,244);stop-opacity:0.1"/><stop offset="1" style="stop-color:rgb(66,133,244);stop-opacity:0"/></linearGradient>
        <linearGradient id="_Linear9" x1="0" y1="0" x2="1" y2="0" gradientUnits="userSpaceOnUse" gradientTransform="matrix(257.338,123.572,-123.572,257.338,268.509,185.964)"><stop offset="0" style="stop-color:rgb(66,133,244);stop-opacity:1"/><stop offset="0.18" style="stop-color:rgb(66,133,244);stop-opacity:0.8"/><stop offset="0.59" style="stop-color:rgb(66,133,244);stop-opacity:0.37"/><stop offset="0.87" style="stop-color:rgb(66,133,244);stop-opacity:0.1"/><stop offset="1" style="stop-color:rgb(66,133,244);stop-opacity:0"/></linearGradient>
        <linearGradient id="_Linear10" x1="0" y1="0" x2="1" y2="0" gradientUnits="userSpaceOnUse" gradientTransform="matrix(-269.354,94.5903,-94.5903,-269.354,783.736,189.904)"><stop offset="0" style="stop-color:rgb(66,133,244);stop-opacity:1"/><stop offset="0.18" style="stop-color:rgb(66,133,244);stop-opacity:0.8"/><stop offset="0.59" style="stop-color:rgb(66,133,244);stop-opacity:0.37"/><stop offset="0.87" style="stop-color:rgb(66,133,244);stop-opacity:0.1"/><stop offset="1" style="stop-color:rgb(66,133,244);stop-opacity:0"/></linearGradient>
        <linearGradient id="_Linear11" x1="0" y1="0" x2="1" y2="0" gradientUnits="userSpaceOnUse" gradientTransform="matrix(-269.344,94.587,-94.587,-269.344,379.539,132.878)"><stop offset="0" style="stop-color:rgb(66,133,244);stop-opacity:1"/><stop offset="0.18" style="stop-color:rgb(66,133,244);stop-opacity:0.8"/><stop offset="0.59" style="stop-color:rgb(66,133,244);stop-opacity:0.37"/><stop offset="0.87" style="stop-color:rgb(66,133,244);stop-opacity:0.1"/><stop offset="1" style="stop-color:rgb(66,133,244);stop-opacity:0"/></linearGradient>
        <linearGradient id="_Linear12" x1="0" y1="0" x2="1" y2="0" gradientUnits="userSpaceOnUse" gradientTransform="matrix(228.376,168.427,-168.427,228.376,275.782,189.726)"><stop offset="0" style="stop-color:rgb(66,133,244);stop-opacity:1"/><stop offset="0.18" style="stop-color:rgb(66,133,244);stop-opacity:0.8"/><stop offset="0.59" style="stop-color:rgb(66,133,244);stop-opacity:0.37"/><stop offset="0.87" style="stop-color:rgb(66,133,244);stop-opacity:0.1"/><stop offset="1" style="stop-color:rgb(66,133,244);stop-opacity:0"/></linearGradient>
        <linearGradient id="_Linear13" x1="0" y1="0" x2="1" y2="0" gradientUnits="userSpaceOnUse" gradientTransform="matrix(148.219,80.0413,-80.0413,148.219,430.082,54.2761)"><stop offset="0" style="stop-color:rgb(66,133,244);stop-opacity:1"/><stop offset="0.18" style="stop-color:rgb(66,133,244);stop-opacity:0.8"/><stop offset="0.59" style="stop-color:rgb(66,133,244);stop-opacity:0.37"/><stop offset="0.87" style="stop-color:rgb(66,133,244);stop-opacity:0.1"/><stop offset="1" style="stop-color:rgb(66,133,244);stop-opacity:0"/></linearGradient>
        <linearGradient id="_Linear14" x1="0" y1="0" x2="1" y2="0" gradientUnits="userSpaceOnUse" gradientTransform="matrix(-76.5128,-113.403,113.403,-76.5128,581.847,116.393)"><stop offset="0" style="stop-color:rgb(66,133,244);stop-opacity:1"/><stop offset="0.18" style="stop-color:rgb(66,133,244);stop-opacity:0.8"/><stop offset="0.59" style="stop-color:rgb(66,133,244);stop-opacity:0.37"/><stop offset="0.87" style="stop-color:rgb(66,133,244);stop-opacity:0.1"/><stop offset="1" style="stop-color:rgb(66,133,244);stop-opacity:0"/></linearGradient>
        <linearGradient id="_Linear15" x1="0" y1="0" x2="1" y2="0" gradientUnits="userSpaceOnUse" gradientTransform="matrix(8.50823e-15,138.95,-138.95,8.50823e-15,835.26,92.46)"><stop offset="0" style="stop-color:rgb(110,161,247);stop-opacity:1"/><stop offset="0.31" style="stop-color:rgb(91,149,246);stop-opacity:1"/><stop offset="0.71" style="stop-color:rgb(73,137,244);stop-opacity:1"/><stop offset="1" style="stop-color:rgb(66,133,244);stop-opacity:1"/></linearGradient>
        <linearGradient id="_Linear16" x1="0" y1="0" x2="1" y2="0" gradientUnits="userSpaceOnUse" gradientTransform="matrix(122.43,0,0,122.43,774.05,162.94)"><stop offset="0" style="stop-color:rgb(110,161,247);stop-opacity:1"/><stop offset="0.31" style="stop-color:rgb(91,149,246);stop-opacity:1"/><stop offset="0.71" style="stop-color:rgb(73,137,244);stop-opacity:1"/><stop offset="1" style="stop-color:rgb(66,133,244);stop-opacity:1"/></linearGradient>
        <linearGradient id="_Linear17" x1="0" y1="0" x2="1" y2="0" gradientUnits="userSpaceOnUse" gradientTransform="matrix(138.95,0,0,138.95,145.27,161.94)"><stop offset="0" style="stop-color:rgb(110,161,247);stop-opacity:1"/><stop offset="0.31" style="stop-color:rgb(91,149,246);stop-opacity:1"/><stop offset="0.71" style="stop-color:rgb(73,137,244);stop-opacity:1"/><stop offset="1" style="stop-color:rgb(66,133,244);stop-opacity:1"/></linearGradient>
        <linearGradient id="_Linear18" x1="0" y1="0" x2="1" y2="0" gradientUnits="userSpaceOnUse" gradientTransform="matrix(6.03139e-15,-98.5,98.5,6.03139e-15,211.98,212.19)"><stop offset="0" style="stop-color:rgb(110,161,247);stop-opacity:1"/><stop offset="0.31" style="stop-color:rgb(91,149,246);stop-opacity:1"/><stop offset="0.71" style="stop-color:rgb(73,137,244);stop-opacity:1"/><stop offset="1" style="stop-color:rgb(66,133,244);stop-opacity:1"/></linearGradient>
        <linearGradient id="_Linear19" x1="0" y1="0" x2="1" y2="0" gradientUnits="userSpaceOnUse" gradientTransform="matrix(138.97,0,0,138.97,362.99,167.97)"><stop offset="0" style="stop-color:rgb(234,67,53);stop-opacity:1"/><stop offset="1" style="stop-color:rgb(241,131,122);stop-opacity:1"/></linearGradient>
        <linearGradient id="_Linear20" x1="0" y1="0" x2="1" y2="0" gradientUnits="userSpaceOnUse" gradientTransform="matrix(84.64,-50.38,50.38,84.64,387.88,191.3)"><stop offset="0" style="stop-color:rgb(234,67,53);stop-opacity:1"/><stop offset="1" style="stop-color:rgb(241,131,122);stop-opacity:1"/></linearGradient>
        <linearGradient id="_Linear21" x1="0" y1="0" x2="1" y2="0" gradientUnits="userSpaceOnUse" gradientTransform="matrix(-3.93,-139.515,139.515,-3.93,1023.54,214.488)"><stop offset="0" style="stop-color:rgb(52,168,83);stop-opacity:1"/><stop offset="1" style="stop-color:rgb(129,201,148);stop-opacity:1"/></linearGradient>
        <linearGradient id="_Linear22" x1="0" y1="0" x2="1" y2="0" gradientUnits="userSpaceOnUse" gradientTransform="matrix(-82.7849,-111.592,111.592,-82.7849,677.645,215.79)"><stop offset="0" style="stop-color:rgb(251,188,5);stop-opacity:1"/><stop offset="1" style="stop-color:rgb(253,224,140);stop-opacity:1"/></linearGradient>
    </defs>
</svg>
