<?xml version="1.0" encoding="UTF-8" standalone="no"?>
<!DOCTYPE svg PUBLIC "-//W3C//DTD SVG 1.1//EN" "http://www.w3.org/Graphics/SVG/1.1/DTD/svg11.dtd">
<svg width="100%" height="100%" viewBox="0 0 1700 364" version="1.1" xmlns="http://www.w3.org/2000/svg" xmlns:xlink="http://www.w3.org/1999/xlink" xml:space="preserve" xmlns:serif="http://www.serif.com/" style="fill-rule:evenodd;clip-rule:evenodd;stroke-linejoin:round;stroke-miterlimit:2;">
    <g transform="matrix(0.492295,0,0,0.492295,136.021,105.663)">
        <g transform="matrix(370.295,0,0,370.295,122.615,313.811)">
            <path d="M0.761,-0.329C0.761,-0.229 0.731,-0.149 0.672,-0.09C0.605,-0.019 0.518,0.016 0.409,0.016C0.305,0.016 0.217,-0.02 0.145,-0.092C0.073,-0.164 0.037,-0.253 0.037,-0.358C0.037,-0.463 0.073,-0.552 0.145,-0.624C0.217,-0.696 0.305,-0.732 0.409,-0.732C0.462,-0.732 0.511,-0.723 0.558,-0.704C0.605,-0.685 0.643,-0.659 0.673,-0.625L0.607,-0.559C0.585,-0.586 0.557,-0.607 0.522,-0.622C0.487,-0.636 0.449,-0.644 0.409,-0.644C0.331,-0.644 0.265,-0.617 0.211,-0.563C0.158,-0.508 0.131,-0.44 0.131,-0.358C0.131,-0.276 0.158,-0.208 0.211,-0.153C0.265,-0.099 0.331,-0.072 0.409,-0.072C0.48,-0.072 0.54,-0.092 0.587,-0.132C0.634,-0.172 0.662,-0.227 0.669,-0.297L0.409,-0.297L0.409,-0.383L0.756,-0.383C0.759,-0.364 0.761,-0.346 0.761,-0.329Z" style="fill:rgb(139,139,139);fill-rule:nonzero;"/>
        </g>
        <g transform="matrix(370.295,0,0,370.295,411.815,313.811)">
            <path d="M0.148,0L0.056,0L0.056,-0.49L0.144,-0.49L0.144,-0.41L0.148,-0.41C0.157,-0.436 0.177,-0.458 0.205,-0.476C0.234,-0.495 0.263,-0.504 0.291,-0.504C0.318,-0.504 0.34,-0.5 0.359,-0.492L0.331,-0.403C0.32,-0.408 0.302,-0.41 0.277,-0.41C0.242,-0.41 0.212,-0.396 0.187,-0.368C0.161,-0.34 0.148,-0.307 0.148,-0.27L0.148,0Z" style="fill:rgb(139,139,139);fill-rule:nonzero;"/>
        </g>
        <g transform="matrix(370.295,0,0,370.295,535.123,313.811)">
            <path d="M0.276,0.016C0.204,0.016 0.145,-0.009 0.098,-0.058C0.051,-0.107 0.028,-0.17 0.028,-0.245C0.028,-0.32 0.051,-0.382 0.096,-0.432C0.141,-0.481 0.199,-0.506 0.27,-0.506C0.343,-0.506 0.401,-0.483 0.444,-0.436C0.487,-0.389 0.508,-0.323 0.508,-0.238L0.507,-0.228L0.122,-0.228C0.123,-0.18 0.139,-0.141 0.17,-0.112C0.201,-0.083 0.237,-0.068 0.28,-0.068C0.339,-0.068 0.385,-0.097 0.418,-0.156L0.5,-0.116C0.478,-0.075 0.448,-0.042 0.408,-0.019C0.37,0.004 0.325,0.016 0.276,0.016ZM0.129,-0.304L0.41,-0.304C0.407,-0.338 0.394,-0.366 0.369,-0.389C0.344,-0.411 0.31,-0.422 0.268,-0.422C0.233,-0.422 0.203,-0.411 0.179,-0.39C0.154,-0.369 0.137,-0.34 0.129,-0.304Z" style="fill:rgb(139,139,139);fill-rule:nonzero;"/>
        </g>
        <g transform="matrix(370.295,0,0,370.295,735.452,313.811)">
            <path d="M0.123,-0.15C0.123,-0.126 0.133,-0.106 0.154,-0.09C0.174,-0.074 0.198,-0.066 0.225,-0.066C0.264,-0.066 0.298,-0.08 0.329,-0.109C0.359,-0.138 0.374,-0.171 0.374,-0.21C0.345,-0.233 0.305,-0.244 0.254,-0.244C0.217,-0.244 0.186,-0.235 0.161,-0.217C0.136,-0.199 0.123,-0.177 0.123,-0.15ZM0.242,-0.506C0.31,-0.506 0.364,-0.488 0.403,-0.452C0.442,-0.415 0.462,-0.365 0.462,-0.302L0.462,0L0.374,0L0.374,-0.068L0.37,-0.068C0.332,-0.012 0.281,0.016 0.218,0.016C0.164,0.016 0.119,0 0.083,-0.032C0.046,-0.064 0.028,-0.104 0.028,-0.152C0.028,-0.203 0.047,-0.243 0.086,-0.273C0.124,-0.303 0.175,-0.318 0.239,-0.318C0.294,-0.318 0.339,-0.308 0.374,-0.288L0.374,-0.309C0.374,-0.341 0.361,-0.368 0.336,-0.391C0.311,-0.413 0.281,-0.424 0.247,-0.424C0.196,-0.424 0.155,-0.402 0.125,-0.359L0.044,-0.41C0.089,-0.474 0.155,-0.506 0.242,-0.506Z" style="fill:rgb(139,139,139);fill-rule:nonzero;"/>
        </g>
        <g transform="matrix(370.295,0,0,370.295,920.6,313.811)">
            <path d="M0.25,0.008C0.21,0.008 0.177,-0.004 0.151,-0.029C0.124,-0.054 0.111,-0.088 0.11,-0.132L0.11,-0.406L0.024,-0.406L0.024,-0.49L0.11,-0.49L0.11,-0.64L0.202,-0.64L0.202,-0.49L0.322,-0.49L0.322,-0.406L0.202,-0.406L0.202,-0.162C0.202,-0.129 0.208,-0.107 0.221,-0.096C0.234,-0.084 0.248,-0.078 0.264,-0.078C0.271,-0.078 0.279,-0.079 0.285,-0.081C0.293,-0.082 0.299,-0.084 0.305,-0.087L0.334,-0.005C0.31,0.004 0.282,0.008 0.25,0.008Z" style="fill:rgb(139,139,139);fill-rule:nonzero;"/>
        </g>
        <g transform="matrix(370.295,0,0,370.295,1133.15,313.811)">
            <path d="M0.25,0.008C0.21,0.008 0.177,-0.004 0.151,-0.029C0.124,-0.054 0.111,-0.088 0.11,-0.132L0.11,-0.406L0.024,-0.406L0.024,-0.49L0.11,-0.49L0.11,-0.64L0.202,-0.64L0.202,-0.49L0.322,-0.49L0.322,-0.406L0.202,-0.406L0.202,-0.162C0.202,-0.129 0.208,-0.107 0.221,-0.096C0.234,-0.084 0.248,-0.078 0.264,-0.078C0.271,-0.078 0.279,-0.079 0.285,-0.081C0.293,-0.082 0.299,-0.084 0.305,-0.087L0.334,-0.005C0.31,0.004 0.282,0.008 0.25,0.008Z" style="fill:rgb(139,139,139);fill-rule:nonzero;"/>
        </g>
        <g transform="matrix(370.295,0,0,370.295,1262.38,313.811)">
            <path d="M0.028,-0.245C0.028,-0.32 0.052,-0.383 0.099,-0.432C0.147,-0.481 0.207,-0.506 0.28,-0.506C0.353,-0.506 0.413,-0.481 0.46,-0.432C0.508,-0.383 0.532,-0.32 0.532,-0.245C0.532,-0.169 0.508,-0.107 0.46,-0.058C0.413,-0.009 0.353,0.016 0.28,0.016C0.207,0.016 0.147,-0.009 0.099,-0.058C0.052,-0.107 0.028,-0.17 0.028,-0.245ZM0.12,-0.245C0.12,-0.192 0.135,-0.15 0.166,-0.117C0.197,-0.084 0.235,-0.068 0.28,-0.068C0.325,-0.068 0.363,-0.084 0.394,-0.117C0.425,-0.15 0.44,-0.192 0.44,-0.245C0.44,-0.297 0.425,-0.339 0.394,-0.372C0.363,-0.405 0.325,-0.422 0.28,-0.422C0.235,-0.422 0.197,-0.405 0.166,-0.372C0.135,-0.339 0.12,-0.297 0.12,-0.245Z" style="fill:rgb(139,139,139);fill-rule:nonzero;"/>
        </g>
        <g transform="matrix(370.295,0,0,370.295,1551.21,313.811)">
            <path d="M0.431,-0.136C0.431,-0.093 0.412,-0.057 0.375,-0.028C0.338,0.001 0.291,0.016 0.234,0.016C0.185,0.016 0.141,0.003 0.104,-0.023C0.067,-0.048 0.04,-0.082 0.024,-0.124L0.106,-0.159C0.118,-0.13 0.136,-0.107 0.159,-0.091C0.182,-0.074 0.207,-0.066 0.234,-0.066C0.263,-0.066 0.288,-0.072 0.308,-0.085C0.327,-0.098 0.337,-0.113 0.337,-0.13C0.337,-0.161 0.313,-0.184 0.265,-0.199L0.181,-0.22C0.086,-0.244 0.038,-0.29 0.038,-0.358C0.038,-0.403 0.056,-0.439 0.093,-0.466C0.129,-0.493 0.175,-0.506 0.232,-0.506C0.275,-0.506 0.315,-0.496 0.349,-0.475C0.385,-0.454 0.409,-0.427 0.423,-0.392L0.341,-0.358C0.332,-0.379 0.317,-0.395 0.296,-0.406C0.275,-0.418 0.251,-0.424 0.225,-0.424C0.201,-0.424 0.18,-0.418 0.161,-0.406C0.141,-0.394 0.132,-0.379 0.132,-0.362C0.132,-0.334 0.158,-0.314 0.211,-0.302L0.285,-0.283C0.382,-0.259 0.431,-0.21 0.431,-0.136Z" style="fill:rgb(139,139,139);fill-rule:nonzero;"/>
        </g>
        <g transform="matrix(370.295,0,0,370.295,1721.55,313.811)">
            <path d="M0.276,0.016C0.204,0.016 0.145,-0.009 0.098,-0.058C0.051,-0.107 0.028,-0.17 0.028,-0.245C0.028,-0.32 0.051,-0.382 0.096,-0.432C0.141,-0.481 0.199,-0.506 0.27,-0.506C0.343,-0.506 0.401,-0.483 0.444,-0.436C0.487,-0.389 0.508,-0.323 0.508,-0.238L0.507,-0.228L0.122,-0.228C0.123,-0.18 0.139,-0.141 0.17,-0.112C0.201,-0.083 0.237,-0.068 0.28,-0.068C0.339,-0.068 0.385,-0.097 0.418,-0.156L0.5,-0.116C0.478,-0.075 0.448,-0.042 0.408,-0.019C0.37,0.004 0.325,0.016 0.276,0.016ZM0.129,-0.304L0.41,-0.304C0.407,-0.338 0.394,-0.366 0.369,-0.389C0.344,-0.411 0.31,-0.422 0.268,-0.422C0.233,-0.422 0.203,-0.411 0.179,-0.39C0.154,-0.369 0.137,-0.34 0.129,-0.304Z" style="fill:rgb(139,139,139);fill-rule:nonzero;"/>
        </g>
        <g transform="matrix(370.295,0,0,370.295,1921.88,313.811)">
            <path d="M0.276,0.016C0.204,0.016 0.145,-0.009 0.098,-0.058C0.051,-0.107 0.028,-0.17 0.028,-0.245C0.028,-0.32 0.051,-0.382 0.096,-0.432C0.141,-0.481 0.199,-0.506 0.27,-0.506C0.343,-0.506 0.401,-0.483 0.444,-0.436C0.487,-0.389 0.508,-0.323 0.508,-0.238L0.507,-0.228L0.122,-0.228C0.123,-0.18 0.139,-0.141 0.17,-0.112C0.201,-0.083 0.237,-0.068 0.28,-0.068C0.339,-0.068 0.385,-0.097 0.418,-0.156L0.5,-0.116C0.478,-0.075 0.448,-0.042 0.408,-0.019C0.37,0.004 0.325,0.016 0.276,0.016ZM0.129,-0.304L0.41,-0.304C0.407,-0.338 0.394,-0.366 0.369,-0.389C0.344,-0.411 0.31,-0.422 0.268,-0.422C0.233,-0.422 0.203,-0.411 0.179,-0.39C0.154,-0.369 0.137,-0.34 0.129,-0.304Z" style="fill:rgb(139,139,139);fill-rule:nonzero;"/>
        </g>
        <g transform="matrix(370.295,0,0,370.295,2201.82,313.811)">
            <path d="M0.494,-0.49L0.187,0.216L0.092,0.216L0.206,-0.031L0.004,-0.49L0.104,-0.49L0.25,-0.138L0.252,-0.138L0.394,-0.49L0.494,-0.49Z" style="fill:rgb(139,139,139);fill-rule:nonzero;"/>
        </g>
        <g transform="matrix(370.295,0,0,370.295,2378.82,313.811)">
            <path d="M0.028,-0.245C0.028,-0.32 0.052,-0.383 0.099,-0.432C0.147,-0.481 0.207,-0.506 0.28,-0.506C0.353,-0.506 0.413,-0.481 0.46,-0.432C0.508,-0.383 0.532,-0.32 0.532,-0.245C0.532,-0.169 0.508,-0.107 0.46,-0.058C0.413,-0.009 0.353,0.016 0.28,0.016C0.207,0.016 0.147,-0.009 0.099,-0.058C0.052,-0.107 0.028,-0.17 0.028,-0.245ZM0.12,-0.245C0.12,-0.192 0.135,-0.15 0.166,-0.117C0.197,-0.084 0.235,-0.068 0.28,-0.068C0.325,-0.068 0.363,-0.084 0.394,-0.117C0.425,-0.15 0.44,-0.192 0.44,-0.245C0.44,-0.297 0.425,-0.339 0.394,-0.372C0.363,-0.405 0.325,-0.422 0.28,-0.422C0.235,-0.422 0.197,-0.405 0.166,-0.372C0.135,-0.339 0.12,-0.297 0.12,-0.245Z" style="fill:rgb(139,139,139);fill-rule:nonzero;"/>
        </g>
        <g transform="matrix(370.295,0,0,370.295,2584.33,313.811)">
            <path d="M0.486,0L0.398,0L0.398,-0.068L0.394,-0.068C0.38,-0.044 0.359,-0.024 0.33,-0.008C0.301,0.008 0.27,0.016 0.239,0.016C0.179,0.016 0.133,-0.001 0.101,-0.035C0.068,-0.07 0.052,-0.119 0.052,-0.182L0.052,-0.49L0.144,-0.49L0.144,-0.188C0.146,-0.108 0.186,-0.068 0.265,-0.068C0.302,-0.068 0.332,-0.083 0.357,-0.113C0.382,-0.142 0.394,-0.178 0.394,-0.219L0.394,-0.49L0.486,-0.49L0.486,0Z" style="fill:rgb(139,139,139);fill-rule:nonzero;"/>
        </g>
    </g>
</svg>
